<svg xmlns="http://www.w3.org/2000/svg" width="33" height="32" viewBox="0 0 33 32" fill="none">
    <path d="M25.8333 4.00016H20.26C19.7 2.4535 18.2333 1.3335 16.5 1.3335C14.7667 1.3335 13.3 2.4535 12.74 4.00016H7.16667C5.7 4.00016 4.5 5.20016 4.5 6.66683V25.3335C4.5 26.8002 5.7 28.0002 7.16667 28.0002H25.8333C27.3 28.0002 28.5 26.8002 28.5 25.3335V6.66683C28.5 5.20016 27.3 4.00016 25.8333 4.00016ZM16.5 4.00016C17.2333 4.00016 17.8333 4.60016 17.8333 5.3335C17.8333 6.06683 17.2333 6.66683 16.5 6.66683C15.7667 6.66683 15.1667 6.06683 15.1667 5.3335C15.1667 4.60016 15.7667 4.00016 16.5 4.00016ZM19.1667 22.6668H9.83333V20.0002H19.1667V22.6668ZM23.1667 17.3335H9.83333V14.6668H23.1667V17.3335ZM23.1667 12.0002H9.83333V9.3335H23.1667V12.0002Z" fill="#6F7D9D"/>
</svg>