<svg width="28" height="28" viewBox="0 0 28 28" fill="none" xmlns="http://www.w3.org/2000/svg">
<g id="Utility Icons / C / comments">
<path id="Icon" fill-rule="evenodd" clip-rule="evenodd" d="M25.7628 16.6421C25.709 16.4267 25.709 16.2113 25.8167 15.9959C26.5167 14.7575 26.9474 13.3575 26.9474 11.8498C26.9474 7.1113 22.8551 3.23438 17.7936 3.23438C15.4243 3.23438 13.2705 4.09591 11.6551 5.49591C17.2013 6.14207 21.5628 10.6651 21.5628 16.1575C21.5628 17.5036 21.2936 18.7959 20.809 19.9805C21.4013 19.7651 21.9936 19.4959 22.532 19.2267C22.7474 19.119 22.9628 19.0651 23.1782 19.1728L26.4628 20.4651C26.7859 20.5728 27.0551 20.3036 26.9474 19.9805L25.7628 16.6421V16.6421ZM10.2551 7.54207C5.19357 7.54207 1.10127 11.419 1.10127 16.1575C1.10127 17.6651 1.53204 19.0651 2.23204 20.3036C2.33973 20.519 2.39357 20.7344 2.28588 20.9498L1.10127 24.2344C0.993574 24.5575 1.2628 24.8267 1.58588 24.719L4.8705 23.4267C5.08588 23.3728 5.30127 23.3728 5.51665 23.4805C6.91665 24.2882 8.53204 24.719 10.2551 24.719C15.3166 24.719 19.409 20.8421 19.409 16.1036C19.409 11.419 15.3166 7.54207 10.2551 7.54207V7.54207Z" fill="#706E6B"/>
</g>
</svg>
