<svg width="28" height="28" viewBox="0 0 28 28" fill="none" xmlns="http://www.w3.org/2000/svg">
<g id="Utility Icons / E / error">
<path id="Icon" fill-rule="evenodd" clip-rule="evenodd" d="M14.0002 1.07812C6.89253 1.07812 1.07715 6.89351 1.07715 14.0012C1.07715 21.1089 6.89253 26.9243 14.0002 26.9243C21.1079 26.9243 26.9233 21.1089 26.9233 14.0012C26.9233 6.89351 21.1079 1.07812 14.0002 1.07812ZM4.30792 14.0012C4.30792 8.67043 8.66946 4.30889 14.0002 4.30889C16.1002 4.30889 18.0387 4.95505 19.6002 6.08582L6.08484 19.6012C4.95407 18.0397 4.30792 16.1012 4.30792 14.0012V14.0012ZM14.0002 23.6935C11.9002 23.6935 9.96176 23.0474 8.40023 21.9166L21.9156 8.4012C23.0464 9.96274 23.6925 11.9012 23.6925 14.0012C23.6925 19.332 19.331 23.6935 14.0002 23.6935Z" fill="#C23934"/>
</g>
</svg>
