<svg width="64" height="64" viewBox="0 0 64 64" fill="none" xmlns="http://www.w3.org/2000/svg">
<g id="Spot State">
<circle id="BG" cx="32" cy="32" r="32" fill="#FBE6E6"/>
<path id="Vector" d="M31.9999 50C41.8293 50 50 41.847 50 32C50 22.1706 41.8117 14 31.9823 14C22.1352 14 14 22.1706 14 32C14 41.847 22.1529 50 31.9999 50ZM25.6646 39.8353C24.8353 39.8353 24.1646 39.1647 24.1646 38.3353C24.1646 37.9294 24.3411 37.5765 24.6235 37.3118L29.8823 32.0176L24.6235 26.7236C24.3411 26.4765 24.1646 26.1059 24.1646 25.7C24.1646 24.8883 24.8353 24.2353 25.6646 24.2353C26.0705 24.2353 26.4234 24.3941 26.6882 24.6765L31.9823 29.9529L37.3117 24.6588C37.6117 24.3412 37.9293 24.2 38.3175 24.2C39.147 24.2 39.8175 24.8706 39.8175 25.6824C39.8175 26.0882 39.6764 26.4235 39.3764 26.7059L34.0823 32.0176L39.3587 37.2765C39.6234 37.5588 39.7999 37.9118 39.7999 38.3353C39.7999 39.1647 39.1294 39.8353 38.2999 39.8353C37.8764 39.8353 37.5234 39.6588 37.2588 39.3941L31.9823 34.0999L26.7235 39.3941C26.4587 39.6764 26.0705 39.8353 25.6646 39.8353Z" fill="#D50707"/>
</g>
</svg>
