<svg width="112" height="24" viewBox="0 0 112 24" fill="none" xmlns="http://www.w3.org/2000/svg">
<path fill-rule="evenodd" clip-rule="evenodd" d="M68.1578 14.0327H66.0937V23.8276H68.1702V14.0348L68.1578 14.0327ZM57.3724 14.0327H55.2959V23.8276H57.3724V19.7746H61.4776V23.8276L63.5541 23.8276V14.0327H62.5429C61.9591 14.0327 61.4859 14.5061 61.4859 15.0901V17.88H57.3724V14.0327ZM42.3197 14.0327H40.2619V23.8276H42.3384L42.3197 14.0327ZM34.3106 15.9481C35.7497 15.9481 36.4349 16.3635 36.4349 17.3586C36.4349 18.3537 35.7227 18.8128 34.3106 18.8128H32.7865V15.9481H34.3106ZM34.674 14.0327H30.71V23.8276H32.7865V20.726H34.6719C35.8036 20.726 36.7256 20.4186 37.4379 19.7891C38.1452 19.1667 38.535 18.2588 38.499 17.3171C38.499 16.3088 38.1529 15.5125 37.4607 14.9281C36.7609 14.3256 35.841 14.0327 34.6803 14.0327H34.674ZM36.6322 7.32901C36.6322 8.15996 36.0321 8.4591 34.8754 8.4591H32.7865V6.24669H34.9211C36.0528 6.24669 36.6239 6.61024 36.6239 7.32278L36.6322 7.32901ZM36.3871 3.49624C36.3871 4.16724 35.8431 4.5017 34.7675 4.5017H32.7865V2.50741H34.6844C35.8992 2.50741 36.3871 2.77331 36.3871 3.51286V3.49624ZM37.4773 5.28694C38.1145 4.82817 38.4893 4.08839 38.4823 3.30305C38.4823 1.55805 37.1555 0.602453 35.1039 0.602453L30.71 0.602453V10.3724H35.3447C36.3643 10.3724 37.1741 10.1065 37.7867 9.59128C38.4024 9.08036 38.748 8.31379 38.7232 7.5139C38.7232 6.60608 38.3079 5.86653 37.4773 5.28071V5.28694ZM45.5757 6.60608H43.1462L44.3609 3.40899L45.5757 6.60608ZM47.0293 10.3765H49.1785L45.6131 1.26098C45.4554 0.851488 45.0612 0.582003 44.6226 0.583748L43.3767 0.583748L39.5434 10.3724H41.6926L42.4609 8.44456H46.2443L47.0293 10.3765ZM49.3383 13.8831C47.8703 13.8831 46.6555 14.3443 45.6795 15.2812C44.7036 16.2181 44.2073 17.4292 44.2073 18.952C44.2073 20.4747 44.6973 21.6754 45.6754 22.5978C46.6534 23.5201 47.9097 23.9813 49.4131 23.9813C51.0619 23.9813 52.3887 23.3664 53.3938 22.1366L52.0108 20.6699C51.4101 21.5458 50.4081 22.0591 49.3467 22.0348C48.5514 22.0584 47.7805 21.7586 47.2099 21.2038C46.6389 20.645 46.344 19.8785 46.344 18.9187C46.344 17.959 46.6389 17.2153 47.2099 16.671C47.7473 16.1354 48.476 15.8363 49.2345 15.84C49.9453 15.8347 50.6375 16.0673 51.201 16.5006C51.6231 16.8219 52.2185 16.7773 52.5881 16.3968L53.2297 15.7424C52.2981 14.543 50.852 13.8582 49.3342 13.8977L49.3383 13.8831ZM57.3308 10.3724H59.2184V0.583755L57.1419 0.583755V7.21683L53.508 1.09895C53.3185 0.779128 52.9742 0.58323 52.6026 0.583755L50.7026 0.583755V10.3724H52.7791V3.76838L56.4213 9.85926C56.6125 10.1771 56.9559 10.3717 57.3267 10.3724H57.3308ZM64.1023 7.74656C63.5313 7.18775 63.2385 6.42119 63.2385 5.46144C63.2385 4.5017 63.5313 3.75799 64.1023 3.21372C64.6397 2.67814 65.3684 2.37907 66.1269 2.38277C66.8457 2.37791 67.5452 2.61578 68.1121 3.05792C68.5325 3.36782 69.1176 3.31711 69.4784 2.93951L70.1201 2.28513C69.1915 1.08301 67.7469 0.394314 66.2287 0.43003C64.7627 0.43003 63.55 0.891209 62.572 1.82603C61.5939 2.76085 61.1059 3.97612 61.1059 5.49884C61.1059 7.02156 61.596 8.22228 62.572 9.14464C63.5479 10.067 64.8063 10.5261 66.2993 10.5261C67.9453 10.5261 69.2715 9.91189 70.2779 8.68346L68.8949 7.21683C68.2981 8.09106 67.3013 8.60571 66.2432 8.58582C65.4479 8.60946 64.677 8.30966 64.1065 7.75487L64.1023 7.74656ZM72.6098 14.041H70.7098V23.8359H72.7863V17.2194L76.4306 23.3124C76.6204 23.6319 76.9644 23.8277 77.3359 23.8276H79.2235V14.0327H77.1615V20.6803L73.5152 14.5562C73.3251 14.237 72.9812 14.0413 72.6098 14.041ZM79.3003 5.47183C79.3237 6.28139 79.0395 7.06974 78.505 7.67801C77.9733 8.28133 77.1963 8.61003 76.3932 8.57128C75.4858 8.57128 74.7735 8.27837 74.244 7.67801C73.7088 7.07017 73.4245 6.28153 73.4487 5.47183C73.4266 4.66623 73.7108 3.88224 74.244 3.27812C74.7931 2.67698 75.58 2.34991 76.3932 2.38485C77.1857 2.36464 77.9462 2.69715 78.4697 3.29266C79.017 3.8848 79.3146 4.66549 79.3003 5.47183ZM79.9233 9.10102C80.8983 8.14998 81.4301 6.83354 81.3893 5.47183C81.43 4.11745 80.8977 2.80873 79.9233 1.86758C78.9724 0.917625 77.6744 0.398213 76.3309 0.43003C74.9881 0.404833 73.693 0.928409 72.7446 1.87988C71.7963 2.83136 71.2767 4.12849 71.3058 5.47183C71.2678 6.81886 71.7842 8.12243 72.7341 9.07785C73.684 10.0333 74.9843 10.5568 76.3309 10.5261C77.6717 10.5566 78.9677 10.0425 79.9233 9.10102ZM84.1199 21.2038C83.5468 20.6409 83.2457 19.8743 83.2457 18.9187C83.2457 17.9631 83.5385 17.2153 84.1116 16.671C84.6485 16.1346 85.3775 15.8354 86.1362 15.84C86.8552 15.8339 87.5551 16.0719 88.1213 16.5152C88.5421 16.8263 89.1286 16.7756 89.4898 16.3968L90.1314 15.7424C89.1994 14.5424 87.7523 13.8575 86.2338 13.8977C84.7678 13.8977 83.553 14.3589 82.575 15.2958C81.597 16.2327 81.109 17.4479 81.109 18.9706C81.109 20.4934 81.597 21.6941 82.575 22.6164C83.553 23.5388 84.8093 24 86.3127 24C87.9587 24 89.2856 23.3851 90.2934 22.1553L88.9104 20.6886C88.3072 21.5539 87.3108 22.0594 86.2566 22.0348C85.4614 22.0584 84.6904 21.7586 84.1199 21.2038ZM98.3855 23.8317H100.452V14.0327H99.4425C98.8587 14.0327 98.3855 14.5061 98.3855 15.0901V17.88H94.2803V14.0327H92.2038V23.8276H94.2803V19.7746H98.3855V23.8317ZM108.145 20.0592H105.716L106.93 16.86L108.145 20.0592ZM111.75 23.8317L108.185 14.7058C108.027 14.3004 107.637 14.0331 107.202 14.0327H105.94L102.113 23.8276H104.264L105.032 21.8998H108.816L109.599 23.8276L111.75 23.8317Z" fill="#0F265C"/>
<path fill-rule="evenodd" clip-rule="evenodd" d="M23.8855 0V23.9999H7.99729C3.57326 23.9999 0 20.4096 0 15.9643L0 0L23.8855 0ZM19.9081 3.99643L11.9534 3.99643V7.60818H16.3136V11.9893H19.9081V3.99643Z" fill="#FFDD00"/>
<path fill-rule="evenodd" clip-rule="evenodd" d="M19.9098 4L11.9551 4V7.61175H16.3153V11.9929H19.9098V4Z" fill="#0F265C"/>
</svg>
