<svg width="56" height="56" viewBox="0 0 56 56" fill="none" xmlns="http://www.w3.org/2000/svg">
<g id="Spot State">
<circle id="BG" cx="28" cy="28" r="28" fill="#ECF6EE"/>
<path id="Vector" fill-rule="evenodd" clip-rule="evenodd" d="M28 43.75C19.3015 43.75 12.25 36.6985 12.25 28C12.25 19.3015 19.3015 12.25 28 12.25C36.6985 12.25 43.75 19.3015 43.75 28C43.75 36.6985 36.6985 43.75 28 43.75ZM35.0795 22.7045C34.6402 22.2652 33.9279 22.2652 33.4885 22.7045L26.3125 29.8805C25.8732 30.3199 25.1608 30.3199 24.7215 29.8805L22.608 27.767C22.1687 27.3277 21.4563 27.3277 21.017 27.767C20.5777 28.2063 20.5777 28.9187 21.017 29.358L24.7215 33.0625C25.1608 33.5018 25.8732 33.5018 26.3125 33.0625L35.0795 24.2955C35.5188 23.8562 35.5188 23.1438 35.0795 22.7045Z" fill="#31A451"/>
</g>
</svg>
