<svg xmlns="http://www.w3.org/2000/svg" width="64" height="64" viewBox="0 0 64 64" fill="none">
    <circle cx="32" cy="32" r="32" fill="#FDE1CC"/>
    <path d="M20.3468 43.3859H43.6528C45.878 43.3859 47.2725 41.7837 47.2725 39.7662C47.2725 39.1579 47.1243 38.5497 46.7979 37.986L35.1226 17.0981C34.455 15.8965 33.2385 15.2734 32.0072 15.2734C30.7908 15.2734 29.5446 15.8965 28.877 17.0981L17.2166 38.0008C16.8902 38.5645 16.7271 39.1579 16.7271 39.7662C16.7271 41.7837 18.1364 43.3859 20.3468 43.3859ZM32.0072 33.2239C31.2209 33.2239 30.7908 32.7788 30.7611 31.9777L30.5534 24.6492C30.5237 23.8481 31.1468 23.2547 31.9924 23.2547C32.8231 23.2547 33.4759 23.863 33.4462 24.664L33.2237 31.9777C33.1941 32.7936 32.7638 33.2239 32.0072 33.2239ZM32.0072 38.698C31.1468 38.698 30.3457 38.0156 30.3457 37.0958C30.3457 36.1761 31.1319 35.4937 32.0072 35.4937C32.8825 35.4937 33.6688 36.1613 33.6688 37.0958C33.6688 38.0305 32.8676 38.698 32.0072 38.698Z" fill="#F76800"/>
</svg>