<svg width="28" height="28" viewBox="0 0 28 28" fill="none" xmlns="http://www.w3.org/2000/svg">
<g id="Utility Icons / W / warning">
<path id="Icon" fill-rule="evenodd" clip-rule="evenodd" d="M27.6528 22.887L15.322 2.96394C14.6758 1.88702 13.2758 1.88702 12.6297 2.96394L0.298925 22.887C-0.454921 24.1255 0.298925 25.8486 1.64508 25.8486H26.3066C27.6528 25.8486 28.4605 24.1255 27.6528 22.887ZM13.9758 21.5409C13.0605 21.5409 12.3605 20.8409 12.3605 19.9255C12.3605 19.0101 13.0605 18.3101 13.9758 18.3101C14.8912 18.3101 15.5912 19.0101 15.5912 19.9255C15.5912 20.8409 14.8912 21.5409 13.9758 21.5409ZM15.5912 16.6947C15.5912 17.0178 15.3758 17.2332 15.0528 17.2332H12.8989C12.5758 17.2332 12.3605 17.0178 12.3605 16.6947V9.69471C12.3605 9.37163 12.5758 9.15625 12.8989 9.15625H15.0528C15.3758 9.15625 15.5912 9.37163 15.5912 9.69471V16.6947Z" fill="#FFB75D"/>
</g>
</svg>
