<svg width="320" height="320" viewBox="0 0 320 320" fill="none" xmlns="http://www.w3.org/2000/svg">
<path d="M166.363 280.496C190.097 280.496 213.298 273.458 233.032 260.272C252.766 247.087 268.146 228.345 277.229 206.418C286.311 184.491 288.688 160.363 284.057 137.085C279.427 113.808 267.998 92.4256 251.216 75.6433C234.434 58.861 213.052 47.4321 189.774 42.8019C166.496 38.1717 142.368 40.5481 120.441 49.6306C98.5141 58.7131 79.7727 74.0938 66.5869 93.8277C53.4012 113.562 46.3633 136.762 46.3633 160.496C46.3633 192.322 59.0061 222.845 81.5105 245.349C104.015 267.853 134.537 280.496 166.363 280.496Z" fill="#F4F6F9"/>
<path d="M165.434 280C141.787 280 118.67 272.962 99.0075 259.776C79.3451 246.591 64.0201 227.849 54.9705 205.922C45.9209 183.995 43.5532 159.867 48.1666 136.589C52.7801 113.311 64.1675 91.9296 80.889 75.1473C97.6105 58.365 118.915 46.936 142.108 42.3058C165.302 37.6756 189.342 40.052 211.19 49.1345C233.038 58.217 251.711 73.5977 264.849 93.3316C277.987 113.066 285 136.266 285 160C284.963 191.815 272.354 222.316 249.939 244.812C227.524 267.309 197.134 279.963 165.434 280ZM165.434 40.9918C141.982 40.9918 119.056 47.9715 99.5565 61.0483C80.0566 74.1251 64.8583 92.7117 55.8835 114.458C46.9086 136.203 44.5604 160.132 49.1358 183.217C53.7111 206.303 65.0045 227.508 81.5878 244.152C98.1711 260.795 119.299 272.13 142.301 276.722C165.303 281.314 189.145 278.957 210.812 269.949C232.479 260.942 250.998 245.688 264.028 226.118C277.057 206.547 284.011 183.538 284.011 160C283.977 128.448 271.474 98.1972 249.243 75.8862C227.013 53.5752 196.873 41.0259 165.434 40.9918Z" fill="#CFD4DE"/>
<path d="M99.6734 156.529H42.3612C41.5591 156.503 40.7992 156.163 40.2449 155.58C39.6905 154.998 39.386 154.221 39.3968 153.415V118.972C39.386 118.168 39.6909 117.392 40.2455 116.811C40.8001 116.23 41.56 115.892 42.3612 115.868H99.6734C100.475 115.892 101.234 116.23 101.789 116.811C102.344 117.392 102.649 118.168 102.638 118.972V153.415C102.649 154.221 102.344 154.998 101.79 155.58C101.235 156.163 100.475 156.503 99.6734 156.529Z" fill="#CFD4DE"/>
<g opacity="0.7">
<path opacity="0.7" d="M96.9269 159.505H38.5376C37.7277 159.497 36.9537 159.169 36.3837 158.591C35.8138 158.014 35.4941 157.234 35.4941 156.421V122.414C35.4941 121.602 35.8141 120.823 36.3843 120.247C36.9545 119.671 37.7286 119.345 38.5376 119.34H96.9269C97.7359 119.345 98.51 119.671 99.0802 120.247C99.6504 120.823 99.9704 121.602 99.9704 122.414V156.421C99.9705 157.234 99.6508 158.014 99.0808 158.591C98.5109 159.169 97.7368 159.497 96.9269 159.505Z" fill="#F4F6F9"/>
<path opacity="0.7" d="M96.9269 160.001H38.5376C37.5958 159.996 36.6946 159.616 36.0315 158.945C35.3683 158.273 34.9974 157.366 35 156.421V122.414C34.9987 121.946 35.0892 121.483 35.2663 121.051C35.4434 120.618 35.7036 120.225 36.0321 119.894C36.3606 119.562 36.7509 119.299 37.1808 119.119C37.6107 118.938 38.0717 118.845 38.5376 118.844H96.9269C97.3927 118.845 97.8538 118.938 98.2837 119.119C98.7136 119.299 99.104 119.562 99.4325 119.894C99.7609 120.225 100.021 120.618 100.198 121.051C100.375 121.483 100.466 121.946 100.464 122.414V156.421C100.467 157.366 100.096 158.273 99.4331 158.945C98.7699 159.616 97.8686 159.996 96.9269 160.001ZM38.5376 119.835C38.2015 119.837 37.8689 119.905 37.5589 120.035C37.2489 120.165 36.9675 120.355 36.7308 120.595C36.494 120.834 36.3066 121.118 36.1792 121.43C36.0518 121.742 35.9869 122.077 35.9882 122.414V156.421C35.9855 157.103 36.2523 157.758 36.7302 158.243C37.208 158.728 37.8579 159.004 38.5376 159.009H96.9269C97.6066 159.004 98.2565 158.728 98.7343 158.243C99.2121 157.758 99.4789 157.103 99.4763 156.421V122.414C99.4776 122.077 99.4127 121.742 99.2853 121.43C99.1579 121.118 98.9704 120.834 98.7337 120.595C98.497 120.355 98.2156 120.165 97.9056 120.035C97.5955 119.905 97.263 119.837 96.9269 119.835H38.5376Z" fill="#CFD4DE"/>
</g>
<path d="M47.8162 136.953C47.9286 137.292 48.0639 137.624 48.2213 137.945C48.3229 138.156 48.3556 138.395 48.3148 138.626C48.274 138.857 48.1618 139.07 47.994 139.234L47.085 140.087C46.8822 140.293 46.7685 140.571 46.7685 140.86C46.7685 141.15 46.8822 141.428 47.085 141.634L48.3992 143.042C48.496 143.147 48.6127 143.232 48.7424 143.291C48.8721 143.351 49.0122 143.383 49.1547 143.388C49.2972 143.393 49.4391 143.369 49.5723 143.318C49.7056 143.267 49.8274 143.19 49.9308 143.092L51.1462 141.941C51.298 141.798 51.487 141.7 51.6915 141.66C51.896 141.62 52.1078 141.638 52.3023 141.713L52.5889 141.832C52.7926 141.907 52.9692 142.042 53.096 142.219C53.2228 142.396 53.294 142.606 53.3004 142.824L53.3992 144.609C53.4244 144.893 53.5595 145.156 53.7756 145.342C53.9917 145.527 54.2717 145.62 54.5553 145.601L56.4624 145.492C56.7465 145.464 57.0085 145.326 57.193 145.108C57.3775 144.889 57.4699 144.607 57.4506 144.322L57.3616 142.794C57.3466 142.566 57.4035 142.339 57.524 142.145C57.6446 141.951 57.8228 141.8 58.0335 141.713C58.2383 141.633 58.4623 141.615 58.677 141.663C58.8917 141.71 59.0874 141.821 59.2391 141.981L60.2273 143.032C60.4246 143.244 60.6972 143.369 60.9858 143.38C61.2744 143.391 61.5558 143.288 61.7688 143.092L63.162 141.773C63.2672 141.674 63.3519 141.555 63.4113 141.423C63.4708 141.291 63.5037 141.149 63.5083 141.005C63.5129 140.86 63.4891 140.716 63.4381 140.58C63.3872 140.445 63.3101 140.321 63.2114 140.216L62.2233 139.165C62.0729 139.004 61.9745 138.802 61.941 138.584C61.9075 138.366 61.9404 138.143 62.0355 137.945C62.1239 137.736 62.2756 137.56 62.4689 137.443C62.6621 137.326 62.8874 137.272 63.1126 137.29L64.6245 137.479C64.7697 137.496 64.9169 137.485 65.0575 137.444C65.198 137.403 65.3289 137.335 65.4424 137.242C65.5559 137.15 65.6496 137.035 65.7179 136.905C65.7862 136.775 65.8277 136.633 65.8399 136.487L66.077 134.583C66.1136 134.295 66.0355 134.004 65.8597 133.774C65.6839 133.544 65.4246 133.392 65.1383 133.353L63.3794 133.135C63.1676 133.109 62.9681 133.021 62.8063 132.882C62.6444 132.742 62.5275 132.558 62.4703 132.351C62.4703 132.252 62.411 132.153 62.3715 132.054C62.3105 131.855 62.3059 131.643 62.3582 131.441C62.4106 131.24 62.5179 131.057 62.6679 130.913L63.8834 129.773C64.0868 129.565 64.2007 129.285 64.2007 128.994C64.2007 128.703 64.0868 128.423 63.8834 128.216L62.579 126.817C62.4813 126.712 62.3638 126.627 62.2333 126.568C62.1028 126.508 61.9618 126.475 61.8186 126.471C61.6753 126.466 61.5325 126.49 61.3984 126.541C61.2644 126.592 61.1418 126.669 61.0375 126.768L60.1284 127.621C59.9565 127.781 59.7375 127.881 59.5042 127.906C59.2709 127.931 59.0357 127.88 58.8339 127.76C58.5169 127.579 58.1866 127.423 57.8458 127.293C57.6458 127.215 57.4734 127.079 57.3503 126.903C57.2272 126.726 57.1589 126.517 57.1541 126.302L57.0553 124.715C57.0301 124.431 56.895 124.168 56.6788 123.982C56.4627 123.797 56.1828 123.704 55.8992 123.723L53.9921 123.842C53.7079 123.865 53.4443 124 53.2591 124.217C53.0738 124.435 52.9821 124.717 53.0039 125.003L53.0731 126.123C53.0858 126.357 53.0236 126.589 52.8956 126.786C52.7676 126.982 52.5805 127.132 52.3616 127.214L52.1047 127.313C51.9017 127.394 51.679 127.412 51.4657 127.365C51.2524 127.317 51.0585 127.206 50.9091 127.046L50.2668 126.381C50.169 126.276 50.0516 126.191 49.9211 126.131C49.7905 126.072 49.6496 126.039 49.5063 126.034C49.363 126.03 49.2203 126.054 49.0862 126.105C48.9522 126.156 48.8295 126.233 48.7253 126.331L47.332 127.65C47.1219 127.852 46.999 128.128 46.9897 128.419C46.9805 128.71 47.0856 128.993 47.2826 129.207L47.9743 129.941C48.1243 130.104 48.2223 130.308 48.2558 130.527C48.2893 130.747 48.2566 130.971 48.162 131.171L48.0434 131.419C47.9493 131.633 47.7887 131.81 47.5856 131.925C47.3825 132.039 47.1478 132.084 46.9169 132.054L45.8102 131.915C45.6655 131.9 45.5193 131.914 45.3799 131.955C45.2404 131.997 45.1105 132.066 44.9977 132.158C44.8848 132.25 44.7911 132.364 44.722 132.492C44.6529 132.62 44.6096 132.761 44.5948 132.907L44.3577 134.821C44.3399 134.966 44.3515 135.114 44.392 135.255C44.4325 135.396 44.5009 135.528 44.5931 135.642C44.6854 135.755 44.7996 135.85 44.929 135.918C45.0583 135.987 45.2001 136.028 45.3458 136.041L46.9071 136.239C47.1101 136.26 47.3031 136.339 47.4639 136.465C47.6246 136.591 47.7468 136.76 47.8162 136.953ZM52.3122 131.994C53.9328 130.457 56.8478 130.011 58.3597 131.598C59.8715 133.184 60.1779 136.12 58.5672 137.637C56.9565 139.155 53.5079 139.244 51.996 137.637C51.6424 137.247 51.3698 136.791 51.194 136.294C51.0182 135.797 50.9428 135.271 50.9723 134.744C51.0017 134.218 51.1354 133.703 51.3655 133.229C51.5955 132.755 51.9174 132.332 52.3122 131.984V131.994Z" fill="#0F265C"/>
<path d="M87.5498 157.025C87.2496 157.025 86.9603 156.912 86.7395 156.707C86.6179 156.6 86.5187 156.469 86.4475 156.322C86.3763 156.176 86.3345 156.017 86.3245 155.855L86.2454 154.635C86.2473 154.586 86.2327 154.538 86.2041 154.498C86.1754 154.459 86.1343 154.43 86.0874 154.416L85.8798 154.337C85.8371 154.318 85.7896 154.312 85.7436 154.321C85.6976 154.33 85.6555 154.353 85.623 154.387L84.7929 155.17C84.5514 155.394 84.2324 155.515 83.9035 155.507C83.7394 155.504 83.5778 155.467 83.4283 155.398C83.2789 155.33 83.1447 155.232 83.034 155.111L82.1447 154.119C82.0331 154 81.9467 153.86 81.8906 153.706C81.8346 153.553 81.8101 153.39 81.8186 153.226C81.8269 152.896 81.9655 152.582 82.204 152.354L82.8166 151.778C82.8521 151.737 82.8716 151.684 82.8716 151.63C82.8716 151.575 82.8521 151.522 82.8166 151.481C82.7034 151.236 82.6044 150.984 82.5202 150.727C82.5077 150.681 82.481 150.639 82.4437 150.609C82.4064 150.579 82.3605 150.561 82.3126 150.559L81.2356 150.42C81.0747 150.399 80.9194 150.347 80.7787 150.266C80.638 150.184 80.5145 150.076 80.4154 149.947C80.3163 149.819 80.2435 149.671 80.2011 149.514C80.1587 149.357 80.1476 149.193 80.1684 149.031L80.3364 147.732C80.3752 147.404 80.5423 147.104 80.8008 146.899C81.0633 146.7 81.393 146.611 81.7198 146.651L82.4708 146.75C82.5237 146.755 82.5768 146.744 82.6228 146.717C82.6688 146.69 82.7054 146.65 82.7276 146.602L82.7771 146.483C82.8148 146.433 82.8351 146.372 82.8351 146.309C82.8351 146.246 82.8148 146.185 82.7771 146.136L82.3028 145.63C82.1903 145.511 82.1025 145.372 82.0446 145.219C81.9866 145.066 81.9596 144.903 81.9651 144.74C81.9706 144.576 82.0085 144.415 82.0767 144.267C82.1449 144.118 82.2419 143.985 82.362 143.874L83.3502 142.982C83.4669 142.867 83.6063 142.777 83.7594 142.719C83.9125 142.661 84.0761 142.636 84.2395 142.645C84.5655 142.656 84.8742 142.794 85.0992 143.031L85.5735 143.537C85.6061 143.574 85.6488 143.6 85.6964 143.613C85.7439 143.625 85.794 143.623 85.8403 143.607L85.9688 143.547C86.1269 143.488 86.196 143.388 86.1861 143.279V142.516C86.1754 142.353 86.1969 142.189 86.2492 142.035C86.3016 141.88 86.3838 141.738 86.4913 141.615C86.5987 141.493 86.7292 141.393 86.8752 141.321C87.0212 141.249 87.18 141.207 87.3423 141.197L88.6467 141.117C88.9728 141.098 89.2931 141.21 89.5375 141.427C89.782 141.645 89.9306 141.95 89.951 142.278L90.0201 143.359C90.0227 143.406 90.039 143.452 90.0671 143.491C90.0951 143.53 90.1338 143.56 90.1783 143.577C90.4272 143.678 90.6683 143.797 90.8996 143.934C90.9435 143.963 90.9951 143.979 91.0478 143.979C91.1006 143.979 91.1522 143.963 91.196 143.934L91.8186 143.349C91.9326 143.233 92.0702 143.143 92.2219 143.084C92.3736 143.026 92.5359 143.001 92.698 143.012C92.8622 143.015 93.0238 143.052 93.1733 143.121C93.3227 143.189 93.4569 143.287 93.5676 143.408L94.4569 144.4C94.5693 144.518 94.6572 144.658 94.7151 144.811C94.7731 144.964 94.8002 145.127 94.7946 145.29C94.7891 145.454 94.7512 145.614 94.683 145.763C94.6148 145.911 94.5178 146.045 94.3976 146.155L93.5676 146.939C93.5337 146.971 93.5093 147.013 93.4972 147.058C93.485 147.104 93.4854 147.151 93.4984 147.197C93.5259 147.268 93.549 147.341 93.5676 147.415C93.5808 147.462 93.6076 147.504 93.6445 147.536C93.6814 147.567 93.7269 147.587 93.7751 147.593L94.9806 147.752C95.1421 147.772 95.2979 147.825 95.4388 147.907C95.5797 147.988 95.7028 148.098 95.8008 148.228C95.999 148.488 96.0877 148.816 96.0478 149.14L95.8798 150.44C95.8615 150.602 95.8113 150.758 95.7321 150.901C95.6529 151.043 95.5463 151.168 95.4185 151.269C95.2907 151.369 95.1442 151.443 94.9876 151.487C94.831 151.53 94.6674 151.541 94.5063 151.521L93.4688 151.392C93.423 151.386 93.3766 151.393 93.3347 151.412C93.2928 151.432 93.2571 151.462 93.2316 151.501C93.2133 151.547 93.2082 151.598 93.2169 151.647C93.2257 151.696 93.2479 151.741 93.2811 151.778L93.9431 152.502C94.0557 152.619 94.1435 152.757 94.2013 152.909C94.259 153.061 94.2855 153.223 94.279 153.385C94.2753 153.55 94.2383 153.712 94.1704 153.862C94.1025 154.012 94.005 154.147 93.8838 154.258L92.8957 155.15C92.7794 155.263 92.6415 155.352 92.4904 155.41C92.3392 155.467 92.1779 155.494 92.0162 155.488C91.8521 155.484 91.6904 155.447 91.541 155.379C91.3915 155.31 91.2574 155.213 91.1466 155.091L90.4846 154.377C90.451 154.338 90.4059 154.312 90.3561 154.301C90.3062 154.29 90.2543 154.296 90.2079 154.317C90.1649 154.339 90.1296 154.374 90.1067 154.416C90.0837 154.459 90.0742 154.507 90.0794 154.555L90.1387 155.597C90.1589 155.929 90.049 156.257 89.8324 156.509C89.6107 156.753 89.3016 156.9 88.9727 156.916L87.6783 156.995L87.5498 157.025ZM85.8403 153.326C85.9963 153.325 86.1508 153.355 86.2949 153.415L86.4925 153.484C86.7144 153.571 86.9069 153.72 87.047 153.913C87.1872 154.107 87.2691 154.336 87.283 154.575L87.3522 155.795C87.3593 155.861 87.3911 155.921 87.4411 155.964C87.4903 156.006 87.5542 156.028 87.619 156.023L88.9233 155.944C88.9553 155.943 88.9868 155.936 89.0158 155.922C89.0447 155.908 89.0704 155.889 89.0913 155.864C89.1337 155.815 89.155 155.751 89.1506 155.686L89.0913 154.635C89.076 154.375 89.1421 154.116 89.2803 153.896C89.4185 153.675 89.6219 153.504 89.8621 153.405H89.9707C90.1914 153.332 90.4286 153.325 90.6532 153.384C90.8779 153.444 91.0802 153.569 91.2356 153.742L91.8976 154.456C91.9211 154.483 91.9501 154.503 91.9826 154.517C92.015 154.531 92.0502 154.537 92.0854 154.536C92.1166 154.536 92.1475 154.529 92.1763 154.518C92.2051 154.506 92.2313 154.488 92.2534 154.466L93.2415 153.574C93.266 153.551 93.2857 153.523 93.2993 153.492C93.3129 153.462 93.3201 153.429 93.3206 153.395C93.3212 153.329 93.2964 153.265 93.2514 153.217L92.5893 152.493C92.4334 152.326 92.326 152.119 92.2789 151.895C92.2319 151.671 92.247 151.439 92.3225 151.223L92.3818 151.094C92.4925 150.859 92.6745 150.665 92.9018 150.541C93.129 150.416 93.3898 150.367 93.6467 150.4L94.6348 150.539C94.698 150.543 94.7608 150.526 94.8127 150.489C94.8406 150.47 94.8639 150.445 94.881 150.416C94.8981 150.387 94.9085 150.354 94.9115 150.321L95.0794 149.021C95.1022 148.961 95.1022 148.894 95.0794 148.833C95.0605 148.805 95.0356 148.782 95.0066 148.764C94.9775 148.747 94.945 148.737 94.9115 148.734L93.706 148.585C93.474 148.545 93.2581 148.44 93.0832 148.282C92.9084 148.124 92.7817 147.92 92.7178 147.693C92.7178 147.693 92.7178 147.583 92.6684 147.524C92.5909 147.297 92.5805 147.053 92.6384 146.821C92.6962 146.589 92.8199 146.378 92.9945 146.215L93.8245 145.431C93.8482 145.409 93.867 145.382 93.8798 145.352C93.8927 145.323 93.8994 145.29 93.8994 145.258C93.8994 145.225 93.8927 145.193 93.8798 145.163C93.867 145.133 93.8482 145.107 93.8245 145.084L92.9352 144.093C92.9124 144.068 92.8849 144.048 92.8544 144.035C92.8238 144.021 92.7908 144.014 92.7573 144.013C92.7244 144.011 92.6915 144.016 92.6608 144.028C92.63 144.04 92.6023 144.059 92.5795 144.083L91.9668 144.658C91.7726 144.842 91.5241 144.958 91.2586 144.988C90.9932 145.019 90.7251 144.962 90.4945 144.826C90.3049 144.715 90.1066 144.619 89.9016 144.539C89.6836 144.45 89.4949 144.302 89.3568 144.111C89.2188 143.92 89.1371 143.693 89.121 143.458L89.0617 142.377C89.0347 142.334 88.9965 142.299 88.9512 142.276C88.9059 142.254 88.8552 142.244 88.8047 142.248C88.7546 142.207 88.6914 142.186 88.6269 142.188L87.3225 142.268C87.2903 142.267 87.2584 142.274 87.2292 142.287C87.2001 142.301 87.1745 142.322 87.1546 142.347C87.1306 142.372 87.1128 142.401 87.1025 142.434C87.0922 142.467 87.0897 142.502 87.0953 142.536V143.299C87.1105 143.564 87.041 143.827 86.8971 144.05C86.7532 144.273 86.5423 144.444 86.2949 144.539L86.1269 144.598C85.9017 144.666 85.6618 144.668 85.4358 144.603C85.2098 144.538 85.0072 144.409 84.8522 144.231L84.3779 143.726C84.3292 143.68 84.2665 143.652 84.2 143.646C84.1689 143.646 84.138 143.652 84.1091 143.664C84.0803 143.676 84.0541 143.694 84.032 143.716L83.0439 144.618C82.9968 144.666 82.9688 144.73 82.9649 144.797C82.9652 144.863 82.9898 144.926 83.034 144.975L83.5083 145.481C83.6812 145.663 83.7939 145.894 83.831 146.142C83.8682 146.391 83.8279 146.645 83.7158 146.869L83.6467 147.028C83.5384 147.271 83.355 147.473 83.1237 147.603C82.8923 147.734 82.6252 147.786 82.362 147.752L81.611 147.653C81.5536 147.632 81.4906 147.632 81.4332 147.653C81.4062 147.673 81.3835 147.698 81.3665 147.727C81.3496 147.756 81.3386 147.788 81.3344 147.821L81.196 149.19C81.1919 149.223 81.1943 149.256 81.203 149.287C81.2117 149.319 81.2267 149.349 81.2469 149.375C81.2671 149.4 81.2922 149.422 81.3208 149.438C81.3494 149.454 81.3809 149.464 81.4135 149.468L82.4806 149.607C82.7082 149.638 82.9222 149.734 83.0973 149.883C83.2724 150.033 83.4012 150.229 83.4688 150.45C83.5379 150.658 83.6269 150.866 83.7158 151.074C83.8349 151.313 83.8743 151.583 83.828 151.846C83.7817 152.109 83.6523 152.349 83.4589 152.532L82.8759 153.157C82.8344 153.208 82.8071 153.27 82.7968 153.336C82.7962 153.402 82.821 153.466 82.866 153.514L83.7652 154.506C83.7862 154.533 83.8133 154.554 83.8443 154.568C83.8753 154.582 83.9093 154.587 83.9431 154.585C83.9743 154.585 84.0052 154.579 84.034 154.567C84.0628 154.555 84.089 154.538 84.1111 154.516L84.9411 153.732C85.0562 153.607 85.1952 153.507 85.3496 153.437C85.5041 153.367 85.6709 153.329 85.8403 153.326ZM88.1328 152.334H87.9846C87.0822 152.335 86.2159 151.978 85.5735 151.342C85.29 151.03 85.0713 150.664 84.93 150.266C84.7888 149.868 84.7279 149.446 84.7509 149.024C84.7738 148.602 84.8803 148.189 85.0639 147.809C85.2476 147.429 85.5048 147.089 85.8205 146.81C86.5925 146.083 87.6176 145.687 88.6763 145.709C89.0459 145.71 89.4115 145.787 89.7511 145.933C90.0907 146.08 90.3973 146.294 90.6526 146.562C91.2774 147.201 91.6372 148.054 91.6592 148.948C91.6812 149.843 91.3638 150.713 90.7711 151.382C90.0343 152.045 89.0727 152.4 88.0834 152.374L88.1328 152.334ZM88.5676 146.721C87.7974 146.733 87.0586 147.029 86.4925 147.554C86.2726 147.744 86.0928 147.977 85.9636 148.238C85.8344 148.499 85.7584 148.783 85.74 149.074C85.7216 149.365 85.7611 149.657 85.8564 149.932C85.9517 150.207 86.1008 150.461 86.2949 150.678C86.7595 151.116 87.3766 151.355 88.0142 151.342C88.7616 151.39 89.4994 151.153 90.0794 150.678C90.475 150.187 90.6774 149.567 90.6482 148.937C90.6191 148.306 90.3605 147.708 89.9214 147.256C89.582 146.918 89.1248 146.726 88.6467 146.721H88.5676Z" fill="#0F265C"/>
<path d="M47.3522 155.042C48.5801 155.042 49.5755 154.043 49.5755 152.811C49.5755 151.578 48.5801 150.579 47.3522 150.579C46.1243 150.579 45.1289 151.578 45.1289 152.811C45.1289 154.043 46.1243 155.042 47.3522 155.042Z" fill="#CFD4DE"/>
<path d="M54.7624 155.042C55.9903 155.042 56.9857 154.043 56.9857 152.811C56.9857 151.578 55.9903 150.579 54.7624 150.579C53.5345 150.579 52.5391 151.578 52.5391 152.811C52.5391 154.043 53.5345 155.042 54.7624 155.042Z" fill="#CFD4DE"/>
<path d="M62.1735 155.042C63.4014 155.042 64.3968 154.043 64.3968 152.811C64.3968 151.578 63.4014 150.579 62.1735 150.579C60.9456 150.579 59.9502 151.578 59.9502 152.811C59.9502 154.043 60.9456 155.042 62.1735 155.042Z" fill="#CFD4DE"/>
<path d="M73.0439 125.29H95.03C95.1611 125.29 95.2868 125.342 95.3794 125.435C95.4721 125.528 95.5241 125.654 95.5241 125.786C95.5241 125.917 95.4721 126.044 95.3794 126.137C95.2868 126.23 95.1611 126.282 95.03 126.282H73.0439C72.9128 126.282 72.7872 126.23 72.6946 126.137C72.6019 126.044 72.5498 125.917 72.5498 125.786C72.5498 125.654 72.6019 125.528 72.6946 125.435C72.7872 125.342 72.9128 125.29 73.0439 125.29Z" fill="#CFD4DE"/>
<path d="M73.0439 133.224H95.03C95.1611 133.224 95.2868 133.276 95.3794 133.369C95.4721 133.462 95.5241 133.588 95.5241 133.719C95.5241 133.851 95.4721 133.977 95.3794 134.07C95.2868 134.163 95.1611 134.215 95.03 134.215H73.0439C72.9128 134.215 72.7872 134.163 72.6946 134.07C72.6019 133.977 72.5498 133.851 72.5498 133.719C72.5498 133.588 72.6019 133.462 72.6946 133.369C72.7872 133.276 72.9128 133.224 73.0439 133.224Z" fill="#CFD4DE"/>
<path d="M73.0439 129.257H95.03C95.1611 129.257 95.2868 129.309 95.3794 129.402C95.4721 129.495 95.5241 129.621 95.5241 129.753C95.5241 129.884 95.4721 130.01 95.3794 130.103C95.2868 130.196 95.1611 130.249 95.03 130.249H73.0439C72.9128 130.249 72.7872 130.196 72.6946 130.103C72.6019 130.01 72.5498 129.884 72.5498 129.753C72.5498 129.621 72.6019 129.495 72.6946 129.402C72.7872 129.309 72.9128 129.257 73.0439 129.257Z" fill="#CFD4DE"/>
<path d="M253.874 89.9137C253.889 90.0588 253.889 90.2051 253.874 90.3501C253.879 90.393 253.879 90.4362 253.874 90.479C253.855 90.5972 253.825 90.7134 253.785 90.8261C253.785 90.9451 253.696 91.0641 253.657 91.1633C253.64 91.2176 253.613 91.2681 253.577 91.3121C253.515 91.4256 253.446 91.5349 253.37 91.6394C253.31 91.7263 253.244 91.8091 253.172 91.8873C253.11 91.9727 253.037 92.0494 252.955 92.1154C252.887 92.1866 252.815 92.2529 252.738 92.3137C252.593 92.4277 252.437 92.5274 252.273 92.6113C252.201 92.6525 252.125 92.6858 252.046 92.7104C251.773 92.8364 251.483 92.9233 251.186 92.9683C251.542 93.25 251.829 93.6085 252.028 94.0171C252.226 94.4257 252.33 94.874 252.332 95.3286C252.309 96.166 251.956 96.9599 251.35 97.5363C250.744 98.1126 249.936 98.4243 249.101 98.403C248.42 98.402 247.756 98.1946 247.194 97.808C248.08 98.2762 248.822 98.9759 249.344 99.833C249.866 100.69 250.147 101.673 250.158 102.677C250.135 103.862 249.741 105.009 249.031 105.956C248.322 106.903 247.333 107.602 246.206 107.953C246.725 108.461 247.138 109.067 247.421 109.736C247.704 110.405 247.852 111.124 247.856 111.851C247.843 113.045 247.454 114.205 246.744 115.164C246.034 116.122 245.04 116.83 243.904 117.186C243.909 117.286 243.909 117.385 243.904 117.484C243.411 117.534 242.939 117.706 242.531 117.986C242.122 118.266 241.79 118.644 241.564 119.085C241.338 119.527 241.226 120.018 241.237 120.515C241.249 121.011 241.384 121.497 241.631 121.927C241.621 122.342 241.529 122.752 241.361 123.132C241.193 123.512 240.952 123.855 240.652 124.141C240.352 124.427 239.999 124.652 239.612 124.801C239.226 124.95 238.814 125.022 238.4 125.011C238.032 125.016 237.667 124.952 237.323 124.823C237.015 125.192 236.629 125.487 236.193 125.688C235.757 125.889 235.282 125.99 234.803 125.983C234.374 125.981 233.948 125.9 233.548 125.745C233.365 126.432 232.958 127.038 232.392 127.465C231.826 127.893 231.134 128.119 230.425 128.105C230.065 128.108 229.708 128.047 229.368 127.927C228.788 128.433 228.051 128.72 227.283 128.74C226.515 128.76 225.764 128.511 225.159 128.036C224.76 128.274 224.315 128.426 223.854 128.48C223.393 128.534 222.926 128.49 222.483 128.35C222.04 128.211 221.631 127.979 221.283 127.67C220.936 127.362 220.657 126.983 220.465 126.558C219.677 126.511 218.935 126.17 218.386 125.6C217.837 125.031 217.521 124.276 217.5 123.484C217.498 123.27 217.522 123.057 217.57 122.849C217.255 122.622 216.986 122.335 216.779 122.006L216.977 115.064L218.834 110.929C218.834 110.929 222.016 107.586 221.67 99.3352C224.358 97.1336 226.888 92.6807 224.348 83.8245C220.633 70.8129 204.022 71.9237 201.186 72.5484C197.198 73.5063 193.308 74.8343 189.566 76.5154C189.448 76.1984 189.391 75.8619 189.398 75.5237C189.4 74.861 189.618 74.2173 190.017 73.6896C190.416 73.1618 190.976 72.7787 191.611 72.598C190.827 72.5464 190.093 72.1956 189.559 71.6178C189.025 71.0399 188.732 70.2787 188.739 69.4906C188.747 68.7024 189.055 67.9471 189.6 67.3797C190.145 66.8122 190.886 66.4758 191.67 66.4394C191.236 65.908 190.999 65.2422 190.998 64.5551C191.019 63.7642 191.336 63.0101 191.885 62.4425C192.434 61.8749 193.176 61.5351 193.963 61.4906C193.473 60.9455 193.196 60.2411 193.182 59.5071C193.191 59.0912 193.282 58.6812 193.45 58.3007C193.617 57.9202 193.858 57.5767 194.158 57.29C194.459 57.0034 194.812 56.7792 195.2 56.6303C195.587 56.4815 195.999 56.4109 196.413 56.4228C196.905 56.4184 197.391 56.5234 197.836 56.7303C197.846 56.6032 197.866 56.4772 197.896 56.3534C197.923 56.2361 197.956 56.1202 197.994 56.0063C198.048 55.8524 198.114 55.7031 198.192 55.56C198.272 55.4186 198.361 55.2827 198.459 55.1534C198.555 55.0174 198.668 54.8941 198.795 54.7865C198.909 54.6846 199.027 54.5886 199.151 54.4988L199.358 54.3699C199.695 54.1592 200.072 54.0207 200.465 53.9633H200.732H201.058C201.513 53.96 201.964 54.0512 202.382 54.2311C202.88 53.4151 203.571 52.7343 204.393 52.2484C205.214 51.7625 206.142 51.4864 207.095 51.4443C207.235 50.7085 207.628 50.0455 208.207 49.5721C208.785 49.0986 209.511 48.845 210.257 48.8559C210.815 48.859 211.363 48.9949 211.858 49.2526C212.552 48.5448 213.409 48.0203 214.354 47.7262C215.298 47.432 216.301 47.3773 217.272 47.5668C218.242 47.7564 219.151 48.1844 219.917 48.8126C220.683 49.4407 221.282 50.2495 221.661 51.1666C222.092 50.0616 222.847 49.1137 223.826 48.448C224.805 47.7823 225.962 47.4301 227.145 47.4377C228.616 47.408 230.042 47.9441 231.131 48.9362C232.221 49.9283 232.891 51.3011 233.004 52.7732C233.946 52.2223 235.017 51.9315 236.107 51.9303C237.627 51.8956 239.098 52.4671 240.198 53.5193C241.298 54.5715 241.938 56.0187 241.977 57.5435C241.981 57.8936 241.944 58.2431 241.868 58.5848C242.744 58.2127 243.696 58.0575 244.644 58.1321C245.592 58.2068 246.508 58.5093 247.315 59.0139C248.122 59.5186 248.796 60.2107 249.281 61.0318C249.765 61.853 250.046 62.779 250.099 63.7319C250.082 64.8421 249.738 65.9224 249.11 66.8366C248.483 67.7508 247.599 68.458 246.572 68.8691C247.601 69.278 248.486 69.9846 249.114 70.8993C249.742 71.814 250.085 72.8955 250.099 74.0063C250.099 74.941 249.85 75.8587 249.378 76.6641C250.035 76.8363 250.618 77.2209 251.036 77.7587C251.454 78.2964 251.684 78.9574 251.69 79.6394C251.689 80.1776 251.542 80.7055 251.265 81.1666C251.991 81.2788 252.654 81.645 253.137 82.2003C253.62 82.7557 253.891 83.4644 253.904 84.2013C253.901 84.8234 253.71 85.43 253.357 85.9414C253.005 86.4529 252.506 86.8454 251.927 87.0674C252.497 87.2941 252.986 87.6858 253.333 88.1928C253.68 88.6997 253.868 89.2989 253.874 89.9137Z" fill="#0F265C"/>
<path d="M187.668 170.492C187.381 171.484 187.026 172.535 186.621 173.666C185.939 175.52 185.099 177.573 184.14 179.775C182.589 183.335 180.711 187.273 178.656 191.368L178.538 191.597C177.549 193.58 176.453 195.712 175.366 197.805C175.039 198.4 174.733 199.025 174.377 199.62C173.317 201.643 172.25 203.653 171.176 205.649C170.879 206.185 170.593 206.72 170.306 207.256C169.318 208.992 168.429 210.697 167.5 212.373C163.547 219.524 159.911 226 157.411 230.482C155.435 234.033 152.727 235.858 149.931 236.354C147.703 236.729 145.414 236.345 143.429 235.263C141.43 234.192 139.769 232.581 138.636 230.611C137.088 227.959 136.574 224.825 137.194 221.815C137.434 220.623 137.816 219.464 138.33 218.363C139.931 214.912 141.986 209.785 144.397 203.874C144.783 202.932 145.168 201.97 145.563 200.978C149.377 191.656 153.923 180.836 158.794 171.643C160.573 168.271 162.401 165.127 164.249 162.34C165.337 160.684 166.515 159.088 167.777 157.56C167.777 157.56 167.777 157.501 167.836 157.481L168.261 156.985C169.309 155.743 170.463 154.595 171.709 153.554C172.771 152.669 173.944 151.929 175.198 151.352C176.482 150.742 177.9 150.469 179.318 150.559C179.684 150.582 180.048 150.635 180.405 150.717C180.785 150.817 181.158 150.943 181.522 151.094C181.865 151.235 182.195 151.404 182.51 151.6C182.858 151.821 183.189 152.07 183.498 152.344C185.414 154.116 186.785 156.4 187.451 158.929C187.451 158.998 187.5 159.068 187.52 159.137C187.54 159.206 187.52 159.266 187.579 159.335C187.678 159.732 187.787 160.139 187.866 160.545C188.622 163.826 188.554 167.244 187.668 170.492Z" fill="white"/>
<path d="M148.29 237.018C146.524 237.004 144.787 236.558 143.231 235.719H143.172C141.108 234.604 139.396 232.931 138.231 230.889C136.618 228.133 136.083 224.875 136.729 221.745C136.982 220.513 137.376 219.315 137.905 218.175C139.278 215.2 140.988 211.005 142.974 206.125L143.962 203.716C144.348 202.724 144.733 201.811 145.128 200.82C149.209 190.843 153.636 180.39 158.379 171.435C160.227 167.924 162.075 164.78 163.853 162.092C164.954 160.419 166.145 158.806 167.421 157.263L167.5 157.163L167.865 156.727C168.947 155.452 170.133 154.271 171.413 153.197C172.512 152.287 173.725 151.523 175.019 150.925C176.379 150.283 177.878 149.996 179.377 150.092C179.766 150.117 180.153 150.174 180.533 150.261C180.939 150.369 181.339 150.502 181.729 150.658C182.095 150.811 182.449 150.994 182.786 151.203C183.167 151.433 183.527 151.695 183.863 151.987C185.873 153.81 187.311 156.181 188.004 158.81L188.102 159.137C188.102 159.137 188.102 159.226 188.102 159.236L188.162 159.484C188.241 159.811 188.33 160.149 188.389 160.476C189.145 163.84 189.054 167.341 188.122 170.661C187.846 171.653 187.49 172.644 187.065 173.854C186.413 175.649 185.593 177.653 184.575 180.003C183.102 183.365 181.255 187.273 179.081 191.616L178.962 191.844C177.974 193.828 176.867 195.96 175.78 198.063C175.612 198.37 175.454 198.668 175.306 198.975L174.822 199.887C173.764 201.871 172.697 203.914 171.62 205.907L170.78 207.464V207.534L170.326 208.347C169.548 209.788 168.774 211.206 168.004 212.601V212.661C165.207 217.749 162.549 222.489 160.346 226.416L157.915 230.77C155.494 235.104 152.322 236.492 150.089 236.889C149.495 236.989 148.892 237.032 148.29 237.018ZM143.715 234.856C145.599 235.868 147.766 236.217 149.871 235.848C152.776 235.332 155.247 233.388 157.006 230.225L159.446 225.871C161.64 221.904 164.288 217.233 167.065 212.165V212.106C167.842 210.697 168.629 209.266 169.427 207.811L169.842 207.048V206.988C170.128 206.453 170.415 205.907 170.711 205.372C171.788 203.388 172.855 201.405 173.913 199.352L174.387 198.459C174.545 198.142 174.703 197.835 174.871 197.527C175.958 195.454 177.015 193.372 178.033 191.339L178.152 191.111C180.326 186.787 182.164 182.899 183.626 179.547C184.614 177.216 185.444 175.223 186.097 173.458C186.512 172.307 186.857 171.246 187.134 170.314C188.02 167.152 188.105 163.818 187.381 160.615C187.322 160.297 187.243 159.98 187.164 159.673L187.095 159.425C187.095 159.335 187.095 159.286 187.095 159.216C187.065 159.156 187.042 159.093 187.025 159.028C186.385 156.59 185.057 154.39 183.201 152.691C182.891 152.43 182.561 152.194 182.213 151.987C181.921 151.804 181.614 151.648 181.294 151.521C180.951 151.376 180.597 151.257 180.237 151.163C179.912 151.089 179.581 151.039 179.249 151.015C177.909 150.936 176.57 151.195 175.355 151.768C174.142 152.333 173.006 153.053 171.976 153.911C170.755 154.931 169.624 156.056 168.597 157.273L168.172 157.768C168.154 157.802 168.13 157.832 168.102 157.858C166.862 159.363 165.704 160.936 164.634 162.568C162.865 165.236 161.037 168.35 159.199 171.831C154.476 180.757 150.059 191.18 145.988 201.127C145.593 202.119 145.207 203.111 144.822 204.013L143.834 206.433C141.857 211.322 140.118 215.547 138.735 218.532C138.243 219.597 137.875 220.715 137.638 221.864C137.039 224.756 137.532 227.767 139.021 230.314C140.104 232.206 141.697 233.753 143.616 234.777L143.715 234.856Z" fill="#0F265C"/>
<path d="M247.45 173.051C247.334 176.954 246.696 180.823 245.553 184.555C245.553 184.555 245.553 184.555 245.553 184.615C245.237 185.686 244.871 186.737 244.476 187.788C244.081 188.78 243.646 189.831 243.181 190.843L243.132 190.962C242.399 192.531 241.584 194.06 240.691 195.544C236.669 202.379 230.909 208.02 224.002 211.888C220.104 214.013 215.85 215.402 211.452 215.983C210.632 216.092 209.802 216.182 208.952 216.212C207.964 216.281 206.976 216.291 205.919 216.271H205.494C195.721 215.924 188.004 212.631 182.381 207.345C179.483 204.613 177.106 201.373 175.365 197.785C173.456 193.849 172.191 189.63 171.62 185.289C171.23 182.471 171.074 179.625 171.156 176.78C171.156 175.55 171.245 174.321 171.353 173.121C171.547 170.532 171.92 167.961 172.47 165.425C173.548 159.992 175.895 154.894 179.318 150.549C179.674 150.093 180.069 149.646 180.464 149.21C180.859 148.774 181.106 148.526 181.452 148.218C181.798 147.911 181.986 147.702 182.253 147.464C182.302 147.405 182.361 147.375 182.401 147.326C185.571 144.544 189.268 142.432 193.27 141.117L193.517 141.038H193.656H193.705H193.764L194.189 140.899C194.664 140.747 195.148 140.608 195.642 140.483C196.097 140.354 196.551 140.235 197.025 140.126L197.193 134.175L197.401 126.549L197.796 111.891V110.145L198.014 102.519C198.044 101.461 198.293 100.421 198.745 99.4644C198.892 99.1511 199.057 98.8465 199.239 98.552C199.553 98.0381 199.92 97.5593 200.336 97.1239C201.469 95.9324 202.837 94.9901 204.353 94.3567C205.869 93.7234 207.499 93.4128 209.14 93.4446C214.654 93.5934 220.01 95.8942 219.842 101.111L219.595 110.225L219.387 117.633L218.765 140.79L218.903 140.85L219.002 140.899H219.12C219.763 141.137 220.395 141.405 221.027 141.663C221.66 141.921 222.065 142.079 222.569 142.297C223.419 142.645 224.259 143.021 225.098 143.408L225.909 143.795L226.106 143.894L227.164 144.42C227.198 144.426 227.229 144.443 227.253 144.469C234.229 147.99 240.266 152.453 243.873 158.661C244.708 160.106 245.397 161.631 245.929 163.213C247.022 166.374 247.538 169.707 247.45 173.051Z" fill="white"/>
<path d="M206.788 216.777H205.889H205.454C195.948 216.43 188.063 213.395 182.025 207.722C179.093 204.954 176.686 201.674 174.921 198.043C172.985 194.058 171.707 189.784 171.136 185.388C170.738 182.544 170.579 179.671 170.662 176.8C170.662 175.451 170.761 174.241 170.859 173.111C171.057 170.503 171.433 167.911 171.986 165.355C173.077 159.848 175.447 154.677 178.903 150.261C179.278 149.775 179.703 149.269 180.069 148.902C180.434 148.536 180.731 148.198 181.057 147.911C181.383 147.623 181.591 147.395 181.867 147.147L181.966 147.058C185.21 144.205 188.994 142.039 193.093 140.691L193.359 140.602H193.478L193.616 140.552C193.748 140.518 193.876 140.475 194.002 140.423C194.506 140.274 194.99 140.126 195.494 139.997H195.543L196.531 139.739L197.519 102.44C197.553 101.313 197.819 100.205 198.3 99.1868C198.454 98.8456 198.629 98.5144 198.824 98.195C199.153 97.6513 199.54 97.1457 199.98 96.6876C201.159 95.4414 202.585 94.4562 204.166 93.7953C205.747 93.1344 207.448 92.8123 209.16 92.8496C214.417 92.9884 220.504 95.2099 220.346 101.021L219.357 140.264H219.436C219.881 140.423 220.375 140.631 220.869 140.83L221.304 141.008C221.818 141.207 222.292 141.425 222.855 141.653H222.934C223.765 141.99 224.585 142.357 225.405 142.734L226.156 143.091L226.344 143.19L227.45 143.736L227.618 143.825C235.662 147.891 241.146 152.592 244.417 158.185C245.267 159.654 245.966 161.205 246.502 162.817C247.589 166.063 248.078 169.48 247.944 172.902C247.829 176.849 247.185 180.762 246.027 184.536C246.031 184.568 246.031 184.602 246.027 184.635C245.761 185.626 245.405 186.618 244.97 187.759C244.971 187.775 244.971 187.792 244.97 187.808C244.595 188.8 244.17 189.792 243.656 190.893C243.656 190.962 243.656 191.002 243.656 191.031C242.914 192.609 242.093 194.149 241.195 195.643C237.119 202.639 231.242 208.404 224.18 212.334C220.226 214.486 215.912 215.891 211.452 216.479C210.77 216.569 209.861 216.678 208.913 216.717C208.29 216.757 207.589 216.777 206.788 216.777ZM193.942 141.405L193.527 141.524C189.586 142.822 185.944 144.899 182.816 147.633C182.816 147.633 182.757 147.693 182.717 147.722C182.401 148.01 182.134 148.268 181.877 148.526C181.62 148.783 181.225 149.16 180.889 149.517C180.553 149.874 180.118 150.38 179.763 150.826C176.39 155.119 174.077 160.152 173.014 165.514C172.468 168.027 172.098 170.576 171.907 173.141C171.808 174.261 171.739 175.441 171.709 176.78C171.629 179.598 171.784 182.418 172.174 185.21C172.733 189.496 173.981 193.662 175.869 197.547C177.588 201.076 179.932 204.262 182.786 206.949C188.646 212.443 196.314 215.398 205.583 215.736H205.988C207.154 215.736 208.102 215.736 208.952 215.676C209.802 215.617 210.761 215.537 211.423 215.448C215.761 214.872 219.957 213.504 223.804 211.412C230.64 207.593 236.337 202.013 240.306 195.246C241.19 193.775 241.998 192.259 242.727 190.704C242.741 190.659 242.761 190.615 242.786 190.575C243.261 189.524 243.676 188.592 244.041 187.6C244.476 186.459 244.822 185.428 245.108 184.456C245.107 184.436 245.107 184.416 245.108 184.397C246.237 180.706 246.869 176.88 246.986 173.022C247.109 169.718 246.641 166.42 245.602 163.283C245.092 161.733 244.43 160.239 243.626 158.82C240.464 153.395 235.099 148.813 227.223 144.836H227.164C226.828 144.658 226.472 144.489 226.176 144.321L226.047 144.261L225.909 144.182L225.168 143.835C224.338 143.448 223.498 143.081 222.658 142.734C222.618 142.717 222.581 142.693 222.549 142.664L221.116 142.079L220.672 141.901L219.041 141.256L218.863 141.187L218.755 141.137C218.703 141.12 218.653 141.097 218.606 141.068C218.531 141.021 218.469 140.955 218.425 140.877C218.382 140.799 218.359 140.711 218.359 140.621L219.436 100.952C219.575 95.8843 214.012 93.9306 209.219 93.8016C207.647 93.765 206.085 94.0593 204.633 94.6657C203.181 95.2721 201.872 96.1771 200.79 97.3223C200.389 97.7326 200.038 98.1886 199.743 98.681C199.566 98.9578 199.407 99.246 199.268 99.5438C198.849 100.439 198.617 101.411 198.587 102.4L197.598 140.086C197.595 140.195 197.555 140.301 197.485 140.385C197.415 140.469 197.32 140.528 197.213 140.552C196.749 140.661 196.304 140.78 195.859 140.909H195.8C195.326 141.028 194.812 141.167 194.407 141.306C194.278 141.356 194.146 141.399 194.012 141.435L193.942 141.405Z" fill="#0F265C"/>
<path d="M216.185 112.565C212.233 105.762 205.523 102.648 198.201 101.983L197.549 133.223C208.181 132.023 221.264 121.858 216.185 112.565Z" fill="#0F265C"/>
<path d="M171.314 206.761C171.136 208.744 169.575 226.229 167.915 242.067H242.134C242.52 231.078 243.231 216.638 244.259 199.095C244.417 196.447 244.575 193.848 244.723 191.319L244.96 187.442C245.593 177.128 246.176 168.351 246.522 163.174L246.699 160.586C246.818 159.019 246.877 158.156 246.877 158.156C246.886 158.067 246.869 157.977 246.828 157.898C243.429 151.194 228.587 143.944 227.964 143.647C227.892 143.605 227.81 143.583 227.727 143.583C227.644 143.583 227.562 143.605 227.49 143.647L227.006 143.944L226.887 144.014L226.097 144.47L225.998 144.519L225.78 144.638C225.395 144.847 224.941 145.085 224.417 145.333L224.061 145.511L223.775 145.65L223.429 145.828L223.31 145.878C222.549 146.235 221.838 146.592 221.126 146.949C216.65 149.181 212.786 151.114 201.502 150.817H199.377C195.761 150.708 193.28 149.419 192.381 147.167C192.048 146.322 191.955 145.4 192.114 144.505C192.273 143.61 192.677 142.777 193.28 142.1L193.893 141.485L193.972 141.415L194.13 141.247C194.188 141.173 194.223 141.085 194.234 140.992C194.244 140.899 194.229 140.806 194.19 140.721C194.149 140.638 194.086 140.567 194.007 140.518C193.928 140.469 193.837 140.443 193.745 140.443H193.547L193.389 140.503C189.575 141.698 185.905 143.318 182.45 145.333C182.336 145.382 182.227 145.441 182.124 145.511L181.433 145.928C181.087 146.136 180.731 146.354 180.444 146.582C178.462 147.849 176.603 149.3 174.891 150.916C173.374 152.362 172.024 153.975 170.869 155.726C170.82 155.803 170.792 155.892 170.79 155.984L170.237 176.384C169.026 178.889 168.011 181.485 167.203 184.149C166.937 185.022 166.709 185.905 166.522 186.757C166.164 188.277 165.955 189.828 165.899 191.389C165.751 196.893 169.288 203.29 170.84 205.838C171.008 206.295 171.205 206.592 171.314 206.761Z" fill="#CFD4DE"/>
<path d="M170.336 207.256C170.118 208.784 167.658 227.379 166.245 242.771H184.031C184.031 234.212 183.379 221.944 182.796 213.534C182.638 211.095 182.48 208.992 182.352 207.356V207.217C182.352 206.89 182.352 206.572 182.282 206.295C179.891 204.073 178.676 197.776 178.537 191.607C178.537 189.99 178.537 188.374 178.656 186.856C178.903 183.604 180.751 180.599 182.796 178.05C184.13 176.384 185.543 174.896 186.62 173.676C187.399 172.925 188.009 172.015 188.409 171.009C188.849 167.491 189.086 163.952 189.12 160.407V159.356C190.306 158.175 190.187 153.018 189.693 152.463C187.371 151.68 185.286 152.671 184.496 151.66C184.265 151.337 184.147 150.946 184.16 150.549C184.269 150.321 184.387 150.103 184.516 149.885C186.159 147.277 188.266 144.994 190.731 143.151L190.81 143.091C191.66 142.437 192.401 141.901 192.915 141.534L193.547 141.187C193.765 141.058 193.982 140.959 194.19 140.84C195.074 140.391 196.005 140.042 196.966 139.799V139.571L197.193 134.066C190.701 135.346 185.079 139.025 183.023 143.815L182.243 144.291L181.255 144.876C176.757 147.692 172.599 151.02 168.863 154.794C168.451 155.456 168.22 156.215 168.191 156.995C168.144 157.344 168.117 157.695 168.112 158.047C167.905 162.4 168.883 169.749 169.278 174.499C169.377 175.491 169.427 176.483 169.446 177.167C168.335 179.184 167.444 181.315 166.788 183.524C166.571 184.238 166.363 184.972 166.176 185.706C165.546 187.933 165.213 190.234 165.188 192.549C165.435 196.119 166.304 199.551 170.336 207.256Z" fill="#0F265C"/>
<path d="M189.347 159.861H188.982H188.922C188.433 159.826 187.948 159.753 187.47 159.643C182.529 158.75 182.351 156.083 182.015 151.659V151.362C182.015 150.886 181.946 150.37 181.897 149.835C181.897 149.607 181.897 149.398 181.847 149.18V148.942C181.847 148.803 181.847 148.764 181.847 148.724C181.811 148.305 181.811 147.883 181.847 147.464C181.851 146.951 181.904 146.44 182.005 145.937C182.144 145.138 182.379 144.358 182.707 143.616C184.792 138.777 190.355 134.929 197.233 133.57L197.855 133.451L197.569 140.195L197.203 140.274C196.28 140.505 195.385 140.838 194.535 141.266L194.258 141.415L193.922 141.593L193.497 141.821L193.28 141.94C191.8 142.813 190.395 143.808 189.08 144.916L188.982 145.094H188.873C187.427 146.276 186.182 147.686 185.187 149.269C184.931 149.618 184.786 150.036 184.772 150.469C184.756 150.766 184.832 151.061 184.99 151.312L185.069 151.402C185.355 151.65 185.909 151.65 186.758 151.62C187.841 151.543 188.928 151.66 189.97 151.967H190.088L190.177 152.066C190.849 152.82 190.948 158.294 189.584 159.643L189.347 159.861ZM196.709 134.621C190.523 136 185.385 139.58 183.517 143.944C183.221 144.62 183.006 145.329 182.875 146.056C182.789 146.511 182.743 146.972 182.737 147.435C182.701 147.824 182.701 148.216 182.737 148.605V148.714C182.742 148.757 182.742 148.8 182.737 148.843V149.021L182.796 149.686C182.796 150.231 182.875 150.747 182.914 151.233V151.53C183.25 156.003 183.389 157.848 187.578 158.612C187.994 158.71 188.417 158.776 188.843 158.81C189.624 157.61 189.565 153.693 189.288 152.859C188.41 152.639 187.503 152.559 186.6 152.621C185.533 152.621 184.624 152.681 184.041 151.947L183.932 151.798C183.708 151.417 183.592 150.981 183.596 150.539C183.597 149.915 183.786 149.306 184.14 148.793C185.219 147.059 186.582 145.521 188.171 144.241L188.32 144.122C189.659 142.976 191.094 141.948 192.608 141.048L192.835 140.929L193.26 140.691L193.616 140.502L193.883 140.354C194.701 139.945 195.554 139.613 196.432 139.362L196.709 134.621Z" fill="#0F265C"/>
<path d="M196.996 134.363C196.996 134.363 182.668 136.753 182.272 148.704C182.361 149.646 182.124 151.044 184.506 151.679C184.456 147.96 184.506 147.335 191.324 142.753C193.15 141.649 195.041 140.655 196.986 139.778C196.986 139.778 196.986 134.919 196.996 134.363Z" fill="#0F265C"/>
<path d="M189.14 159.365V160.416C188.745 160.49 188.346 160.533 187.944 160.545C185.583 160.654 180.514 160.138 180.435 153.791C180.435 152.641 180.435 151.61 180.435 150.717C180.435 150.171 180.435 149.676 180.494 149.219C180.553 148.367 180.622 147.643 180.711 147.057C180.737 146.278 180.958 145.517 181.354 144.846L182.342 144.261C182.097 144.967 181.902 145.689 181.759 146.423C181.637 147.015 181.551 147.615 181.502 148.218C181.452 148.842 181.452 149.468 181.502 150.092C181.502 150.419 181.561 150.757 181.581 151.084C181.778 153.801 181.966 156.905 183.626 158.155C184.855 158.903 186.261 159.307 187.697 159.325C188.177 159.362 188.659 159.376 189.14 159.365Z" fill="#0F265C"/>
<path d="M208.369 205.789C208.403 205.982 208.426 206.178 208.439 206.374C208.666 208.119 208.804 210.152 208.883 212.404C208.883 213.604 208.952 214.873 208.962 216.172C209.041 224.275 208.557 233.924 208.093 241.144C208.093 241.263 208.093 241.382 208.093 241.501C208.093 241.918 208.033 242.324 208.014 242.731H242.757C243.162 228.847 243.824 209.111 244.012 204.618C244.012 204.549 244.012 204.48 244.012 204.41C244.016 204.344 244.016 204.278 244.012 204.212C244.012 204.113 244.012 204.023 244.012 203.954C244.006 203.881 244.006 203.808 244.012 203.736C244.007 203.706 244.007 203.676 244.012 203.647C244.377 201.167 253.695 180.004 250.603 161.389C249.535 154.992 238.567 145.769 226.66 141.554C226.413 141.465 226.156 141.366 225.889 141.286L225.514 141.157C223.844 135.514 219.871 133.838 219.367 133.62V134.562L219.219 139.699C219.219 139.699 219.288 139.769 219.328 139.779C219.255 139.86 219.192 139.95 219.14 140.047C219.052 140.202 218.975 140.365 218.913 140.533L219.051 140.592L219.15 140.642C220.322 141.196 221.421 141.896 222.421 142.724C222.912 143.152 223.278 143.705 223.482 144.325C223.685 144.945 223.718 145.608 223.577 146.245C223.577 146.344 223.577 146.473 223.577 146.592C223.564 146.68 223.545 146.766 223.518 146.85V146.939C222.47 149.428 213.014 151.094 210.257 152.027C209.772 152.602 208.952 158.076 210.128 159.256C210.036 159.452 209.97 159.659 209.931 159.871C209.92 159.934 209.92 159.997 209.931 160.06L209.812 160.784V161.091C209.496 164.275 210.138 169.918 210.168 171.009C210.168 172.377 208.261 175.858 207.5 178.823C206.739 181.789 204.022 194.146 207.5 201.742C207.972 203.045 208.265 204.406 208.369 205.789Z" fill="#0F265C"/>
<path d="M225.168 143.309C225.24 143.838 225.201 144.376 225.053 144.888C224.905 145.401 224.651 145.876 224.308 146.284C224.045 146.602 223.731 146.873 223.379 147.088V146.998C223.468 146.76 223.547 146.542 223.616 146.324C223.783 145.802 223.867 145.256 223.863 144.707C223.87 144.154 223.712 143.612 223.409 143.15C223.186 142.807 222.912 142.5 222.599 142.238C221.813 141.586 220.942 141.046 220.01 140.631C219.427 140.344 219.021 140.195 219.021 140.195C219.021 139.917 219.091 134.929 219.12 134.602L219.249 134.701C221.371 136.477 223.164 138.616 224.545 141.018C224.785 141.411 224.993 141.822 225.168 142.248C225.168 142.516 225.168 142.892 225.168 143.309Z" fill="#0F265C"/>
<path d="M227.451 150.827C227.362 158.969 210.257 161.002 209.664 161.071V160.893L209.783 160.169V159.981C210.119 159.981 215.583 159.505 222.895 155.022C224.081 154.308 226.077 152.374 226.383 147.157C226.424 146.423 226.404 145.687 226.324 144.956C226.275 144.559 226.215 144.172 226.166 143.825C226.017 142.984 225.816 142.152 225.563 141.336L225.81 141.386C226.076 141.446 226.335 141.536 226.581 141.653C226.97 142.496 227.175 143.412 227.184 144.341C227.193 144.367 227.193 144.395 227.184 144.42C227.417 146.547 227.506 148.688 227.451 150.827Z" fill="#0F265C"/>
<path d="M203.725 221.587H203.586C203.524 221.569 203.466 221.538 203.415 221.498C203.365 221.457 203.322 221.406 203.291 221.349C203.26 221.292 203.24 221.23 203.233 221.165C203.226 221.1 203.232 221.035 203.25 220.972L209.535 199.382C209.571 199.25 209.659 199.139 209.777 199.072C209.896 199.005 210.036 198.988 210.167 199.025C210.298 199.062 210.409 199.149 210.476 199.268C210.543 199.387 210.56 199.528 210.523 199.66L204.238 221.25C204.205 221.357 204.135 221.449 204.042 221.511C203.948 221.572 203.836 221.599 203.725 221.587Z" fill="#0F265C"/>
<path d="M227.489 221.914C227.945 222.781 228.316 223.692 228.596 224.631C230.375 230.502 228.517 236.602 229.821 242.542H242.025C242.43 231.326 243.161 217.54 244.001 204.668C244.001 204.598 244.001 204.529 244.001 204.459C244.006 204.393 244.006 204.327 244.001 204.261C244.001 204.162 244.001 204.073 244.001 204.003C243.996 203.931 243.996 203.858 244.001 203.785C243.996 203.755 243.996 203.725 244.001 203.696C244.07 202.387 244.149 201.097 244.238 199.808L243.764 199.074C243.003 197.952 242.122 196.918 241.135 195.99L240.661 195.554C239.569 194.551 238.248 193.833 236.815 193.461C235.382 193.089 233.879 193.076 232.44 193.421C223.675 195.881 222.341 203.954 223.971 211.897C224.699 215.377 225.882 218.745 227.489 221.914Z" fill="#0F265C"/>
<path d="M222.441 168.311C216.057 179.319 208.913 204.827 204.022 221.111C177.569 225.009 164.012 227.756 145.909 231.028C143.745 231.415 144.15 238.367 145.385 243.266H210.603L211.038 243.197C216.966 242.205 220.593 239.23 222.174 235.799C222.744 235.119 223.266 234.4 223.735 233.646C232.312 219.762 246.383 183.643 249.229 174.053C253.211 160.447 235.563 145.68 222.441 168.311Z" fill="white"/>
<path d="M145.909 231.504C145.778 231.516 145.647 231.475 145.546 231.391C145.445 231.306 145.382 231.185 145.37 231.053C145.358 230.922 145.399 230.791 145.483 230.689C145.568 230.588 145.689 230.524 145.82 230.513L155.879 228.658C170.444 225.96 184.209 223.412 208.122 219.96C208.251 219.943 208.382 219.977 208.488 220.055C208.593 220.132 208.663 220.248 208.685 220.377C208.695 220.442 208.692 220.509 208.676 220.573C208.659 220.637 208.631 220.697 208.591 220.749C208.552 220.802 208.502 220.846 208.445 220.879C208.388 220.912 208.326 220.934 208.26 220.942C184.367 224.394 170.612 226.942 156.057 229.63L145.998 231.504H145.909Z" fill="#0F265C"/>
<path d="M179.762 163.888L175.898 164.026L176.195 168.291C176.23 168.853 176.478 169.381 176.887 169.766C177.297 170.151 177.837 170.365 178.398 170.364L182.479 170.235L182.035 163.828L179.762 163.888ZM181.225 167.061H180.306L180.227 165.881H179.1L179.041 164.889L181.076 164.82L181.225 167.061Z" fill="#FFDD00"/>
<path d="M181.225 167.042H180.306L180.217 165.881H179.1L179.041 164.89L181.077 164.83L181.225 167.042Z" fill="#0F265C"/>
<path d="M235.829 91.4019C235.833 92.2093 235.598 92.9997 235.154 93.6728C234.71 94.346 234.076 94.8715 233.334 95.1827C232.592 95.494 231.774 95.577 230.984 95.4211C230.195 95.2653 229.47 94.8777 228.9 94.3074C228.33 93.7372 227.943 93.01 227.785 92.2182C227.628 91.4263 227.709 90.6054 228.017 89.8596C228.325 89.1138 228.847 88.4768 229.517 88.0292C230.187 87.5816 230.974 87.3438 231.778 87.3457C232.851 87.3457 233.88 87.7727 234.639 88.5331C235.399 89.2935 235.827 90.3252 235.829 91.4019Z" fill="#0F265C"/>
<path d="M231.778 95.6363C230.939 95.6324 230.119 95.3789 229.423 94.908C228.727 94.437 228.185 93.7696 227.867 92.9901C227.548 92.2105 227.467 91.3537 227.633 90.5278C227.799 89.7019 228.205 88.9439 228.8 88.3494C229.395 87.755 230.152 87.3509 230.976 87.1879C231.8 87.025 232.653 87.1106 233.428 87.4339C234.204 87.7573 234.866 88.3038 235.332 89.0047C235.798 89.7055 236.047 90.5293 236.047 91.3718C236.042 92.5047 235.59 93.5893 234.79 94.3885C233.99 95.1877 232.907 95.6363 231.778 95.6363ZM231.778 87.5338C231.023 87.5377 230.285 87.7662 229.659 88.1903C229.033 88.6144 228.546 89.2151 228.259 89.9168C227.973 90.6184 227.9 91.3895 228.05 92.1327C228.199 92.8759 228.565 93.5579 229.101 94.0926C229.636 94.6274 230.318 94.991 231.059 95.1375C231.8 95.284 232.568 95.2068 233.266 94.9158C233.963 94.6247 234.559 94.1328 234.979 93.502C235.398 92.8713 235.622 92.1301 235.622 91.3718C235.612 90.3565 235.202 89.3864 234.482 88.673C233.762 87.9597 232.79 87.5609 231.778 87.5635V87.5338Z" fill="#0F265C"/>
<path d="M215.148 120.559C213.091 123.04 210.526 125.047 207.627 126.445C204.729 127.844 201.565 128.599 198.349 128.662C186.185 128.662 179.081 121.174 178.675 107.201C178.472 102.133 178.608 97.0571 179.081 92.0074C180.069 80.1065 191.254 71.5479 204.021 71.5479C216.6 71.5479 228.725 77.4189 228.359 92.0074C227.994 106.596 221.867 110.85 221.867 110.85" fill="white"/>
<path d="M186.215 98.2452C186.304 99.237 186.007 100.149 185.523 100.229C185.039 100.308 184.535 99.5742 184.535 98.5626C184.535 97.551 184.743 96.6585 185.227 96.5791C185.711 96.4998 186.116 97.2336 186.215 98.2452Z" fill="#0F265C"/>
<path d="M185.445 100.992C185.173 100.99 184.91 100.9 184.694 100.735C184.399 100.471 184.16 100.151 183.99 99.7933C183.821 99.4357 183.724 99.0476 183.706 98.652C183.557 97.1941 184.081 96.0437 184.98 95.8553C185.152 95.823 185.329 95.8275 185.5 95.8685C185.67 95.9095 185.83 95.9861 185.968 96.0933C186.263 96.3569 186.502 96.677 186.672 97.0346C186.842 97.3922 186.938 97.7802 186.957 98.1759C187.085 99.6437 186.561 100.794 185.672 100.973C185.598 100.989 185.521 100.996 185.445 100.992ZM185.287 97.5511C185.201 97.8743 185.178 98.2109 185.217 98.5429C185.247 98.8077 185.31 99.0676 185.405 99.3164C185.495 98.9939 185.518 98.6566 185.474 98.3247C185.454 98.0582 185.391 97.7969 185.287 97.5511Z" fill="#0F265C"/>
<path d="M200.682 97.4017C200.741 98.3935 200.385 99.296 199.901 99.3852C199.417 99.4745 198.992 98.691 198.913 97.6695C198.834 96.648 199.209 95.7852 199.694 95.686C200.178 95.5869 200.642 96.3902 200.682 97.4017Z" fill="#0F265C"/>
<path d="M199.841 100.119C199.549 100.113 199.267 100.009 199.041 99.8214C198.495 99.2477 198.193 98.4827 198.201 97.6892C198.132 96.4495 198.596 95.1107 199.614 94.952C199.79 94.9265 199.97 94.9399 200.141 94.9913C200.312 95.0427 200.469 95.1308 200.602 95.2495C200.875 95.5303 201.089 95.8624 201.233 96.2266C201.377 96.5908 201.448 96.98 201.442 97.3719C201.501 98.6115 201.047 99.9404 200.029 100.099L199.841 100.119ZM199.841 96.6677C199.739 96.9876 199.698 97.3243 199.723 97.6595C199.735 97.924 199.788 98.185 199.881 98.433C199.979 98.1122 200.016 97.7758 199.99 97.4413C199.975 97.1602 199.908 96.8844 199.792 96.628L199.841 96.6677Z" fill="#0F265C"/>
<path d="M193.409 117.167C192.392 117.164 191.385 116.962 190.445 116.572C190.386 116.545 190.333 116.507 190.289 116.46C190.244 116.412 190.21 116.356 190.188 116.295C190.166 116.234 190.157 116.169 190.16 116.104C190.163 116.04 190.179 115.976 190.207 115.918C190.261 115.798 190.36 115.705 190.482 115.658C190.605 115.612 190.74 115.616 190.86 115.67C191.921 116.13 193.09 116.281 194.233 116.106C195.376 115.931 196.446 115.436 197.322 114.678C197.368 114.631 197.423 114.595 197.483 114.569C197.543 114.544 197.608 114.531 197.673 114.531C197.738 114.531 197.803 114.544 197.863 114.569C197.923 114.595 197.978 114.631 198.024 114.678C198.07 114.723 198.106 114.777 198.131 114.837C198.156 114.896 198.169 114.96 198.169 115.025C198.169 115.09 198.156 115.154 198.131 115.213C198.106 115.273 198.07 115.327 198.024 115.372C196.776 116.549 195.121 117.192 193.409 117.167Z" fill="#0F265C"/>
<path d="M198.32 129.158C185.721 129.158 178.557 121.363 178.152 107.21C177.954 102.123 178.093 97.0271 178.567 91.9576C179.555 80.0567 190.503 71.0518 203.992 71.0518C212.401 71.0518 219.446 73.541 223.824 78.0733C227.302 81.6534 228.982 86.3443 228.824 92.0171C228.419 106.685 222.381 111.068 222.124 111.247C222.072 111.285 222.012 111.312 221.95 111.326C221.887 111.341 221.822 111.342 221.758 111.331C221.695 111.32 221.634 111.296 221.58 111.261C221.526 111.227 221.479 111.181 221.442 111.128C221.404 111.074 221.377 111.014 221.363 110.95C221.348 110.887 221.346 110.82 221.357 110.756C221.368 110.691 221.392 110.63 221.427 110.574C221.462 110.519 221.507 110.471 221.561 110.434C221.62 110.434 227.44 106.1 227.836 91.9972C227.984 86.6022 226.403 82.1493 223.122 78.7576C218.922 74.4336 212.134 72.0435 203.992 72.0435C191.027 72.0435 180.513 80.6419 179.545 92.0468C179.077 97.0736 178.942 102.126 179.14 107.171C179.535 120.718 186.343 128.166 198.32 128.166C201.477 128.147 204.593 127.454 207.463 126.132C210.332 124.81 212.888 122.89 214.96 120.5C215.046 120.4 215.169 120.338 215.301 120.329C215.432 120.32 215.562 120.363 215.662 120.45C215.761 120.537 215.822 120.66 215.832 120.792C215.841 120.924 215.797 121.054 215.711 121.154C213.544 123.651 210.873 125.655 207.874 127.035C204.875 128.415 201.618 129.139 198.32 129.158Z" fill="#0F265C"/>
<path d="M218.804 111.049C219.386 111.484 220.104 111.699 220.829 111.654C225.286 111.247 231.373 107.597 232.786 103.551C234.614 98.89 232.381 95.2504 227.924 95.6173C225.057 95.9565 222.436 97.4089 220.622 99.6636" fill="white"/>
<path d="M220.859 112.149C219.99 112.207 219.131 111.939 218.448 111.396C218.355 111.302 218.303 111.176 218.303 111.044C218.303 110.912 218.355 110.785 218.448 110.692C218.541 110.598 218.667 110.546 218.799 110.546C218.93 110.546 219.057 110.598 219.15 110.692C219.64 111.035 220.233 111.199 220.829 111.158C224.989 110.771 230.958 107.3 232.322 103.382C233.211 101.121 233.132 99.0486 232.104 97.68C231.606 97.085 230.963 96.6303 230.237 96.3607C229.511 96.0912 228.728 96.0161 227.964 96.1428C225.513 96.3114 223.171 97.6205 220.988 100.03C220.943 100.078 220.89 100.116 220.83 100.142C220.771 100.167 220.706 100.181 220.642 100.181C220.577 100.181 220.513 100.167 220.453 100.142C220.394 100.116 220.34 100.078 220.296 100.03C220.25 99.9843 220.213 99.9295 220.188 99.8691C220.163 99.8086 220.15 99.7438 220.15 99.6784C220.15 99.6129 220.163 99.5481 220.188 99.4877C220.213 99.4272 220.25 99.3724 220.296 99.3263C222.648 96.718 225.237 95.2999 227.934 95.1213C228.862 94.9745 229.813 95.0749 230.69 95.4126C231.568 95.7502 232.342 96.3132 232.934 97.0453C234.169 98.7015 234.298 101.121 233.29 103.69C231.778 107.994 225.513 111.693 220.908 112.11L220.859 112.149Z" fill="#0F265C"/>
<path d="M209.881 79.452C209.885 80.259 209.65 81.049 209.206 81.7219C208.763 82.3948 208.13 82.9203 207.388 83.2319C206.646 83.5434 205.829 83.627 205.04 83.472C204.251 83.3169 203.525 82.9303 202.955 82.361C202.385 81.7918 201.997 81.0656 201.838 80.2744C201.68 79.4832 201.759 78.6626 202.066 77.9166C202.373 77.1707 202.893 76.5329 203.562 76.0842C204.23 75.6354 205.016 75.3958 205.82 75.3958C206.36 75.3628 206.901 75.4449 207.408 75.6367C207.914 75.8286 208.374 76.1259 208.758 76.5091C209.141 76.8922 209.44 77.3526 209.633 77.8598C209.827 78.367 209.912 78.9097 209.881 79.452Z" fill="#0F265C"/>
<path d="M205.819 83.7356C204.692 83.7356 203.612 83.2863 202.815 82.4865C202.018 81.6868 201.57 80.6021 201.57 79.4711C201.57 78.3401 202.018 77.2554 202.815 76.4557C203.612 75.6559 204.692 75.2066 205.819 75.2066C206.344 75.1575 206.874 75.2204 207.373 75.3914C207.872 75.5623 208.329 75.8373 208.715 76.1984C209.157 76.6209 209.507 77.1307 209.743 77.6956C209.98 78.2605 210.097 78.8684 210.088 79.481C210.08 80.6121 209.627 81.6942 208.827 82.4913C208.028 83.2883 206.946 83.7356 205.819 83.7356ZM206.155 75.6133H205.839C205.083 75.6133 204.343 75.8384 203.715 76.2601C203.086 76.6818 202.595 77.2812 202.306 77.9825C202.017 78.6838 201.941 79.4555 202.088 80.2C202.236 80.9445 202.6 81.6284 203.135 82.1652C203.67 82.7019 204.351 83.0675 205.093 83.2155C205.835 83.3636 206.604 83.2876 207.302 82.9971C208.001 82.7066 208.599 82.2147 209.019 81.5835C209.439 80.9524 209.663 80.2104 209.663 79.4513C209.676 78.8962 209.573 78.3446 209.36 77.8321C209.147 77.3196 208.83 76.8576 208.428 76.4761C207.809 75.9042 206.997 75.5889 206.155 75.5934V75.6133Z" fill="#0F265C"/>
<path d="M201.966 77.2201C201.972 78.0279 201.739 78.8193 201.295 79.4937C200.852 80.1682 200.22 80.6952 199.477 81.008C198.735 81.3208 197.917 81.4052 197.127 81.2505C196.337 81.0958 195.611 80.7089 195.04 80.1391C194.47 79.5692 194.081 78.8421 193.923 78.05C193.765 77.2579 193.845 76.4365 194.153 75.6901C194.461 74.9437 194.983 74.3061 195.653 73.858C196.323 73.41 197.11 73.1719 197.915 73.1738C198.986 73.1738 200.013 73.5995 200.773 74.3578C201.532 75.116 201.961 76.1451 201.966 77.2201Z" fill="#0F265C"/>
<path d="M197.915 81.485C197.075 81.481 196.256 81.2276 195.56 80.7566C194.863 80.2857 194.322 79.6183 194.003 78.8387C193.685 78.0592 193.603 77.2023 193.77 76.3764C193.936 75.5505 194.342 74.7925 194.937 74.1981C195.532 73.6037 196.289 73.1995 197.113 73.0366C197.937 72.8736 198.79 72.9592 199.565 73.2826C200.34 73.6059 201.003 74.1525 201.469 74.8534C201.935 75.5542 202.184 76.3779 202.184 77.2205C202.178 78.3533 201.726 79.4379 200.926 80.2371C200.126 81.0363 199.043 81.485 197.915 81.485ZM197.915 73.3825C197.159 73.3864 196.422 73.6148 195.796 74.0389C195.169 74.463 194.682 75.0638 194.396 75.7654C194.109 76.4671 194.037 77.2381 194.186 77.9813C194.336 78.7245 194.702 79.4065 195.237 79.9413C195.773 80.4761 196.454 80.8397 197.196 80.9862C197.937 81.1326 198.705 81.0555 199.402 80.7644C200.1 80.4733 200.696 79.9814 201.116 79.3507C201.535 78.72 201.759 77.9787 201.759 77.2205C201.757 76.7152 201.657 76.2151 201.463 75.7487C201.269 75.2823 200.986 74.8589 200.629 74.5025C200.272 74.1461 199.848 73.8638 199.383 73.6716C198.917 73.4794 198.418 73.3812 197.915 73.3825Z" fill="#0F265C"/>
<path d="M195.682 78.6381C195.688 79.4459 195.454 80.2373 195.011 80.9117C194.568 81.5861 193.935 82.1132 193.193 82.4259C192.451 82.7387 191.633 82.8231 190.843 82.6684C190.053 82.5137 189.327 82.1269 188.756 81.5571C188.186 80.9872 187.797 80.2601 187.639 79.468C187.481 78.6758 187.561 77.8544 187.869 77.1081C188.177 76.3617 188.699 75.7241 189.369 75.2761C190.038 74.828 190.826 74.5899 191.631 74.5918C192.17 74.5571 192.71 74.6379 193.216 74.8287C193.722 75.0195 194.182 75.316 194.565 75.6986C194.948 76.0812 195.246 76.5411 195.438 77.0478C195.631 77.5546 195.714 78.0967 195.682 78.6381Z" fill="#0F265C"/>
<path d="M191.63 82.9024C190.503 82.9024 189.422 82.4531 188.625 81.6533C187.829 80.8536 187.381 79.7689 187.381 78.6379C187.381 77.5069 187.829 76.4222 188.625 75.6224C189.422 74.8227 190.503 74.3734 191.63 74.3734C192.153 74.3263 192.681 74.3903 193.178 74.5612C193.675 74.732 194.131 75.0059 194.515 75.3652C194.96 75.7861 195.313 76.2953 195.551 76.8604C195.789 77.4256 195.908 78.0343 195.899 78.6478C195.891 79.7789 195.438 80.861 194.638 81.6581C193.838 82.4551 192.757 82.9024 191.63 82.9024ZM191.966 74.78H191.65C190.893 74.78 190.154 75.0051 189.525 75.4269C188.896 75.8486 188.406 76.448 188.117 77.1493C187.827 77.8506 187.751 78.6223 187.899 79.3668C188.047 80.1113 188.411 80.7952 188.946 81.3319C189.48 81.8687 190.162 82.2342 190.904 82.3823C191.645 82.5304 192.414 82.4544 193.113 82.1639C193.812 81.8734 194.409 81.3815 194.829 80.7503C195.249 80.1192 195.474 79.3771 195.474 78.618C195.486 78.0623 195.381 77.5102 195.166 76.9976C194.952 76.4851 194.632 76.0235 194.229 75.6428C193.605 75.0913 192.797 74.7942 191.966 74.8098V74.78Z" fill="#0F265C"/>
<path d="M190.009 81.6733C190.015 82.4807 189.782 83.2716 189.339 83.9458C188.896 84.62 188.264 85.1471 187.523 85.4601C186.781 85.7732 185.964 85.8582 185.174 85.7043C184.384 85.5504 183.658 85.1645 183.087 84.5957C182.516 84.0269 182.126 83.3007 181.967 82.5092C181.808 81.7177 181.887 80.8966 182.193 80.1501C182.499 79.4036 183.02 78.7652 183.688 78.316C184.357 77.8668 185.143 77.627 185.948 77.627C187.02 77.6269 188.048 78.0523 188.809 78.8103C189.57 79.5682 190.001 80.5974 190.009 81.6733Z" fill="#0F265C"/>
<path d="M185.948 85.9371C185.108 85.9332 184.289 85.6797 183.593 85.2088C182.897 84.7378 182.355 84.0704 182.037 83.2909C181.718 82.5113 181.637 81.6545 181.803 80.8286C181.969 80.0026 182.375 79.2446 182.97 78.6502C183.565 78.0558 184.322 77.6517 185.146 77.4887C185.97 77.3258 186.823 77.4114 187.598 77.7347C188.374 78.058 189.036 78.6046 189.502 79.3055C189.968 80.0063 190.217 80.83 190.217 81.6726C190.212 82.8054 189.76 83.8901 188.96 84.6893C188.16 85.4884 187.077 85.9371 185.948 85.9371ZM185.948 77.8346C185.193 77.8385 184.455 78.0669 183.829 78.491C183.203 78.9151 182.716 79.5159 182.429 80.2176C182.143 80.9192 182.07 81.6903 182.22 82.4335C182.369 83.1767 182.735 83.8586 183.271 84.3934C183.806 84.9282 184.488 85.2918 185.229 85.4383C185.97 85.5848 186.738 85.5076 187.436 85.2165C188.133 84.9255 188.729 84.4335 189.149 83.8028C189.568 83.1721 189.792 82.4309 189.792 81.6726C189.787 80.6529 189.379 79.6767 188.659 78.9575C187.939 78.2383 186.964 77.8346 185.948 77.8346Z" fill="#0F265C"/>
<path d="M215.356 84.1029C215.362 84.9103 215.128 85.7013 214.686 86.3755C214.243 87.0497 213.611 87.5768 212.869 87.8898C212.128 88.2029 211.31 88.2879 210.521 88.134C209.731 87.9801 209.004 87.5942 208.433 87.0254C207.862 86.4566 207.473 85.7303 207.314 84.9389C207.155 84.1474 207.233 83.3263 207.54 82.5798C207.846 81.8332 208.367 81.1949 209.035 80.7457C209.704 80.2965 210.49 80.0567 211.295 80.0566C212.367 80.0566 213.395 80.4819 214.156 81.2399C214.917 81.9979 215.348 83.027 215.356 84.1029Z" fill="#0F265C"/>
<path d="M211.334 88.3668C210.494 88.3629 209.675 88.1094 208.979 87.6385C208.282 87.1675 207.741 86.5001 207.422 85.7206C207.104 84.941 207.022 84.0842 207.189 83.2583C207.355 82.4324 207.761 81.6744 208.356 81.0799C208.951 80.4855 209.708 80.0813 210.532 79.9184C211.355 79.7555 212.209 79.841 212.984 80.1644C213.759 80.4877 214.422 81.0343 214.888 81.7352C215.354 82.436 215.603 83.2597 215.603 84.1023C215.601 84.6636 215.49 85.2192 215.275 85.7373C215.059 86.2554 214.745 86.7259 214.348 87.1219C213.952 87.5179 213.482 87.8316 212.964 88.0452C212.447 88.2588 211.893 88.3681 211.334 88.3668ZM211.334 80.2643C210.578 80.2682 209.841 80.4967 209.215 80.9208C208.588 81.3449 208.101 81.9456 207.815 82.6473C207.528 83.3489 207.456 84.12 207.605 84.8632C207.755 85.6063 208.121 86.2884 208.656 86.8231C209.192 87.3579 209.873 87.7215 210.615 87.868C211.356 88.0145 212.124 87.9373 212.821 87.6462C213.519 87.3552 214.115 86.8633 214.534 86.2325C214.954 85.6018 215.178 84.8606 215.178 84.1023C215.172 83.0826 214.765 82.1064 214.045 81.3872C213.325 80.668 212.35 80.2643 211.334 80.2643Z" fill="#0F265C"/>
<path d="M220.02 89.3685C220.026 90.1759 219.793 90.9669 219.35 91.6411C218.907 92.3153 218.275 92.8424 217.533 93.1555C216.792 93.4685 215.974 93.5535 215.185 93.3996C214.395 93.2457 213.668 92.8599 213.098 92.291C212.527 91.7222 212.137 90.996 211.978 90.2045C211.819 89.413 211.897 88.5919 212.204 87.8454C212.51 87.0989 213.031 86.4605 213.699 86.0113C214.368 85.5621 215.154 85.3223 215.959 85.3223C217.031 85.3222 218.059 85.7476 218.82 86.5056C219.581 87.2635 220.012 88.2927 220.02 89.3685Z" fill="#0F265C"/>
<path d="M215.958 93.6529C215.118 93.649 214.299 93.3956 213.603 92.9246C212.906 92.4536 212.365 91.7862 212.046 91.0067C211.728 90.2271 211.646 89.3703 211.813 88.5444C211.979 87.7185 212.385 86.9605 212.98 86.3661C213.575 85.7716 214.332 85.3675 215.156 85.2045C215.98 85.0416 216.833 85.1272 217.608 85.4505C218.383 85.7739 219.046 86.3204 219.512 87.0213C219.978 87.7221 220.227 88.5459 220.227 89.3884C220.221 90.5213 219.769 91.6059 218.969 92.4051C218.169 93.2043 217.087 93.6529 215.958 93.6529ZM215.958 85.5504C215.202 85.5543 214.465 85.7828 213.839 86.2069C213.212 86.631 212.725 87.2317 212.439 87.9334C212.152 88.635 212.08 89.4061 212.229 90.1493C212.379 90.8925 212.745 91.5745 213.28 92.1092C213.816 92.644 214.497 93.0076 215.239 93.1541C215.98 93.3006 216.748 93.2234 217.446 92.9324C218.143 92.6413 218.739 92.1494 219.159 91.5186C219.578 90.8879 219.802 90.1467 219.802 89.3884C219.802 88.3653 219.397 87.384 218.676 86.6605C217.955 85.937 216.977 85.5306 215.958 85.5306V85.5504Z" fill="#0F265C"/>
<path d="M223.053 95.4486C223.057 96.2536 222.823 97.0417 222.38 97.713C221.937 98.3843 221.306 98.9085 220.566 99.2193C219.826 99.5301 219.011 99.6135 218.223 99.4588C217.436 99.3042 216.712 98.9185 216.144 98.3506C215.575 97.7828 215.187 97.0583 215.03 96.269C214.872 95.4798 214.951 94.6612 215.257 93.917C215.563 93.1729 216.082 92.5367 216.749 92.089C217.415 91.6413 218.199 91.4024 219.002 91.4023C220.073 91.4023 221.1 91.828 221.859 92.5863C222.619 93.3445 223.048 94.3737 223.053 95.4486Z" fill="#0F265C"/>
<path d="M219.002 99.7125C218.162 99.7085 217.343 99.4551 216.647 98.9842C215.95 98.5132 215.409 97.8458 215.09 97.0663C214.772 96.2867 214.69 95.4299 214.857 94.604C215.023 93.7781 215.429 93.0201 216.024 92.4257C216.619 91.8312 217.376 91.427 218.2 91.2641C219.023 91.1012 219.877 91.1868 220.652 91.5101C221.427 91.8334 222.09 92.38 222.556 93.0809C223.022 93.7817 223.27 94.6054 223.271 95.448C223.265 96.5808 222.813 97.6655 222.013 98.4647C221.213 99.2638 220.13 99.7125 219.002 99.7125ZM219.002 91.61C218.246 91.6139 217.509 91.8423 216.883 92.2664C216.256 92.6905 215.769 93.2913 215.483 93.993C215.196 94.6946 215.123 95.4657 215.273 96.2089C215.423 96.952 215.789 97.6341 216.324 98.1688C216.86 98.7036 217.541 99.0672 218.283 99.2137C219.024 99.3602 219.792 99.283 220.489 98.9919C221.187 98.7009 221.783 98.209 222.202 97.5782C222.622 96.9475 222.846 96.2063 222.846 95.448C222.84 94.4283 222.433 93.4521 221.713 92.7329C220.992 92.0137 220.018 91.61 219.002 91.61Z" fill="#0F265C"/>
<path d="M192.559 112.01H192.381C190.069 111.137 186.186 109.461 186.186 108.103C186.186 106.744 190.316 102.093 191.591 100.684C191.633 100.632 191.685 100.588 191.745 100.557C191.804 100.525 191.87 100.506 191.937 100.501C192.004 100.495 192.071 100.504 192.135 100.526C192.199 100.547 192.258 100.582 192.308 100.627C192.357 100.673 192.398 100.728 192.426 100.789C192.453 100.851 192.469 100.917 192.47 100.985C192.471 101.053 192.459 101.12 192.433 101.182C192.408 101.245 192.37 101.302 192.322 101.349C189.871 104.076 187.213 107.428 187.174 108.113C187.302 108.608 189.901 110.017 192.737 111.088C192.798 111.11 192.854 111.144 192.901 111.188C192.949 111.232 192.987 111.285 193.014 111.344C193.041 111.404 193.055 111.467 193.057 111.532C193.058 111.597 193.047 111.662 193.023 111.722C192.982 111.81 192.916 111.884 192.833 111.935C192.751 111.986 192.656 112.012 192.559 112.01Z" fill="#0F265C"/>
<path d="M178.449 99.9012C177.897 99.4863 177.46 98.9371 177.179 98.3055C176.898 97.6738 176.782 96.9807 176.843 96.2916C176.903 95.6026 177.138 94.9403 177.524 94.3676C177.911 93.7949 178.436 93.3305 179.051 93.0186" fill="#0F265C"/>
<path d="M229.842 70.2577C220.948 62.7602 207.737 65.2495 207.608 65.299C207.575 65.3057 207.543 65.3211 207.517 65.3437C207.491 65.3664 207.472 65.3954 207.46 65.428L207.411 65.547C207.164 64.6544 206.927 63.5635 206.63 62.2643C205.642 57.6131 200.158 58.6147 197.519 59.2197C196.255 58.8825 194.782 58.5156 194.061 58.4164C191.017 57.8114 189.397 58.6147 187.144 60.8462C186.571 61.3099 186.153 61.9386 185.946 62.6477C185.74 63.3569 185.754 64.1125 185.988 64.8131C184.305 65.3357 182.889 66.4905 182.035 68.0362C178.083 72.0032 173.32 80.2247 178.083 94.5552C178.095 94.5964 178.119 94.6329 178.153 94.6595C178.187 94.6861 178.228 94.7017 178.27 94.704C178.321 94.6966 178.367 94.6697 178.398 94.629C178.43 94.5883 178.444 94.5369 178.438 94.4858C178.438 94.3966 177.717 84.8759 184.367 81.5238C184.776 81.3525 185.121 81.0579 185.355 80.6809C185.683 80.7259 186.016 80.7259 186.344 80.6809C188.774 80.4825 192.836 79.2627 196.887 79.8775C200.513 80.4131 204.456 81.9205 205.257 80.3536C205.404 80.4674 205.559 80.5701 205.721 80.661C211.164 83.5266 215.972 87.4687 219.856 92.2497C223.74 97.0306 226.619 102.551 228.32 108.479C228.338 108.532 228.373 108.577 228.419 108.608C229.143 108.993 229.951 109.193 230.77 109.193C231.556 109.193 232.328 108.992 233.013 108.608C236.106 106.882 237.796 101.666 238.053 93.0379C238.251 82.6643 235.484 75.0081 229.842 70.2577Z" fill="#FFDD00"/>
<path d="M210.286 70.1292C213.85 69.4318 217.526 69.571 221.027 70.5358L210.286 70.1292Z" fill="#FFDD00"/>
<path d="M230.958 86.4036C228.896 83.211 226.156 80.5158 222.934 78.5114C219.712 76.507 216.088 75.2431 212.322 74.8102C212.187 73.1856 211.579 71.6368 210.573 70.3573C214.025 69.7293 217.574 69.8852 220.958 70.8135H221.017C221.074 70.8139 221.13 70.7935 221.173 70.7563C221.216 70.719 221.245 70.6672 221.253 70.6106C221.262 70.5539 221.249 70.4961 221.219 70.4477C221.188 70.3994 221.141 70.3638 221.086 70.3474C217.543 69.3742 213.823 69.2351 210.217 69.9408C208.241 68.0664 207.845 66.5887 206.887 62.2053C206.782 61.6139 206.558 61.0503 206.228 60.5489C205.898 60.0476 205.47 59.619 204.97 59.2896C202.885 57.9606 199.752 58.4664 197.539 58.9623C196.294 58.635 194.851 58.2681 194.13 58.1689C190.879 57.5243 189.189 58.4962 187.015 60.6681C186.45 61.1404 186.031 61.7639 185.805 62.4661C185.58 63.1684 185.557 63.9205 185.741 64.635L185.494 64.7044C184.163 65.2675 183.01 66.1835 182.159 67.354C181.308 68.5246 180.79 69.9056 180.662 71.3491C180.019 75.316 181.887 76.9424 182.796 77.4681C177.509 80.116 177.855 86.9292 177.855 86.9986C177.855 87.0295 177.861 87.06 177.873 87.0883C177.885 87.1166 177.903 87.1422 177.925 87.1635C177.947 87.1848 177.974 87.2015 178.002 87.2123C178.031 87.2232 178.062 87.2281 178.092 87.2267C178.156 87.2216 178.215 87.192 178.258 87.1439C178.3 87.0958 178.322 87.033 178.32 86.9689C178.32 86.8995 178.023 80.3243 183.112 77.8548C183.077 78.6996 183.371 79.5249 183.932 80.1557C184.264 80.4597 184.658 80.6866 185.086 80.8203C185.515 80.954 185.968 80.9912 186.413 80.9292C187.124 80.8796 187.944 80.7309 188.903 80.5722C191.53 79.9974 194.232 79.8467 196.907 80.1259C197.895 80.2647 198.883 80.4829 199.871 80.7011C201.117 81.0251 202.391 81.2277 203.675 81.3061C204.214 81.3461 204.75 81.2028 205.197 80.8995C205.336 80.7845 205.45 80.6428 205.533 80.4826C205.617 80.3225 205.667 80.1473 205.681 79.9672C206.379 80.1235 207.091 80.2066 207.806 80.2152C208.6 80.293 209.4 80.1411 210.111 79.7773C210.822 79.4135 211.414 78.8531 211.818 78.1623C211.935 77.9475 212.031 77.7216 212.104 77.4879C231.926 85.64 229.189 106.982 229.16 107.19C229.154 107.222 229.155 107.254 229.162 107.285C229.168 107.316 229.182 107.345 229.2 107.371C229.218 107.397 229.242 107.419 229.269 107.436C229.296 107.452 229.326 107.463 229.357 107.468C229.415 107.466 229.47 107.445 229.513 107.407C229.556 107.369 229.585 107.317 229.594 107.26C229.594 107.042 232.42 85.3028 212.203 77.0317C212.339 76.4604 212.395 75.8731 212.371 75.2863C216.054 75.7285 219.595 76.9819 222.74 78.9569C225.885 80.9319 228.556 83.5797 230.563 86.711C230.584 86.7443 230.613 86.7716 230.648 86.7907C230.682 86.8097 230.721 86.8198 230.76 86.8201C230.803 86.8302 230.847 86.8302 230.889 86.8201C230.93 86.8066 230.967 86.7821 230.995 86.749C231.023 86.716 231.042 86.6759 231.049 86.6329C231.056 86.59 231.052 86.5459 231.036 86.5054C231.019 86.465 230.993 86.4298 230.958 86.4036ZM187.332 60.9854C188.992 59.3292 190.296 58.4366 192.272 58.4366C192.853 58.4413 193.433 58.5044 194.001 58.6251C194.565 58.7044 195.573 58.9425 196.581 59.2003C195.439 59.5365 194.384 60.1178 193.488 60.9038C192.592 61.6897 191.877 62.6617 191.393 63.7524C191.119 64.2976 191.033 64.918 191.146 65.5177C190.43 65.0042 189.617 64.6455 188.756 64.4646C187.895 64.2836 187.006 64.2842 186.146 64.4664C185.994 63.8331 186.025 63.1694 186.235 62.5529C186.445 61.9365 186.825 61.3928 187.332 60.9854ZM181.116 71.3788C181.235 70.021 181.719 68.721 182.516 67.6173C183.313 66.5136 184.393 65.6474 185.642 65.111C186.641 64.7784 187.711 64.7188 188.74 64.9384C189.77 65.158 190.723 65.6489 191.501 66.3606C189.93 66.8184 188.501 67.6719 187.351 68.84C184.995 70.9836 183.493 73.9114 183.122 77.0813C182.401 76.7243 180.474 75.3755 181.116 71.3788ZM204.831 80.4929C204.08 81.1077 202.055 80.6614 199.891 80.1953C198.903 79.9871 197.914 79.7689 196.926 79.6201C196.125 79.497 195.316 79.4373 194.505 79.4416C192.581 79.4857 190.663 79.6947 188.774 80.0664C187.786 80.2251 187.015 80.3639 186.333 80.4234C185.958 80.4763 185.575 80.447 185.212 80.3375C184.849 80.2279 184.513 80.0407 184.229 79.7887C183.991 79.5194 183.808 79.2055 183.691 78.8652C183.574 78.5248 183.525 78.1646 183.547 77.8052C183.547 74.3242 185.681 71.0615 187.677 69.1772C189.397 67.5507 191.264 66.6383 192.618 66.7077C194.95 66.8466 196.442 69.078 198.695 72.4598C199.624 73.8581 200.671 75.435 201.976 77.1507C202.837 78.2452 203.922 79.1415 205.158 79.7788C205.163 79.9142 205.137 80.049 205.082 80.1729C205.028 80.2967 204.945 80.4062 204.841 80.4929H204.831ZM211.343 77.8945C210.424 79.5705 208.379 80.0962 205.484 79.4218C204.267 78.8116 203.198 77.9417 202.351 76.873C201.067 75.1771 200.019 73.6102 199.09 72.2119C196.758 68.711 195.217 66.4003 192.648 66.2615C192.473 66.2468 192.298 66.2468 192.124 66.2615C191.828 65.9696 191.642 65.584 191.597 65.1701C191.552 64.7562 191.651 64.3394 191.877 63.9904C192.399 62.8327 193.19 61.8176 194.184 61.0306C195.177 60.2437 196.345 59.7078 197.588 59.4681C199.713 58.9821 202.766 58.4763 204.723 59.716C205.17 60.0096 205.552 60.3928 205.844 60.8417C206.137 61.2906 206.334 61.7954 206.422 62.3243C207.411 66.916 207.855 68.4631 210.148 70.5458C211.196 71.7987 211.816 73.356 211.917 74.9887C212.001 75.9932 211.798 77.001 211.333 77.8945H211.343Z" fill="#0F265C"/>
<path d="M181.738 92.562C181.607 92.5726 181.477 92.5304 181.377 92.4449C181.277 92.3593 181.215 92.2374 181.205 92.1059C181.194 91.9743 181.236 91.844 181.321 91.7436C181.407 91.6432 181.528 91.5808 181.659 91.5703L187.588 90.5786C187.719 90.5575 187.853 90.5896 187.961 90.6677C188.068 90.7458 188.14 90.8636 188.161 90.9951C188.182 91.1266 188.15 91.2611 188.072 91.369C187.995 91.4769 187.877 91.5493 187.746 91.5703L181.817 92.562H181.738ZM204.238 91.967L197.549 91.5604C197.484 91.5579 197.421 91.5424 197.362 91.515C197.304 91.4876 197.251 91.4487 197.208 91.4007C197.165 91.3526 197.132 91.2964 197.11 91.2352C197.089 91.1741 197.08 91.1093 197.084 91.0447C197.084 90.9781 197.097 90.9122 197.124 90.8514C197.151 90.7906 197.191 90.7363 197.24 90.6921C197.29 90.648 197.349 90.615 197.412 90.5954C197.475 90.5758 197.542 90.5701 197.608 90.5786L204.298 90.9753C204.363 90.9791 204.426 90.9957 204.485 91.0242C204.543 91.0527 204.595 91.0925 204.639 91.1413C204.682 91.1901 204.715 91.2471 204.736 91.3088C204.757 91.3705 204.766 91.4357 204.762 91.5009C204.758 91.566 204.742 91.6298 204.713 91.6886C204.685 91.7473 204.645 91.7998 204.597 91.8431C204.548 91.8864 204.491 91.9196 204.43 91.9409C204.368 91.9622 204.303 91.971 204.238 91.967Z" fill="#0F265C"/>
<path d="M191.255 238.932C191.255 237.286 190.425 235.957 189.397 235.957H81.9661C80.978 235.957 80.1084 237.286 80.1084 238.932C80.1084 240.579 80.9384 241.907 81.9661 241.907H189.407C190.425 241.907 191.255 240.579 191.255 238.932Z" fill="white"/>
<path d="M79.6241 240.548C79.8558 241.137 80.2488 241.648 80.7576 242.022C81.2665 242.395 81.8704 242.617 82.4996 242.661H162.539C162.792 242.674 163.045 242.62 163.27 242.503C163.495 242.386 163.685 242.211 163.82 241.995C163.955 241.78 164.03 241.532 164.038 241.278C164.045 241.023 163.985 240.772 163.863 240.548L144.011 186.459C143.78 185.871 143.387 185.36 142.878 184.986C142.369 184.612 141.765 184.391 141.136 184.347H61.1359C60.8827 184.333 60.6305 184.388 60.4053 184.505C60.1801 184.622 59.9902 184.797 59.8552 185.012C59.7202 185.228 59.645 185.475 59.6374 185.73C59.6297 185.984 59.6899 186.236 59.8118 186.459L79.6241 240.548Z" fill="white"/>
<path d="M249.921 242.314H189.931C190.978 241.967 191.749 240.608 191.749 238.932C191.749 236.949 190.761 235.461 189.397 235.461H162.49L144.447 186.281C144.179 185.598 143.723 185.006 143.131 184.575C142.539 184.145 141.836 183.893 141.107 183.851H61.1362C60.822 183.835 60.5086 183.897 60.2242 184.032C59.9397 184.167 59.6929 184.371 59.5058 184.625C59.3254 184.919 59.2171 185.253 59.1896 185.597C59.1621 185.942 59.2163 186.288 59.3477 186.608L79.1995 240.697C79.4439 241.325 79.8496 241.876 80.3753 242.294H71.1066C70.9756 242.294 70.8499 242.346 70.7572 242.439C70.6646 242.532 70.6126 242.658 70.6126 242.79C70.6126 242.921 70.6646 243.048 70.7572 243.141C70.8499 243.234 70.9756 243.286 71.1066 243.286H249.96C250.091 243.286 250.217 243.234 250.31 243.141C250.402 243.048 250.454 242.921 250.454 242.79C250.452 242.723 250.436 242.657 250.408 242.597C250.379 242.536 250.339 242.482 250.289 242.438C250.239 242.393 250.181 242.359 250.117 242.338C250.054 242.317 249.987 242.309 249.921 242.314ZM189.397 236.463C190.039 236.463 190.761 237.454 190.761 238.942C190.761 240.43 190.049 241.421 189.407 241.421H164.456C164.469 241.084 164.415 240.747 164.298 240.43L162.856 236.463H189.397ZM163.33 241.818C163.231 241.938 163.105 242.033 162.962 242.095C162.82 242.157 162.665 242.184 162.51 242.175H82.4703C81.942 242.13 81.4366 241.938 81.0107 241.621C80.5849 241.304 80.2554 240.874 80.0592 240.38L60.2371 186.281C60.1519 186.112 60.1076 185.925 60.1076 185.735C60.1076 185.546 60.1519 185.359 60.2371 185.19C60.3502 185.069 60.4917 184.978 60.6488 184.926C60.8059 184.874 60.9735 184.863 61.1362 184.892H141.176C141.703 184.936 142.208 185.125 142.634 185.441C143.06 185.756 143.39 186.184 143.587 186.678L163.439 240.767C163.499 240.938 163.521 241.12 163.502 241.3C163.484 241.48 163.425 241.654 163.33 241.808V241.818Z" fill="#0F265C"/>
<path d="M102.036 210.727C101.538 210.676 101.035 210.761 100.581 210.974C100.127 211.186 99.7383 211.517 99.4568 211.933C99.1752 212.349 99.011 212.833 98.9814 213.335C98.9518 213.837 99.058 214.337 99.2888 214.784C99.7534 215.845 100.505 216.754 101.459 217.408C102.413 218.062 103.53 218.434 104.684 218.483C105.177 218.511 105.67 218.415 106.117 218.204C106.564 217.993 106.951 217.673 107.243 217.273C107.508 216.849 107.663 216.366 107.692 215.866C107.721 215.367 107.625 214.869 107.411 214.417C106.95 213.358 106.201 212.451 105.25 211.799C104.3 211.146 103.186 210.775 102.036 210.727Z" fill="#ECECED"/>
<path d="M108.389 209.131C108.176 208.651 107.833 208.241 107.4 207.947C106.967 207.653 106.461 207.485 105.938 207.465C105.693 207.453 105.448 207.502 105.226 207.608C105.004 207.713 104.811 207.872 104.664 208.069C104.532 208.281 104.454 208.522 104.437 208.771C104.42 209.02 104.464 209.27 104.565 209.498C104.778 209.978 105.12 210.389 105.553 210.686C105.985 210.982 106.492 211.151 107.015 211.174C107.262 211.183 107.507 211.132 107.729 211.025C107.951 210.918 108.144 210.758 108.29 210.559C108.419 210.346 108.496 210.105 108.513 209.857C108.53 209.608 108.488 209.359 108.389 209.131Z" fill="#ECECED"/>
</svg>
