<svg width="320" height="320" viewBox="0 0 320 320" fill="none" xmlns="http://www.w3.org/2000/svg">
<path d="M279.5 166C279.5 231.998 225.998 285.5 160 285.5C94.002 285.5 40.5 231.998 40.5 166C40.5 100.002 94.002 46.5 160 46.5C225.998 46.5 279.5 100.002 279.5 166Z" fill="#F4F6F9" stroke="#DEE3ED"/>
<path d="M160.5 285.63C226.774 285.63 280.5 231.904 280.5 165.63C280.5 99.3557 226.774 45.6299 160.5 45.6299C94.2258 45.6299 40.5 99.3557 40.5 165.63C40.5 231.904 94.2258 285.63 160.5 285.63Z" fill="#F4F6F9"/>
<path d="M86.08 218.051C84.08 226.051 82.46 233.241 81.2 238.711C80.68 240.981 80.2 242.961 79.84 244.611L78 252.881C83.7841 258.355 90.1023 263.236 96.86 267.451C98.17 263.161 99.44 259.061 100.6 255.451L100.66 255.281C101.12 253.821 101.57 252.441 101.98 251.161L104.24 244.361C105.91 238.521 107.75 232.281 109.72 225.851C104.771 225.018 99.9056 223.75 95.18 222.061C92.0405 220.979 88.9966 219.638 86.08 218.051Z" fill="white"/>
<path d="M242.71 252.741L240.88 244.601C240.88 244.501 240.88 244.391 240.8 244.281C240.71 243.921 240.62 243.581 240.52 243.281C240.21 241.941 239.86 240.421 239.52 238.751C238.21 233.041 236.52 225.451 234.39 217.061C231.5 219.151 226.39 221.121 223.65 222.061C219.484 223.533 215.216 224.7 210.88 225.551C212.88 232.091 214.76 238.441 216.45 244.381L217.45 247.261C218.14 249.321 218.95 251.811 219.85 254.611L219.95 254.921C221.14 258.681 222.47 262.921 223.85 267.461C230.621 263.24 236.949 258.349 242.74 252.861L242.71 252.741Z" fill="white"/>
<path d="M236.02 213.91C231.38 199.32 217.5 158.79 211.27 148.97C211.117 148.735 210.936 148.52 210.73 148.33V148.27C210.83 145.14 181.78 135.04 181.78 135.04L179.28 135.97L173.98 134.53V105.3C173.977 101.696 172.549 98.2382 170.007 95.6828C167.464 93.1274 164.014 91.6813 160.41 91.6602C156.812 91.6918 153.372 93.1425 150.839 95.6968C148.305 98.2511 146.882 101.702 146.88 105.3V134.53L141.18 136.07L138.48 135.07C138.48 135.07 108.84 144.07 107.84 148.61C107.735 148.734 107.638 148.864 107.55 149C101.32 158.82 87.4398 199.35 82.7998 213.94C81.7098 217.38 99.9098 224.09 110.38 225.49C110.9 245.13 111.28 263.83 111.53 275.32L112 275.52C112.178 275.61 112.362 275.69 112.55 275.76C127.626 282.312 143.892 285.682 160.33 285.66C176.234 285.682 191.982 282.527 206.65 276.38H206.76L207.24 276.18C207.5 264.78 207.92 245.66 208.42 225.53C218.93 224.05 237.11 217.35 236.02 213.91Z" fill="white"/>
<path d="M243.67 252.76L243.53 252.14C242.96 249.47 242.38 246.87 241.79 244.4C241.4 242.76 240.95 240.78 240.43 238.51C239.1 232.7 237.32 224.95 235.19 216.38C236.19 215.5 236.72 214.61 236.46 213.77C234.3 206.99 229.84 193.7 225.1 180.71C222.72 174.15 220.26 167.71 217.99 162.16C216.223 157.541 214.111 153.062 211.67 148.76C211.536 148.544 211.378 148.342 211.2 148.16C210.52 144.83 188.71 137 181.95 134.66C181.847 134.62 181.733 134.62 181.63 134.66L179.28 135.53L175.28 134.46L174.43 134.23V105.3C174.425 101.604 172.973 98.0572 170.384 95.4196C167.795 92.7819 164.275 91.2637 160.58 91.1904H160.27C156.573 91.2611 153.051 92.7782 150.459 95.4161C147.868 98.0541 146.414 101.603 146.41 105.3V134.17L145.56 134.4L141.2 135.58L138.65 134.58C138.548 134.551 138.441 134.551 138.34 134.58C133.34 136.1 108.91 143.7 107.39 148.36C107.32 148.46 107.24 148.56 107.17 148.67C100.87 158.6 86.7897 199.83 82.3697 213.67C81.9897 214.88 83.2597 216.2 85.1997 217.44C83.1997 225.54 81.5197 232.86 80.2497 238.44C79.7297 240.71 79.2497 242.69 78.8897 244.34L78.3597 246.7C77.9597 248.44 77.5697 250.23 77.1797 252.05C77.4397 252.31 77.7097 252.57 77.9897 252.82L79.8297 244.55C80.2097 242.9 80.6697 240.92 81.1897 238.65C82.4497 233.18 84.0997 225.97 86.0697 217.99C88.9995 219.576 92.0568 220.914 95.2097 221.99C99.936 223.707 104.805 225.002 109.76 225.86C107.76 232.29 105.95 238.53 104.28 244.37L102.02 251.17C101.61 252.45 101.16 253.83 100.7 255.29L100.64 255.46C99.4797 259.09 98.2097 263.19 96.8997 267.46L97.7197 267.98C99.0797 263.54 100.39 259.32 101.58 255.59L105.22 244.59C106.71 239.38 108.34 233.85 110.06 228.15C110.48 244.33 110.8 259.7 111.06 270.82C111.06 272.31 111.12 273.72 111.15 275.03L111.63 275.25L112.1 275.45C112.1 274.01 112.03 272.45 112 270.8C111.82 262.42 111.59 251.64 111.31 239.92C111.2 235.38 111.09 230.69 110.96 225.92C110.96 225.77 110.96 225.61 110.96 225.46V225.31C110.98 225.208 111.011 225.107 111.05 225.01H110.95C110.88 222.43 110.81 219.82 110.74 217.22V216.96V216.11C110.52 207.96 110.26 199.82 109.99 192.11C109.99 191.68 109.99 191.26 109.99 190.84C109.99 190.778 109.977 190.716 109.952 190.658C109.927 190.601 109.89 190.55 109.844 190.507C109.798 190.465 109.744 190.433 109.684 190.412C109.625 190.392 109.562 190.385 109.5 190.39C109.438 190.392 109.378 190.405 109.322 190.43C109.266 190.455 109.216 190.491 109.174 190.536C109.132 190.58 109.099 190.633 109.078 190.691C109.057 190.748 109.047 190.809 109.05 190.87C109.05 191.8 109.12 192.74 109.15 193.68C108.778 194.438 108.467 195.224 108.22 196.03C105.87 204.97 108.69 218.13 97.8697 220.96C97.2397 221.07 96.5997 221.15 95.9597 221.23L95.6897 221.14C92.5002 220.076 89.4168 218.717 86.4797 217.08C86.1697 216.9 85.8897 216.72 85.6297 216.55C83.9997 215.47 83.2697 214.55 83.4497 214.03C87.7197 200.59 101.06 161.55 107.55 150.19C107.6 151.72 107.69 154.42 107.84 158.44C107.847 158.562 107.901 158.677 107.99 158.761C108.08 158.844 108.197 158.891 108.32 158.89C108.445 158.885 108.564 158.831 108.65 158.739C108.736 158.648 108.782 158.526 108.78 158.4C108.57 152.57 108.47 149.4 108.47 148.79C108.47 148.18 108.97 147.7 109.86 147.03C114.37 143.66 128.86 138.49 138.65 135.52L159.78 143.57C159.886 143.61 160.003 143.61 160.11 143.57L181.94 135.52C196.32 140.52 206.01 144.82 209.24 147.02C210.02 147.56 210.42 147.96 210.41 148.23V148.51L210.04 160.13C210.038 160.192 210.049 160.254 210.072 160.311C210.094 160.369 210.128 160.421 210.17 160.466C210.213 160.51 210.264 160.546 210.321 160.571C210.377 160.596 210.438 160.609 210.5 160.61C210.623 160.61 210.741 160.562 210.829 160.476C210.916 160.39 210.967 160.273 210.97 160.15L211.3 149.67C211.74 150.39 212.21 151.24 212.7 152.22C214.03 154.83 215.56 158.3 217.2 162.28C217.2 162.37 217.27 162.47 217.32 162.56C219.56 168.04 222 174.46 224.32 180.97C226.64 187.48 229.06 194.23 231.05 200.09C232.99 205.77 234.61 210.68 235.67 214.02C235.78 214.35 235.57 214.79 235.05 215.31C234.794 215.56 234.523 215.794 234.24 216.01C232.596 217.169 230.832 218.148 228.98 218.93C222.9 219.39 217.63 218.04 215.4 212.48C213.759 208.106 211.863 203.832 209.72 199.68C209.8 196.687 209.886 193.747 209.98 190.86C209.981 190.799 209.97 190.737 209.948 190.68C209.925 190.622 209.892 190.57 209.849 190.525C209.806 190.481 209.755 190.445 209.699 190.42C209.642 190.395 209.581 190.382 209.52 190.38C209.459 190.379 209.399 190.39 209.343 190.412C209.287 190.433 209.235 190.466 209.191 190.508C209.148 190.55 209.113 190.6 209.089 190.655C209.064 190.71 209.051 190.77 209.05 190.83C208.983 193.184 208.913 195.57 208.84 197.99C208.59 206.8 208.35 215.99 208.12 224.99C208.12 225.3 208.12 225.61 208.12 225.92C207.8 238.66 207.52 251 207.28 261.34C207.28 262.34 207.28 263.34 207.21 264.34C207.21 264.62 207.21 264.9 207.21 265.17C207.12 269.33 207.03 273.07 206.96 276.22L207.44 276.02C207.6 275.95 207.76 275.89 207.91 275.81C208 271.81 208.11 266.86 208.24 261.34C208.48 250.95 208.77 238.56 209.08 225.77C209.41 225.77 209.75 225.67 210.08 225.61C212.08 232.19 213.99 238.61 215.69 244.56L219.21 255.12C220.42 258.94 221.77 263.3 223.21 267.87C223.49 267.71 223.76 267.54 224.03 267.36C222.65 262.86 221.32 258.58 220.13 254.82L220.03 254.51C219.13 251.71 218.32 249.22 217.63 247.16L216.63 244.28C214.94 238.34 213.05 231.99 211.06 225.45C215.396 224.599 219.664 223.433 223.83 221.96C226.57 220.96 231.68 219.02 234.57 216.96C236.65 225.35 238.39 232.96 239.7 238.65C240.08 240.32 240.43 241.84 240.7 243.18C240.8 243.52 240.89 243.86 240.98 244.18C240.98 244.29 241.04 244.4 241.06 244.5L242.89 252.64V252.79V252.87C242.903 252.931 242.928 252.988 242.963 253.039C242.998 253.09 243.043 253.133 243.095 253.167C243.147 253.2 243.205 253.223 243.266 253.234C243.327 253.245 243.389 253.244 243.45 253.23C243.528 253.182 243.591 253.112 243.63 253.029C243.67 252.945 243.683 252.852 243.67 252.76ZM159.8 142.65L142.74 136.15L145.85 135.31L147.04 134.99C147.14 134.962 147.229 134.902 147.292 134.819C147.355 134.736 147.389 134.635 147.39 134.53V105.3C147.395 101.826 148.77 98.4946 151.217 96.0287C153.665 93.5629 156.986 92.162 160.46 92.1304C163.933 92.1621 167.253 93.5632 169.698 96.0294C172.144 98.4955 173.517 101.827 173.52 105.3V134.53C173.52 134.635 173.555 134.736 173.618 134.819C173.681 134.902 173.769 134.962 173.87 134.99L175.06 135.31L177.74 136.03L159.8 142.65Z" fill="#0F265C"/>
<path d="M160.5 285.63C226.774 285.63 280.5 231.904 280.5 165.63C280.5 99.3557 226.774 45.6299 160.5 45.6299C94.2258 45.6299 40.5 99.3557 40.5 165.63C40.5 231.904 94.2258 285.63 160.5 285.63Z" stroke="#DEE3ED" stroke-miterlimit="10"/>
<path d="M144.12 97.7705C137.89 97.7705 131.76 93.6205 128.78 86.4905C126.16 80.2105 134.24 73.0005 142.87 83.6605C146.79 88.5105 150.35 97.7705 144.12 97.7705Z" fill="white"/>
<path d="M144.12 98.2407C137.48 98.2407 131.29 93.7007 128.35 86.6707C127.711 85.2566 127.61 83.6583 128.064 82.1747C128.519 80.6911 129.499 79.4241 130.82 78.6107C133.61 76.9407 138.34 77.3207 143.23 83.3707C145.91 86.6807 149.13 93.1007 147.56 96.3707C147.244 96.9943 146.745 97.507 146.131 97.841C145.517 98.175 144.815 98.3143 144.12 98.2407ZM134.01 78.7007C133.058 78.6896 132.121 78.9385 131.3 79.4207C130.176 80.1185 129.345 81.2019 128.962 82.4683C128.579 83.7346 128.671 85.0971 129.22 86.3007C132.01 92.9907 137.86 97.3007 144.12 97.3007C144.635 97.3707 145.159 97.2818 145.622 97.0459C146.084 96.81 146.464 96.4384 146.71 95.9807C147.92 93.4607 145.46 87.6207 142.5 83.9807C139.41 80.0907 136.41 78.7007 134.01 78.7007Z" fill="#0F265C"/>
<path d="M176.51 97.6304C182.74 97.6304 188.87 93.4704 191.84 86.3404C194.47 80.0704 186.38 72.8604 177.76 83.5204C173.84 88.3704 170.27 97.6304 176.51 97.6304Z" fill="white"/>
<path d="M176.51 98.1005C175.814 98.1771 175.112 98.0402 174.495 97.708C173.879 97.3757 173.379 96.8639 173.06 96.2405C171.5 92.9505 174.72 86.5305 177.4 83.2405C182.29 77.2405 187.02 76.8205 189.81 78.4905C191.117 79.302 192.087 80.5586 192.541 82.0286C192.995 83.4987 192.902 85.0833 192.28 86.4905C189.34 93.5605 183.15 98.1005 176.51 98.1005ZM186.62 78.5505C184.26 78.5505 181.26 79.9405 178.13 83.8205C175.13 87.4805 172.71 93.3105 173.91 95.8205C174.159 96.278 174.541 96.6492 175.005 96.8849C175.469 97.1206 175.994 97.2098 176.51 97.1405C182.77 97.1405 188.62 92.8205 191.41 86.1405C191.96 84.9354 192.052 83.5713 191.669 82.3033C191.286 81.0353 190.455 79.9501 189.33 79.2505C188.507 78.7753 187.57 78.5333 186.62 78.5505Z" fill="#0F265C"/>
<path d="M182.411 97.7699C182.411 108.42 174.411 117.06 163.411 117.06H157.561C146.561 117.06 138.561 108.42 138.561 97.7699L137.561 75.2C137.561 64.55 146.501 55.9199 157.561 55.9199H163.411C174.411 55.9199 183.411 64.55 183.411 75.2L182.411 97.7699Z" fill="white"/>
<path d="M163.41 117.53H157.56C146.46 117.53 138.1 109.03 138.1 97.7701L137.1 75.2202C137.1 64.3102 146.27 55.4502 157.54 55.4502H163.41C174.68 55.4502 183.84 64.3102 183.84 75.2002L182.84 97.7802C182.84 109.04 174.47 117.53 163.41 117.53ZM157.56 56.3902C146.81 56.3902 138.06 64.8302 138.06 75.2002L139.06 97.7502C139.06 108.5 147.06 116.58 157.58 116.58H163.41C173.97 116.58 181.93 108.5 181.93 97.7701L182.93 75.2002C182.93 64.8502 174.19 56.4102 163.44 56.4102L157.56 56.3902Z" fill="#0F265C"/>
<path d="M149.1 79.4307C148.1 79.4307 147.65 80.7607 147.65 82.0707C147.65 83.3807 148.14 84.7007 149.1 84.7007C150.06 84.7007 150.55 83.3807 150.55 82.0707C150.55 80.7607 150.05 79.4307 149.1 79.4307Z" fill="#0F265C"/>
<path d="M171.18 79.4307C170.18 79.4307 169.73 80.7607 169.73 82.0707C169.73 83.3807 170.23 84.7007 171.18 84.7007C172.13 84.7007 172.63 83.3807 172.63 82.0707C172.63 80.7607 172.13 79.4307 171.18 79.4307Z" fill="#0F265C"/>
<path d="M183.72 60.4203C182.38 58.4612 180.549 56.8886 178.41 55.8603C177.58 55.0203 176.69 54.2603 175.75 53.4603C174.183 52.0149 173.009 50.1945 172.34 48.1703C171.89 47.0203 171.56 45.9403 171.24 44.8903C170.4 42.0803 169.6 39.4403 166.64 36.9703C163.97 34.7503 157.64 32.3503 152.14 35.4103C148.55 37.4103 147.63 39.7203 147.4 40.7503C145.867 40.5468 144.307 40.7129 142.851 41.2348C141.395 41.7567 140.085 42.6192 139.03 43.7503C136.65 46.1903 134.84 51.1203 137.54 56.9903C137.777 57.4907 138.041 57.978 138.33 58.4503C137.127 59.4754 136.245 60.8261 135.79 62.3403C134.16 67.5903 135.14 72.5503 136.1 77.3403C136.68 79.9382 137.068 82.5754 137.26 85.2303C137.52 90.7703 137.79 96.5003 138.56 102.39C140.05 113.8 148.85 122.08 159.48 122.08H161.41C172.04 122.08 180.84 113.8 182.33 102.4L182.57 100.82C183.293 96.9625 183.711 93.0537 183.82 89.1303C183.935 86.0706 184.289 83.0246 184.88 80.0203C186.03 73.0803 187.24 65.8603 183.72 60.4203ZM150.48 65.3303C156.58 65.7903 161.16 63.8303 166.48 61.2403C168.48 60.3003 170.68 59.3403 172.93 59.5503C173.45 59.9566 173.944 60.3941 174.41 60.8603C180.05 66.6503 182.28 77.5703 180.84 92.4203C180.35 97.3203 173.64 99.1003 172.47 99.3703C168.775 97.4166 164.65 96.4163 160.47 96.4603C156.291 96.4205 152.167 97.4206 148.47 99.3703C147.31 99.1003 140.59 97.3703 140.11 92.4203C138.87 79.5803 140.26 69.9803 144.24 63.7803C146.211 64.665 148.324 65.1899 150.48 65.3303Z" fill="#0F265C"/>
<path d="M185.96 77.0598C185.908 76.8403 185.778 76.6472 185.594 76.5166C185.41 76.386 185.185 76.3267 184.96 76.3498C182.488 76.5709 180.002 76.5709 177.53 76.3498C177.477 76.3445 177.423 76.3445 177.37 76.3498C175.797 75.9908 174.182 75.8495 172.57 75.9298C170.551 75.8466 168.53 76.0555 166.57 76.5498L165.29 76.8898C163.625 77.4302 161.89 77.7233 160.14 77.7598C158.432 77.7437 156.74 77.4289 155.14 76.8298C153.932 76.3608 152.655 76.0972 151.36 76.0498C150.29 75.9498 149.15 75.9198 147.99 75.9198C146.364 75.8347 144.734 75.9829 143.15 76.3598C140.678 76.5753 138.192 76.5753 135.72 76.3598C135.495 76.3345 135.269 76.3929 135.085 76.5238C134.9 76.6548 134.77 76.8492 134.72 77.0698C134.678 77.2905 134.711 77.5191 134.814 77.7187C134.918 77.9182 135.085 78.0772 135.29 78.1698C136.41 78.6098 139.21 80.1698 139.41 82.0898C139.41 82.3698 139.41 82.5498 139.41 82.5698C139.41 82.8798 139.41 83.1898 139.41 83.5698C139.41 88.1998 142.79 91.1898 148.02 91.1898C153.25 91.1898 156.36 88.6998 157.52 83.7798C157.6 83.4298 157.66 83.0798 157.71 82.7798C157.86 82.2498 159.12 81.6098 160.54 81.5898C161 81.5898 162.54 81.6498 162.91 82.8098C162.91 82.8698 162.97 82.9198 162.99 82.9698C162.99 83.2398 163.09 83.5198 163.16 83.8098C164.32 88.7298 167.52 91.2198 172.66 91.2198C177.8 91.2198 181.27 88.2198 181.27 83.5998C181.27 83.3698 181.27 83.1698 181.27 82.9498C181.325 82.8402 181.359 82.7216 181.37 82.5998C181.386 82.4368 181.386 82.2728 181.37 82.1098C181.58 80.1698 184.37 78.6398 185.5 78.1898C185.7 78.0885 185.857 77.9184 185.941 77.7107C186.026 77.5031 186.033 77.272 185.96 77.0598ZM147.96 89.3098C143.74 89.3098 141.23 87.1598 141.23 83.5698C141.23 83.2198 141.23 82.8898 141.23 82.5698V82.4998C141.253 81.7837 141.357 81.0725 141.54 80.3798C141.54 80.2898 141.6 80.1898 141.64 80.0998C142.091 79.2678 142.762 78.5759 143.58 78.0998C145.007 77.783 146.471 77.6685 147.93 77.7598C148.93 77.7598 150.07 77.7598 151.21 77.8698C152.6 78.1898 154.75 78.8698 155.32 79.5798C155.616 80.145 155.793 80.7647 155.842 81.4009C155.89 82.0371 155.808 82.6764 155.6 83.2798C154.64 87.4098 152.2 89.3098 147.93 89.3098H147.96ZM172.6 89.3098C168.33 89.3098 165.89 87.4198 164.93 83.3098C164.52 81.5698 164.65 80.3098 165.3 79.4398L165.37 79.3798C166.904 78.6276 168.548 78.1246 170.24 77.8898C170.31 77.8754 170.377 77.8519 170.44 77.8198C171.2 77.8198 171.95 77.8198 172.6 77.8198C174.186 77.6839 175.784 77.8467 177.31 78.2998C177.766 78.5997 178.18 78.9596 178.54 79.3698C179.181 80.6681 179.454 82.1172 179.33 83.5598C179.3 87.1598 176.78 89.3098 172.57 89.3098H172.6Z" fill="#FFDD00"/>
<path d="M158.351 82.6104C158.351 82.6104 153.301 89.0104 152.981 90.1104C152.661 91.2104 162.081 94.3604 162.081 94.3604L158.351 82.6104Z" fill="white"/>
<path d="M162.08 94.8599C162.031 94.8696 161.98 94.8696 161.93 94.8599C152.07 91.5599 152.4 90.4399 152.53 90.0199C152.86 88.8899 157.13 83.4499 157.99 82.3699C158.027 82.3202 158.074 82.2785 158.128 82.2474C158.182 82.2162 158.241 82.1964 158.303 82.1889C158.365 82.1814 158.427 82.1865 158.487 82.2039C158.547 82.2213 158.602 82.2505 158.65 82.2899C158.747 82.3682 158.809 82.4817 158.822 82.6054C158.835 82.7292 158.798 82.8531 158.72 82.9499C156.831 85.2614 155.075 87.6787 153.46 90.1899C154.02 90.8999 158.37 92.6799 162.23 93.9699C162.288 93.989 162.342 94.0196 162.388 94.0598C162.435 94.1 162.472 94.149 162.499 94.204C162.526 94.2589 162.542 94.3187 162.546 94.3798C162.549 94.4409 162.541 94.5022 162.52 94.5599C162.487 94.6494 162.427 94.7263 162.348 94.7801C162.269 94.8338 162.176 94.8617 162.08 94.8599Z" fill="#0F265C"/>
<path d="M145.92 73.8607C145.685 73.8483 145.462 73.7532 145.29 73.5922C145.118 73.4312 145.008 73.2146 144.98 72.9807C144.979 72.7351 145.067 72.4973 145.23 72.3129C145.392 72.1285 145.617 72.0102 145.86 71.9807L152.92 71.5108C153.166 71.509 153.404 71.5977 153.588 71.76C153.773 71.9223 153.891 72.1469 153.92 72.3908C153.922 72.6365 153.834 72.8742 153.671 73.0586C153.509 73.2431 153.284 73.3613 153.04 73.3908L146.04 73.8607H145.92Z" fill="#0F265C"/>
<path d="M173.72 73.8607H173.66L166.61 73.3908C166.367 73.3613 166.142 73.2431 165.98 73.0586C165.817 72.8742 165.729 72.6365 165.73 72.3908C165.76 72.1469 165.878 71.9223 166.063 71.76C166.247 71.5977 166.485 71.509 166.73 71.5108L173.79 71.9807C174.038 71.9987 174.269 72.1139 174.432 72.3013C174.595 72.4887 174.677 72.7329 174.66 72.9807C174.648 73.2204 174.543 73.4457 174.367 73.6097C174.192 73.7737 173.96 73.8637 173.72 73.8607Z" fill="#0F265C"/>
<path d="M157.03 106.951C156.257 106.296 155.773 105.363 155.683 104.354C155.593 103.345 155.905 102.342 156.55 101.561C157.1 100.711 157.966 100.115 158.956 99.903C159.946 99.6911 160.98 99.8809 161.83 100.431C162.604 101.082 163.089 102.013 163.181 103.02C163.273 104.027 162.963 105.03 162.32 105.811C161.765 106.658 160.899 107.253 159.909 107.467C158.919 107.68 157.884 107.495 157.03 106.951ZM161.28 101.181C160.956 100.979 160.595 100.843 160.218 100.782C159.841 100.72 159.456 100.733 159.085 100.82C158.713 100.907 158.362 101.067 158.053 101.29C157.743 101.514 157.48 101.796 157.28 102.121C156.782 102.701 156.534 103.453 156.588 104.215C156.642 104.977 156.995 105.687 157.57 106.191C158.224 106.596 159.012 106.726 159.762 106.552C160.512 106.377 161.162 105.913 161.57 105.261C162.065 104.678 162.313 103.924 162.259 103.161C162.204 102.398 161.853 101.687 161.28 101.181Z" fill="white"/>
<path d="M80.6233 59.1722C64.5609 63.2365 54.8515 79.548 58.9365 95.605C63.0216 111.662 79.3542 121.384 95.4166 117.32C111.479 113.256 121.188 96.9441 117.103 80.8871C113.018 64.83 96.6856 55.1079 80.6233 59.1722Z" fill="white" stroke="#CFD4DE" stroke-width="1.5" stroke-linecap="round" stroke-linejoin="round"/>
<path d="M111.996 124.436C114.564 125.454 117.466 124.196 118.478 121.627C119.491 119.057 118.23 116.15 115.663 115.133C113.096 114.116 110.194 115.374 109.181 117.943C108.169 120.512 109.429 123.419 111.996 124.436Z" fill="white" stroke="#CFD4DE" stroke-width="1.5" stroke-linecap="round" stroke-linejoin="round"/>
<path d="M120.635 130.806C121.919 131.315 123.37 130.686 123.876 129.401C124.383 128.117 123.752 126.663 122.469 126.154C121.185 125.646 119.734 126.275 119.228 127.559C118.722 128.844 119.352 130.298 120.635 130.806Z" fill="white" stroke="#CFD4DE" stroke-width="1.5" stroke-linecap="round" stroke-linejoin="round"/>
<path d="M85.833 92.9606L89.1663 92.9606L89.1663 96.294L85.833 96.294L85.833 92.9606ZM85.833 79.6273L89.1663 79.6273L89.1663 89.6273L85.833 89.6273L85.833 79.6273ZM87.483 71.2939C78.283 71.2939 70.833 78.7606 70.833 87.9606C70.833 97.1606 78.283 104.627 87.483 104.627C96.6997 104.627 104.166 97.1606 104.166 87.9606C104.166 78.7606 96.6997 71.294 87.483 71.2939ZM87.4997 101.294C80.133 101.294 74.1663 95.3273 74.1663 87.9606C74.1663 80.5939 80.133 74.6273 87.4997 74.6273C94.8663 74.6273 100.833 80.594 100.833 87.9606C100.833 95.3273 94.8663 101.294 87.4997 101.294Z" fill="#0F265C"/>
</svg>
