<svg width="320" height="320" viewBox="0 0 320 320" fill="none" xmlns="http://www.w3.org/2000/svg">
<path d="M158.86 286.276C225.057 286.276 278.72 232.613 278.72 166.416C278.72 100.22 225.057 46.5564 158.86 46.5564C92.6631 46.5564 39 100.22 39 166.416C39 232.613 92.6631 286.276 158.86 286.276Z" fill="#F4F6F9"/>
<path d="M279.439 165.957C279.439 231.955 225.937 285.457 159.939 285.457C93.9414 285.457 40.4395 231.955 40.4395 165.957C40.4395 99.9585 93.9414 46.4565 159.939 46.4565C225.937 46.4565 279.439 99.9585 279.439 165.957Z" fill="#F4F6F9" stroke="#DEE3ED"/>
<path d="M93.6396 213.506L69.4795 179.557C68.9229 178.885 68.2265 178.343 67.439 177.968C66.6514 177.594 65.7917 177.395 64.9195 177.386L43.4996 178.057C43.1171 178.03 42.7347 178.11 42.3943 178.286C42.0539 178.462 41.7686 178.729 41.5696 179.057C41.5696 179.137 41.5196 179.216 41.4996 179.286C41.3888 179.403 41.2945 179.534 41.2196 179.677C41.085 179.997 41.0427 180.348 41.0975 180.691C41.1523 181.034 41.302 181.354 41.5296 181.616L65.6995 215.557C66.2367 216.218 66.9108 216.756 67.6756 217.132C68.4403 217.509 69.2775 217.715 70.1296 217.736H70.2496L91.6796 217.067C92.0607 217.093 92.4418 217.014 92.7807 216.838C93.1196 216.661 93.403 216.394 93.5995 216.067C93.6306 215.992 93.654 215.915 93.6696 215.836C93.7865 215.723 93.8844 215.591 93.9595 215.447C94.0928 215.126 94.1334 214.774 94.0768 214.431C94.0203 214.088 93.8688 213.768 93.6396 213.506Z" fill="#0F265C"/>
<path d="M47.0485 183.667C47.342 184.022 47.71 184.308 48.1265 184.505C48.543 184.702 48.9978 184.805 49.4585 184.807C50.3285 184.807 50.6485 184.227 50.1785 183.567C49.8851 183.211 49.517 182.925 49.1005 182.728C48.684 182.531 48.2293 182.428 47.7685 182.427C46.8985 182.447 46.5785 183.007 47.0485 183.667Z" fill="#F9FAFC"/>
<path d="M247.769 155.307C235.869 150.817 224.319 146.767 222.689 146.417C222.289 146.337 222.039 146.417 221.929 146.717C220.108 146.48 218.311 146.082 216.559 145.527L216.039 114.477C216.039 110.233 214.354 106.163 211.353 103.163C208.353 100.162 204.283 98.4766 200.039 98.4766C197.938 98.4766 195.858 98.8905 193.917 99.6946C191.975 100.499 190.211 101.677 188.726 103.163C187.24 104.649 186.061 106.412 185.257 108.354C184.453 110.295 184.039 112.375 184.039 114.477V145.787L182.919 146.217L181.869 146.627C181.819 146.548 181.747 146.485 181.662 146.446C181.577 146.407 181.482 146.394 181.389 146.407L181.159 146.507H181.079C177.819 147.997 151.199 160.907 150.349 163.637C150.349 163.717 150.229 163.887 150.099 164.137C149.285 165.696 148.58 167.31 147.989 168.967C147.199 170.967 146.099 173.617 144.829 176.667C143.559 179.717 142.099 183.157 140.599 186.667C134.599 200.777 127.849 216.777 126.229 222.337C126.15 222.743 126.158 223.162 126.253 223.566C126.347 223.969 126.527 224.348 126.779 224.677C127.961 226.267 129.393 227.655 131.019 228.787C129.569 234.517 128.759 238.277 127.899 243.257C127.309 243.017 126.689 242.797 126.039 242.577C123.919 241.897 121.789 241.257 119.529 240.577C110.529 237.877 100.229 234.817 86.0095 226.917C86.0095 223.057 84.6395 215.057 75.8295 201.847C75.7693 201.747 75.7413 201.632 75.7495 201.517L76.5095 193.317C76.5095 193.077 77.2195 187.317 75.6795 184.467C75.5401 184.208 75.3268 183.996 75.0668 183.859C74.8068 183.722 74.5118 183.665 74.2195 183.697C73.9219 183.728 73.6401 183.847 73.409 184.037C73.178 184.227 73.0078 184.481 72.9195 184.767L68.4995 199.327C68.248 196.508 68.3826 193.669 68.8995 190.887C69.2711 188.997 69.3688 187.064 69.1895 185.147C68.9595 183.727 68.5295 182.907 67.8595 182.637C67.5828 182.546 67.2867 182.533 67.003 182.598C66.7193 182.663 66.4588 182.804 66.2495 183.007C65.836 183.332 65.4954 183.741 65.2495 184.207C62.7715 189.079 61.2315 194.375 60.7095 199.817C59.4695 197.967 59.1695 193.967 59.3395 190.457C59.3395 189.897 59.3395 189.337 59.3395 188.777C59.2895 180.367 58.0195 180.157 57.5395 180.077C56.8095 179.957 55.9195 180.467 54.3695 184.947C51.4295 193.457 51.5195 205.417 51.8295 211.777C52.2104 217.338 54.0941 222.692 57.2795 227.267C57.298 227.324 57.3249 227.378 57.3595 227.427C57.4695 227.587 57.5895 227.747 57.7095 227.897V227.967C65.2795 238.047 77.2095 244.967 77.3195 244.967L122.319 271.837C126.949 274.907 131.319 276.447 135.319 276.447C136.602 276.451 137.88 276.286 139.119 275.957C143.238 274.728 146.702 271.916 148.749 268.137C152.625 260.315 155.859 252.192 158.419 243.847C159.165 257.721 158.238 271.634 155.659 285.287C155.659 285.457 155.589 285.617 155.559 285.787C155.54 285.878 155.548 285.973 155.581 286.06C155.615 286.147 155.674 286.222 155.749 286.277H156.329C156.438 286.205 156.513 286.094 156.539 285.967C156.539 285.907 156.539 285.837 156.539 285.777C161.539 261.027 160.429 231.997 153.309 199.477C153.289 199.378 153.241 199.288 153.169 199.217L150.979 197.137C150.933 197.09 150.878 197.052 150.817 197.027C150.756 197.002 150.69 196.989 150.624 196.989C150.558 196.989 150.493 197.002 150.432 197.027C150.371 197.052 150.316 197.09 150.269 197.137C150.223 197.183 150.185 197.238 150.16 197.299C150.135 197.36 150.122 197.426 150.122 197.492C150.122 197.558 150.135 197.623 150.16 197.684C150.185 197.745 150.223 197.8 150.269 197.847L152.349 199.847C155.344 213.27 157.299 226.903 158.199 240.627C150.759 239.237 138.539 233.297 131.799 228.277C131.767 228.241 131.73 228.211 131.689 228.187C130.08 227.096 128.664 225.744 127.499 224.187C127.329 223.973 127.202 223.728 127.127 223.466C127.051 223.203 127.028 222.928 127.059 222.657C128.669 217.157 135.429 201.187 141.389 187.097C144.389 180.017 147.209 173.337 148.789 169.357C149.363 167.733 150.052 166.152 150.849 164.627C151.129 164.087 151.179 163.977 151.169 163.877C151.969 162.017 173.899 151.047 180.349 147.877C179.869 151.537 182.169 160.957 183.349 165.397C183.366 165.466 183.397 165.531 183.442 165.587C183.488 165.642 183.545 165.686 183.609 165.717C183.674 165.744 183.744 165.758 183.814 165.758C183.885 165.758 183.955 165.744 184.019 165.717C195.259 161.117 220.909 150.407 222.849 147.417C228.669 148.957 267.349 163.327 269.389 165.537C269.209 167.537 266.809 196.657 263.949 223.737C263.899 224.167 263.849 224.597 263.809 225.017L264.389 224.017C264.609 223.617 264.839 223.207 265.049 222.807C265.109 222.357 265.149 221.907 265.199 221.457L265.349 220.077C268.479 190.077 270.349 166.297 270.349 165.517C270.589 165.007 270.649 163.947 247.769 155.307ZM181.429 147.937L181.919 147.737C182.919 147.337 182.919 147.337 183.309 147.187L184.759 146.627C184.853 146.591 184.933 146.528 184.99 146.446C185.047 146.364 185.078 146.266 185.079 146.167V114.507C185.079 110.528 186.66 106.713 189.473 103.9C192.286 101.087 196.101 99.5066 200.079 99.5066C204.058 99.5066 207.873 101.087 210.686 103.9C213.499 106.713 215.079 110.528 215.079 114.507L215.599 145.937C215.6 146.044 215.635 146.147 215.7 146.232C215.765 146.317 215.856 146.378 215.959 146.407C217.79 147.002 219.671 147.43 221.579 147.687C217.799 150.507 197.629 159.237 184.379 164.687C182.519 157.677 181.059 150.007 181.429 147.937ZM147.959 267.747C146.02 271.257 142.793 273.878 138.959 275.057C134.259 276.307 128.899 274.967 122.959 271.057L77.9595 244.157C77.8395 244.097 66.0295 237.277 58.5895 227.327C55.2566 222.776 53.2835 217.374 52.8995 211.747C52.5895 205.457 52.4995 193.647 55.3895 185.287C56.7395 181.357 57.3895 181.107 57.3895 181.077C57.7695 181.287 58.3395 183.507 58.3895 188.797C58.3895 189.347 58.3895 189.887 58.3895 190.427C58.2595 193.057 58.2395 199.167 60.6395 201.197C60.5423 202.367 60.519 203.543 60.5695 204.717C60.5771 204.841 60.6321 204.958 60.7232 205.044C60.8142 205.129 60.9345 205.177 61.0595 205.177C61.1248 205.173 61.1886 205.156 61.2473 205.127C61.306 205.098 61.3584 205.058 61.4012 205.009C61.4441 204.959 61.4766 204.902 61.4969 204.84C61.5172 204.777 61.5249 204.712 61.5195 204.647C61.4813 203.546 61.5047 202.444 61.5895 201.347C61.6361 201.268 61.6607 201.178 61.6607 201.087C61.6607 200.995 61.6361 200.905 61.5895 200.827C62.0218 195.216 63.5543 189.745 66.0995 184.727C66.266 184.389 66.505 184.092 66.7995 183.857C66.9495 183.737 67.2395 183.557 67.4195 183.627C67.5995 183.697 67.8995 183.927 68.1295 185.367C68.2917 187.184 68.1941 189.016 67.8395 190.807C67.1818 194.294 67.1615 197.872 67.7795 201.367C67.7894 201.433 67.817 201.495 67.8595 201.547L67.2995 203.387C67.2619 203.513 67.2755 203.648 67.3373 203.764C67.399 203.88 67.504 203.967 67.6295 204.007C67.7568 204.044 67.8938 204.031 68.0115 203.969C68.1291 203.908 68.2181 203.803 68.2595 203.677L73.8695 185.197C73.8988 185.1 73.9563 185.014 74.0347 184.95C74.113 184.885 74.2087 184.846 74.3095 184.837C74.4056 184.822 74.5039 184.839 74.5901 184.884C74.6764 184.928 74.7462 184.999 74.7895 185.087C76.1795 187.617 75.5195 193.277 75.5095 193.347L74.7395 201.567C74.7046 201.919 74.793 202.272 74.9895 202.567C83.8395 215.857 85.0395 223.757 84.9895 227.297C84.9999 228.043 84.9023 228.788 84.6995 229.507C84.6753 229.567 84.6634 229.632 84.6644 229.697C84.6654 229.762 84.6793 229.826 84.7054 229.885C84.7315 229.945 84.7691 229.999 84.8162 230.043C84.8632 230.088 84.9187 230.123 84.9795 230.147C85.0386 230.161 85.1003 230.161 85.1595 230.147C85.2607 230.146 85.3595 230.115 85.4432 230.058C85.5269 230.001 85.5917 229.921 85.6295 229.827C85.8109 229.276 85.9218 228.705 85.9595 228.127C100.049 235.907 110.249 238.947 119.259 241.637C121.509 242.307 123.629 242.937 125.739 243.637C135.959 246.957 136.839 253.387 136.839 253.457C136.856 253.578 136.916 253.689 137.008 253.77C137.1 253.85 137.217 253.895 137.339 253.897H137.399C137.531 253.882 137.65 253.815 137.733 253.712C137.815 253.609 137.854 253.478 137.839 253.347C137.839 253.077 137.079 247.447 128.839 243.767C129.679 238.817 130.479 235.097 131.839 229.547C138.839 234.547 150.769 240.337 158.099 241.717C155.448 250.66 152.057 259.367 147.959 267.747Z" fill="#0F265C"/>
<path d="M223.04 147.497C221.1 150.497 195.45 161.197 184.21 165.797C184.145 165.824 184.075 165.838 184.005 165.838C183.935 165.838 183.865 165.824 183.8 165.797C183.735 165.767 183.678 165.722 183.633 165.667C183.588 165.611 183.556 165.546 183.54 165.477C182.37 161.037 180.07 151.617 180.54 147.957C174.09 151.077 152.16 162.047 151.36 163.957C151.36 164.057 151.36 164.167 151.04 164.707C150.242 166.232 149.554 167.813 148.98 169.437C147.4 173.437 144.57 180.097 141.58 187.177C135.58 201.267 128.86 217.237 127.25 222.737C127.219 223.008 127.241 223.283 127.317 223.546C127.392 223.808 127.519 224.053 127.69 224.267C128.854 225.824 130.27 227.176 131.88 228.267C131.921 228.291 131.958 228.321 131.99 228.357C138.73 233.357 150.99 239.357 158.39 240.707C157.49 226.983 155.534 213.35 152.54 199.927L150.46 197.927C150.413 197.88 150.376 197.825 150.35 197.764C150.325 197.703 150.312 197.638 150.312 197.572C150.312 197.506 150.325 197.44 150.35 197.379C150.376 197.318 150.413 197.263 150.46 197.217C150.506 197.17 150.562 197.133 150.623 197.107C150.684 197.082 150.749 197.069 150.815 197.069C150.881 197.069 150.946 197.082 151.007 197.107C151.068 197.133 151.123 197.17 151.17 197.217L153.36 199.297C153.431 199.368 153.48 199.458 153.5 199.557C160.62 232.077 161.7 261.107 156.73 285.857C157.53 285.857 158.33 285.857 159.14 285.857C180.596 285.863 201.659 280.108 220.13 269.191C238.6 258.274 253.8 242.596 264.14 223.797C267 196.717 269.4 167.557 269.58 165.597C267.54 163.407 228.9 149.037 223.04 147.497Z" fill="white"/>
<path d="M131.899 229.527C138.899 234.527 150.829 240.317 158.159 241.697C155.481 250.632 152.062 259.329 147.939 267.697C145.999 271.207 142.773 273.828 138.939 275.007C134.239 276.257 128.879 274.917 122.939 271.007L77.9392 244.107C77.8192 244.047 66.0092 237.227 58.5692 227.277C55.2364 222.726 53.2632 217.324 52.8792 211.697C52.5692 205.407 52.4792 193.597 55.3692 185.237C56.7192 181.307 57.3692 181.057 57.3692 181.027C57.7492 181.237 58.3192 183.457 58.3692 188.747C58.3692 189.297 58.3692 189.837 58.3692 190.377C58.2392 193.007 58.2192 199.117 60.6192 201.147C60.522 202.317 60.4987 203.493 60.5492 204.667C60.5568 204.791 60.6118 204.908 60.7029 204.994C60.794 205.079 60.9143 205.127 61.0392 205.127C61.1045 205.123 61.1684 205.106 61.2271 205.077C61.2858 205.048 61.3381 205.008 61.3809 204.959C61.4238 204.909 61.4564 204.852 61.4767 204.79C61.497 204.727 61.5047 204.662 61.4992 204.597C61.461 203.496 61.4844 202.394 61.5692 201.297C61.6159 201.218 61.6404 201.128 61.6404 201.037C61.6404 200.945 61.6159 200.855 61.5692 200.777C62.0016 195.166 63.534 189.695 66.0792 184.677C66.2457 184.339 66.4847 184.042 66.7792 183.807C66.9292 183.687 67.2192 183.507 67.3992 183.577C67.5792 183.647 67.8792 183.877 68.1092 185.317C68.2714 187.135 68.1738 188.966 67.8192 190.757C67.1616 194.244 67.1412 197.822 67.7592 201.317C67.7691 201.383 67.7968 201.445 67.8392 201.497L67.2792 203.337C67.2417 203.463 67.2553 203.598 67.317 203.714C67.3788 203.83 67.4837 203.917 67.6092 203.957C67.7365 203.994 67.8736 203.981 67.9912 203.92C68.1089 203.858 68.1978 203.753 68.2392 203.627L73.8492 185.147C73.8785 185.05 73.936 184.964 74.0144 184.9C74.0927 184.836 74.1884 184.796 74.2892 184.787C74.3854 184.772 74.4836 184.789 74.5699 184.833C74.6561 184.878 74.7259 184.95 74.7692 185.037C76.1592 187.567 75.4992 193.227 75.4892 193.297L74.7192 201.517C74.6844 201.869 74.7727 202.222 74.9692 202.517C83.8192 215.807 85.0192 223.707 84.9692 227.247C84.9797 227.993 84.882 228.738 84.6792 229.457C84.655 229.517 84.6431 229.581 84.6441 229.646C84.6451 229.711 84.6591 229.776 84.6851 229.835C84.7112 229.895 84.7488 229.949 84.7959 229.994C84.843 230.038 84.8985 230.073 84.9592 230.097C85.0184 230.111 85.08 230.111 85.1392 230.097C85.2405 230.096 85.3392 230.065 85.4229 230.008C85.5066 229.951 85.5715 229.871 85.6092 229.777C85.7907 229.226 85.9016 228.655 85.9392 228.077C100.029 235.857 110.229 238.897 119.239 241.587C121.489 242.257 123.609 242.887 125.719 243.587C135.939 246.907 136.819 253.337 136.819 253.407C136.836 253.528 136.896 253.639 136.987 253.719C137.079 253.8 137.197 253.845 137.319 253.847H137.379C137.51 253.831 137.63 253.765 137.712 253.662C137.795 253.559 137.833 253.428 137.819 253.297C137.819 253.027 137.059 247.397 128.819 243.717C129.719 238.797 130.519 235.077 131.899 229.527Z" fill="white"/>
<path d="M184.329 164.667C182.519 157.667 181.059 150.007 181.429 147.937L181.919 147.737C182.919 147.337 182.919 147.337 183.309 147.187L184.759 146.627C184.852 146.591 184.932 146.528 184.989 146.446C185.046 146.364 185.078 146.266 185.079 146.167V114.507C185.079 110.528 186.659 106.713 189.472 103.9C192.285 101.087 196.101 99.5066 200.079 99.5066C204.057 99.5066 207.872 101.087 210.685 103.9C213.498 106.713 215.079 110.528 215.079 114.507L215.599 145.937C215.599 146.044 215.635 146.147 215.7 146.232C215.765 146.317 215.856 146.378 215.959 146.407C217.79 147.002 219.671 147.43 221.579 147.687C217.749 150.517 197.579 159.247 184.329 164.667Z" fill="white"/>
<path d="M159.299 285.897C225.496 285.897 279.159 232.233 279.159 166.037C279.159 99.8397 225.496 46.1765 159.299 46.1765C93.1026 46.1765 39.4395 99.8397 39.4395 166.037C39.4395 232.233 93.1026 285.897 159.299 285.897Z" stroke="#DEE3ED" stroke-miterlimit="10"/>
<path d="M226.839 81.1165C227.069 77.5465 227.169 74.2365 227.129 71.2565C227.12 68.7481 226.587 66.2692 225.564 63.9788C224.541 61.6884 223.051 59.6371 221.189 57.9564C219.928 56.8666 218.486 56.0069 216.929 55.4165C216.719 55.0061 216.464 54.6204 216.169 54.2665C214.641 52.7756 212.824 51.6149 210.829 50.8565C210.039 50.4965 209.289 50.1465 208.599 49.7665L207.659 49.2565C206.477 48.6754 205.341 48.0069 204.259 47.2565C203.24 46.4313 202.299 45.5141 201.449 44.5165L200.759 43.7565C200.039 42.9596 199.371 42.1179 198.759 41.2365C198.389 40.7365 198.019 40.2365 197.629 39.7465C195.697 37.062 192.853 35.1741 189.629 34.4365C187.643 33.944 185.576 33.8673 183.56 34.2114C181.543 34.5556 179.619 35.3132 177.909 36.4365C173.909 39.1465 173.029 41.9264 172.839 43.0764C171.053 43.0272 169.28 43.3958 167.662 44.1527C166.044 44.9097 164.625 46.0342 163.519 47.4365C160.969 50.4365 159.159 56.2564 162.459 62.5864C163.239 64.2112 164.332 65.666 165.676 66.8672C167.019 68.0684 168.587 68.9925 170.289 69.5864C167.958 73.7619 166.736 78.4647 166.739 83.2465C166.739 86.0365 166.739 88.2465 166.799 90.4065C166.799 90.5165 166.919 102.066 167.539 114.146C168.079 124.826 172.329 131.146 180.539 133.636C182.696 134.257 184.933 134.56 187.179 134.537C192.104 134.396 196.979 133.509 201.639 131.907C207.829 129.907 213.639 124.257 217.369 117.437C217.479 118.607 217.599 119.737 217.699 120.797C217.705 120.88 217.733 120.96 217.781 121.028C217.828 121.097 217.893 121.151 217.969 121.187C218.08 121.243 218.204 121.27 218.329 121.266C218.514 121.265 218.697 121.217 218.859 121.126C220.419 120.356 221.949 116.126 223.279 109.016C223.989 105.226 224.609 101.446 225.129 97.7665C227.317 95.4398 228.891 92.6043 229.709 89.5165C230.195 87.9937 230.178 86.355 229.661 84.8424C229.144 83.3298 228.155 82.0235 226.839 81.1165Z" fill="#0F265C"/>
<path d="M167.71 83.1365C167.702 78.4491 168.927 73.842 171.26 69.7765C173.251 70.286 175.306 70.4983 177.36 70.4065C183.75 70.2165 188.57 67.8265 193.96 64.6265C195.933 65.3929 197.804 66.4005 199.53 67.6265C204.45 71.1065 209.22 78.2864 208.79 86.4764C208.794 86.5163 208.794 86.5566 208.79 86.5964C208.4 100.006 199.16 107.796 192.79 108.136C191.85 107.696 185.65 104.986 179.55 105.636C175.61 106.056 172.92 108.407 171.32 109.817C170.949 110.164 170.551 110.482 170.13 110.766C168.62 105.766 167.84 92.1065 167.76 90.4865C167.72 88.2765 167.7 85.9865 167.71 83.1365Z" fill="white"/>
<path d="M218.459 82.8865C217.289 85.8165 217.539 89.0165 217.809 92.3965C218.049 95.4965 218.299 98.6866 217.439 101.817C223.439 98.9666 227.079 94.9165 228.709 89.1465C229.117 87.8436 229.102 86.4449 228.665 85.1514C228.229 83.8578 227.393 82.7359 226.279 81.9466C224.029 80.4466 221.189 80.7865 218.459 82.8865Z" fill="white"/>
<path d="M187.82 110.076C187.825 110.05 187.825 110.023 187.82 109.996C187.83 109.954 187.83 109.909 187.82 109.866C187.825 109.843 187.825 109.819 187.82 109.796C187.824 109.756 187.824 109.716 187.82 109.676L187.75 109.606L187.68 109.536H187.58C187.547 109.527 187.513 109.527 187.48 109.536H187.26C183.445 110.445 179.53 110.858 175.61 110.766H175.51H175.41C175.324 110.795 175.248 110.845 175.186 110.912C175.125 110.978 175.082 111.059 175.06 111.146C175.054 111.179 175.054 111.213 175.06 111.246C175.06 111.246 175.06 111.246 175.06 111.326C175.05 111.369 175.05 111.413 175.06 111.456C175.076 111.498 175.096 111.538 175.12 111.576V111.636C175.22 111.766 177.66 114.636 181.12 114.636H181.36C183.7 114.536 185.87 113.106 187.82 110.376C187.818 110.34 187.818 110.303 187.82 110.266V110.076ZM181.23 113.446H181.03C179.5 113.375 178.041 112.786 176.89 111.776C179.914 111.715 182.926 111.38 185.89 110.776C185.34 111.519 184.642 112.14 183.84 112.599C183.038 113.059 182.149 113.347 181.23 113.446Z" fill="white"/>
<path d="M168.33 80.8165C168.213 80.818 168.099 80.7774 168.009 80.7022C167.919 80.627 167.859 80.5221 167.84 80.4064C167.817 80.2765 167.845 80.1427 167.92 80.034C167.995 79.9254 168.11 79.8507 168.24 79.8264L171.24 79.2965C171.37 79.2757 171.502 79.3057 171.61 79.3802C171.718 79.4547 171.793 79.568 171.82 79.6965C171.831 79.7615 171.83 79.8281 171.815 79.8925C171.801 79.957 171.774 80.0179 171.736 80.0718C171.698 80.1258 171.649 80.1716 171.593 80.2067C171.537 80.2418 171.475 80.2656 171.41 80.2764L168.41 80.8165H168.33Z" fill="#0F265C"/>
<path d="M185.76 78.7565C185.631 78.7566 185.507 78.7067 185.414 78.6172C185.32 78.5277 185.265 78.4056 185.26 78.2765C185.258 78.2109 185.268 78.1452 185.29 78.0835C185.313 78.0219 185.348 77.9653 185.392 77.917C185.437 77.8687 185.491 77.8297 185.55 77.8022C185.61 77.7746 185.674 77.7591 185.74 77.7565L193.24 77.5065C193.305 77.5038 193.37 77.5142 193.432 77.537C193.493 77.5598 193.549 77.5946 193.596 77.6393C193.644 77.684 193.682 77.7378 193.708 77.7974C193.735 77.857 193.749 77.9213 193.75 77.9865C193.753 78.0522 193.743 78.1178 193.72 78.1795C193.697 78.2412 193.663 78.2977 193.618 78.346C193.573 78.3943 193.52 78.4333 193.46 78.4609C193.4 78.4884 193.336 78.5039 193.27 78.5065L185.77 78.7565H185.76Z" fill="#0F265C"/>
<path d="M220.439 77.4665C218.079 77.1265 198.439 80.0365 194.489 80.6365C192.929 80.3873 191.34 80.3873 189.779 80.6365C187.756 80.7432 185.767 81.1999 183.899 81.9865C183.509 82.1465 183.129 82.3165 182.759 82.4865C181.266 83.2502 179.653 83.7508 177.989 83.9665C176.363 84.1147 174.724 83.9345 173.169 83.4366C171.934 83.0213 170.63 82.8515 169.329 82.9366C168.233 82.949 167.138 83.0191 166.049 83.1465C164.374 83.2091 162.724 83.5749 161.179 84.2265C160.145 84.3961 159.097 84.473 158.049 84.4565C157.816 84.4516 157.587 84.5205 157.395 84.6534C157.202 84.7862 157.057 84.9764 156.979 85.1966C156.906 85.4205 156.905 85.6619 156.977 85.8863C157.049 86.1107 157.19 86.3068 157.379 86.4466C157.921 86.8565 158.332 87.4162 158.559 88.0566C158.308 89.5813 158.284 91.1349 158.489 92.6666C158.999 97.4966 162.169 100.456 166.709 100.456C167.079 100.456 167.469 100.457 167.869 100.397C172.939 99.8565 175.779 96.6965 176.319 90.9965C176.319 90.5765 176.369 90.1866 176.379 89.8066C176.469 89.1966 177.509 88.4065 178.799 88.2565C179.24 88.1605 179.699 88.2159 180.104 88.4138C180.509 88.6116 180.835 88.9402 181.029 89.3465C181.053 89.4084 181.087 89.4659 181.129 89.5165C181.199 89.8265 181.289 90.1365 181.389 90.4565C182.949 95.4565 185.949 97.9565 190.299 97.9565C190.737 97.9541 191.175 97.9275 191.609 97.8765C192.752 97.8069 193.867 97.5049 194.889 96.9891C195.91 96.4732 196.815 95.7544 197.549 94.8765C198.932 93.0039 199.515 90.6587 199.169 88.3565C199.169 88.0965 199.109 87.8565 199.079 87.6065C199.12 87.4804 199.14 87.3488 199.139 87.2165C199.139 87.2165 199.139 86.9866 199.139 86.6566C199.089 83.9766 202.549 81.8665 202.589 81.8365C202.696 81.7731 202.791 81.692 202.869 81.5965C210.739 80.4865 219.029 79.4265 220.189 79.5965C221.349 79.7665 222.059 83.1265 221.779 85.7565C221.763 85.9016 221.776 86.0485 221.818 86.1884C221.86 86.3283 221.929 86.4582 222.023 86.5704C222.116 86.6825 222.231 86.7746 222.362 86.841C222.492 86.9074 222.634 86.9466 222.779 86.9565H222.899C223.172 86.9549 223.434 86.8514 223.634 86.6663C223.834 86.4812 223.957 86.228 223.979 85.9565C224.219 82.9565 223.579 77.8865 220.439 77.4665ZM174.129 90.8265C173.689 95.4765 171.629 97.8265 167.629 98.2565C163.629 98.6865 161.079 96.5065 160.629 92.4765C160.629 92.1665 160.579 91.8965 160.559 91.6165C160.539 91.3365 160.629 90.8665 160.669 90.4865C161.219 88.7665 163.439 86.5765 164.669 85.7665C165.369 85.5965 165.809 85.4566 165.869 85.4366H165.979H166.209C167.228 85.3106 168.253 85.2404 169.279 85.2265C170.719 85.4465 172.899 86.0865 173.409 86.7365C174.092 87.9839 174.345 89.4211 174.129 90.8265ZM195.819 93.5566C195.263 94.2024 194.582 94.7292 193.818 95.1055C193.053 95.4819 192.22 95.6999 191.369 95.7465C187.369 96.1765 184.859 94.2965 183.469 89.8465C182.839 87.8465 182.819 86.3266 183.399 85.3066C184.73 84.3423 186.224 83.6274 187.809 83.1966C187.872 83.1727 187.933 83.1425 187.989 83.1065C188.639 83.0065 189.319 82.9265 189.989 82.8465C190.989 82.7465 191.929 82.6465 192.729 82.6465C193.314 82.6266 193.897 82.7148 194.449 82.9066C194.917 83.2027 195.344 83.559 195.719 83.9665C196.481 85.4062 196.908 86.999 196.969 88.6265C197.253 90.3573 196.84 92.13 195.819 93.5566Z" fill="#FFDD00"/>
<path d="M177.139 88.1165C177.139 88.1165 169.989 97.8564 170.139 99.7064C170.289 101.556 179.729 104.146 179.729 104.146" fill="white"/>
<path d="M179.78 104.646C179.733 104.656 179.686 104.656 179.64 104.646C177.36 104.026 169.91 101.816 169.64 99.7865C169.37 97.7565 175.48 89.4965 176.69 87.7865C176.771 87.6826 176.889 87.6141 177.019 87.5955C177.15 87.5768 177.283 87.6095 177.39 87.6865C177.495 87.7662 177.565 87.8837 177.586 88.0143C177.606 88.1449 177.575 88.2783 177.5 88.3865C174.57 92.3865 170.5 98.4765 170.64 99.6265C170.73 100.536 175.48 102.436 179.86 103.626C179.923 103.644 179.983 103.674 180.036 103.714C180.088 103.755 180.132 103.806 180.164 103.863C180.197 103.921 180.218 103.985 180.225 104.05C180.233 104.116 180.228 104.183 180.21 104.246C180.191 104.351 180.139 104.446 180.061 104.518C179.984 104.59 179.885 104.635 179.78 104.646Z" fill="#0F265C"/>
<path d="M170.68 88.2964C169.68 88.4064 169.27 90.0164 169.43 91.5464C169.59 93.0764 170.25 94.4663 171.23 94.4663H171.33C172.33 94.3563 172.74 92.7463 172.58 91.2163C172.42 89.6863 171.68 88.1664 170.68 88.2964Z" fill="#0F265C"/>
<path d="M191.439 89.2164C191.401 88.2298 191.011 87.2895 190.339 86.5665C190.232 86.4677 190.105 86.3931 189.967 86.3482C189.829 86.3033 189.683 86.2891 189.539 86.3065C189.395 86.324 189.256 86.3702 189.131 86.4424C189.006 86.5145 188.896 86.6111 188.809 86.7264C188.302 87.5735 188.118 88.5745 188.289 89.5465C188.326 90.536 188.716 91.4794 189.389 92.2064C189.584 92.3749 189.831 92.4704 190.089 92.4764H190.189C190.479 92.4764 191.009 92.2565 191.299 91.2865C191.477 90.6118 191.525 89.909 191.439 89.2164Z" fill="#0F265C"/>
<path d="M277.339 171.976C272.799 164.776 264.749 161.677 259.829 161.557C259.496 161.537 259.162 161.537 258.829 161.557C247.339 162.347 235.999 185.556 235.559 186.486L216.769 214.016C216.568 214.375 216.473 214.784 216.496 215.195C216.519 215.606 216.659 216.002 216.899 216.336C217.507 217.3 218.275 218.152 219.169 218.856L215.789 223.406C213.851 222.082 211.796 220.937 209.649 219.986C199.079 215.396 179.399 206.847 170.019 201.317L167.329 199.726C158.519 194.466 145.199 186.536 134.379 184.236C126.959 182.646 119.329 184.726 114.229 186.756C111.816 187.721 109.545 189.009 107.479 190.586C103.006 193.686 98.2201 196.307 93.1992 198.406L90.1992 199.687C89.3737 200.043 88.7229 200.712 88.3892 201.546C88.2187 201.955 88.1309 202.394 88.1309 202.836C88.1309 203.279 88.2187 203.718 88.3892 204.126C88.6756 204.78 89.162 205.326 89.7784 205.685C90.3948 206.045 91.1094 206.199 91.8192 206.126L92.4792 206.057C94.4791 205.863 96.438 205.367 98.2892 204.586L110.449 199.437C109.549 201.857 109.059 204.596 110.179 206.636C110.722 207.735 111.557 208.662 112.592 209.317C113.628 209.972 114.824 210.328 116.049 210.346C116.332 210.364 116.616 210.364 116.899 210.346C117.369 211.451 118.169 212.384 119.189 213.016C120.186 213.676 121.345 214.046 122.539 214.086C126.539 214.186 129.339 210.086 129.369 210.086C129.424 210.011 129.452 209.92 129.449 209.826C132.427 210.947 135.569 211.572 138.749 211.677C142.356 211.765 145.939 211.055 149.239 209.596C150.559 210.516 182.529 233.087 206.499 251.926C206.699 252.076 211.059 255.156 214.239 255.996L214.539 256.067H214.709C214.889 256.067 215.069 256.126 215.229 256.136H215.339C216.115 256.246 216.896 256.306 217.679 256.317C219.834 256.406 221.98 255.975 223.933 255.059C225.886 254.143 227.589 252.77 228.899 251.057L243.189 231.986C250.839 235.256 257.689 237.647 259.879 237.697H259.899C260.11 237.723 260.323 237.694 260.52 237.614C260.716 237.533 260.888 237.403 261.019 237.236C262.349 234.846 262.399 234.756 271.279 211.236C272.023 209.273 272.913 207.368 273.939 205.536C283.519 188.546 281.079 177.886 277.339 171.976Z" fill="#0F265C"/>
<path d="M228.039 250.456C224.849 254.706 219.279 255.966 214.569 255.006C211.569 254.246 207.169 251.116 207.139 251.096C184.479 233.286 154.639 212.096 150.339 209.096C150.819 208.856 151.339 208.606 151.789 208.326C151.902 208.259 151.985 208.151 152.021 208.025C152.056 207.898 152.041 207.762 151.979 207.646C151.91 207.532 151.8 207.449 151.672 207.414C151.544 207.379 151.407 207.394 151.289 207.456C137.289 215.526 123.759 205.836 123.629 205.746C123.576 205.707 123.517 205.678 123.453 205.662C123.39 205.646 123.323 205.642 123.258 205.651C123.193 205.661 123.131 205.683 123.074 205.716C123.018 205.75 122.968 205.794 122.929 205.846C122.89 205.9 122.862 205.96 122.847 206.024C122.831 206.088 122.828 206.154 122.839 206.219C122.849 206.284 122.872 206.347 122.906 206.403C122.941 206.459 122.986 206.508 123.039 206.546C124.784 207.728 126.656 208.711 128.619 209.476C128.459 209.716 124.679 215.236 119.799 212.166C114.919 209.096 119.089 200.396 119.139 200.306C119.168 200.247 119.185 200.183 119.189 200.118C119.193 200.052 119.185 199.986 119.163 199.924C119.142 199.861 119.108 199.804 119.065 199.755C119.021 199.705 118.968 199.665 118.909 199.636C118.85 199.607 118.786 199.59 118.72 199.586C118.654 199.582 118.589 199.591 118.526 199.612C118.464 199.634 118.407 199.667 118.357 199.711C118.308 199.754 118.268 199.807 118.239 199.866C118.099 200.156 115.609 205.286 116.649 209.376C115.516 209.464 114.382 209.206 113.399 208.637C112.415 208.067 111.627 207.213 111.139 206.186C108.959 202.186 114.139 194.616 114.189 194.536C114.227 194.482 114.254 194.421 114.268 194.356C114.282 194.291 114.283 194.224 114.27 194.159C114.258 194.094 114.233 194.032 114.197 193.977C114.161 193.921 114.114 193.874 114.059 193.836C113.949 193.766 113.816 193.74 113.688 193.764C113.56 193.788 113.446 193.86 113.369 193.966C112.482 195.295 111.709 196.697 111.059 198.156L97.979 203.676C96.2246 204.423 94.3666 204.899 92.469 205.086L91.819 205.146C91.3159 205.197 90.8096 205.086 90.3741 204.829C89.9387 204.572 89.597 204.182 89.399 203.716C89.2775 203.428 89.2148 203.119 89.2148 202.806C89.2148 202.494 89.2775 202.184 89.399 201.896C89.6379 201.312 90.0979 200.844 90.679 200.596L93.679 199.306C98.777 197.188 103.632 194.526 108.159 191.366C110.152 189.847 112.342 188.606 114.669 187.676C119.669 185.676 127.089 183.676 134.259 185.196C144.909 187.476 158.139 195.356 166.899 200.566C167.899 201.136 168.749 201.676 169.599 202.166C177.889 207.056 193.599 214.056 209.349 220.906C211.418 221.82 213.4 222.922 215.269 224.196L216.099 224.776C220.143 227.524 223.516 231.147 225.969 235.376C226.009 235.454 226.069 235.519 226.143 235.565C226.217 235.61 226.302 235.635 226.389 235.636C226.476 235.642 226.564 235.621 226.639 235.576C226.754 235.511 226.839 235.404 226.876 235.277C226.914 235.15 226.9 235.014 226.839 234.896C224.311 230.543 220.844 226.809 216.689 223.966L220.029 219.476C224.829 223.246 233.919 227.886 242.289 231.536L228.039 250.456Z" fill="white"/>
<path d="M273.07 204.986C272.018 206.867 271.105 208.822 270.34 210.836C261.57 234.106 261.44 234.416 260.18 236.676C258.98 237.117 251.86 234.676 243.75 231.166L242.81 230.756C234.42 227.086 225.21 222.396 220.53 218.756L219.76 218.126C219.327 217.764 218.92 217.373 218.54 216.956C217.9 216.236 217.21 215.256 217.6 214.626L236.41 187.036C236.52 186.796 247.97 163.356 258.89 162.616C263.4 162.306 271.89 165.187 276.49 172.557C280.09 178.217 282.41 188.486 273.07 204.986Z" fill="white"/>
<path d="M110.063 99.1678C94.0004 103.232 84.2909 119.544 88.376 135.601C92.461 151.658 108.794 161.38 124.856 157.316C140.918 153.251 150.628 136.94 146.543 120.883C142.458 104.826 126.125 95.1035 110.063 99.1678Z" fill="white" stroke="#CFD4DE" stroke-width="1.5" stroke-linecap="round" stroke-linejoin="round"/>
<path d="M88.083 159.392C87.0658 161.959 88.3238 164.861 90.8929 165.873C93.462 166.886 96.3694 165.626 97.3866 163.058C98.4039 160.491 97.1458 157.589 94.5767 156.577C92.0076 155.564 89.1003 156.825 88.083 159.392Z" fill="white" stroke="#CFD4DE" stroke-width="1.5" stroke-linecap="round" stroke-linejoin="round"/>
<path d="M81.7124 168.031C81.2038 169.315 81.8328 170.766 83.1174 171.272C84.4019 171.778 85.8556 171.148 86.3642 169.864C86.8728 168.581 86.2438 167.13 84.9593 166.623C83.6747 166.117 82.2211 166.747 81.7124 168.031Z" fill="white" stroke="#CFD4DE" stroke-width="1.5" stroke-linecap="round" stroke-linejoin="round"/>
<path d="M117.94 111.29C108.74 111.29 101.273 118.756 101.273 127.956C101.273 137.156 108.74 144.623 117.94 144.623C127.14 144.623 134.607 137.156 134.607 127.956C134.607 118.756 127.14 111.29 117.94 111.29ZM117.94 141.29C110.59 141.29 104.607 135.306 104.607 127.956C104.607 120.606 110.59 114.623 117.94 114.623C125.29 114.623 131.273 120.606 131.273 127.956C131.273 135.306 125.29 141.29 117.94 141.29ZM125.59 120.59L114.607 131.573L110.29 127.273L107.94 129.623L114.607 136.29L127.94 122.956L125.59 120.59Z" fill="#0F265C"/>
</svg>
