<svg width="320" height="320" viewBox="0 0 320 320" fill="none" xmlns="http://www.w3.org/2000/svg">
<path d="M280.077 165.998C280.077 231.996 226.575 285.498 160.577 285.498C94.5786 285.498 41.0767 231.996 41.0767 165.998C41.0767 100 94.5786 46.498 160.577 46.498C226.575 46.498 280.077 100 280.077 165.998Z" fill="#F4F6F9" stroke="#DEE3ED"/>
<path d="M218.437 118.234C217.79 114.286 216.521 110.466 214.677 106.915C213.466 104.735 212.397 102.479 211.477 100.162C210.801 98.4025 210.38 96.5557 210.227 94.6774C210.017 91.7303 211.087 88.6833 210.587 85.7862C210.237 83.7882 208.907 82.1598 207.757 80.5214C204.117 75.3265 200.207 70.5812 197.407 64.827C195.797 61.5202 194.887 57.9438 193.407 54.5771C191.687 50.5811 189.887 46.7649 186.747 43.638C182.927 39.8418 176.927 40.1215 176.927 40.1215C176.927 40.1215 170.927 36.3852 168.657 35.6459C163.66 33.9732 158.285 33.787 153.184 35.1101C148.083 36.4332 143.478 39.2086 139.927 43.0985C132.307 51.5202 131.767 63.9179 123.527 71.89C120.157 75.1567 115.417 77.6443 113.397 82.0099C111.467 86.1658 112.397 89.2527 113.397 93.3687C113.917 95.5165 114.117 97.5844 112.957 99.5625C109.827 104.867 106.667 108.793 105.817 115.067C104.744 121.913 106.163 128.917 109.817 134.808C111.027 136.696 113.177 137.904 113.957 139.803C116.567 146.326 117.597 152.66 123.697 157.255C129.117 161.331 136.287 162.65 142.907 163.719C150.83 164.921 158.832 165.535 166.847 165.557C176.267 165.707 186.417 164.788 195.347 161.721C199.671 160.305 203.536 157.756 206.537 154.338C209.207 151.261 210.937 147.395 213.137 143.988C218.179 136.415 220.08 127.181 218.437 118.234Z" fill="#0F265C"/>
<path d="M215.586 155.627C208.096 147.115 192.436 143.748 177.176 134.248V98.6031C177.176 92.8788 170.726 88.2334 163.526 88.2334C156.326 88.2334 149.876 92.8788 149.876 98.6031V134.298C133.286 143.878 119.966 147.604 113.076 157.095L163.536 173.339L215.586 155.627Z" fill="white"/>
<path d="M113.076 157.715C112.943 157.715 112.814 157.673 112.706 157.595C112.64 157.548 112.584 157.489 112.541 157.42C112.498 157.351 112.469 157.275 112.456 157.195C112.443 157.115 112.446 157.033 112.465 156.954C112.484 156.875 112.518 156.801 112.566 156.736C117.336 150.162 125.016 146.356 134.746 141.541C139.116 139.373 144.066 136.915 149.256 133.938V98.6034C149.256 92.6093 155.796 87.6143 163.526 87.6143C171.256 87.6143 177.796 92.6093 177.796 98.6034V133.908C183.692 137.395 189.808 140.495 196.106 143.189C204.416 146.925 211.596 150.182 216.106 155.177C216.214 155.302 216.267 155.465 216.256 155.629C216.245 155.793 216.17 155.947 216.046 156.056C215.986 156.11 215.915 156.152 215.838 156.178C215.761 156.204 215.68 156.215 215.599 156.209C215.518 156.204 215.439 156.182 215.366 156.145C215.294 156.109 215.229 156.058 215.176 155.996C210.896 151.131 203.826 148.004 195.646 144.278C189.189 141.522 182.925 138.335 176.896 134.737C176.808 134.68 176.735 134.601 176.685 134.509C176.634 134.417 176.607 134.313 176.606 134.208V98.6034C176.606 93.3186 170.606 88.853 163.606 88.853C156.606 88.853 150.606 93.3186 150.606 98.6034V134.298C150.606 134.406 150.577 134.511 150.523 134.604C150.468 134.698 150.39 134.774 150.296 134.827C144.956 137.914 139.886 140.432 135.406 142.65C125.836 147.395 118.276 151.141 113.686 157.465C113.618 157.559 113.524 157.632 113.417 157.676C113.309 157.72 113.191 157.733 113.076 157.715Z" fill="#0F265C"/>
<path d="M246.876 236.177C241.206 211.361 228.436 156.985 221.396 152.15C220.387 151.574 219.249 151.258 218.086 151.231C207.896 147.235 177.546 135.606 177.546 135.606C178.823 137.814 179.946 140.107 180.906 142.47C187.346 158.234 187.776 178.014 187.326 194.158C187.026 223.716 187.49 253.153 188.716 282.471C198.225 280.095 207.397 276.534 216.016 271.871C217.326 271.162 218.626 270.423 219.906 269.673C219.166 262.301 218.446 254.858 217.786 247.785L217.546 245.258C216.076 229.363 214.956 215.567 214.786 208.784C214.625 201.998 214.876 195.209 215.536 188.454C215.816 188.814 216.096 189.183 216.386 189.593C218.253 192.361 219.551 195.471 220.206 198.744C222.056 206.396 221.446 214.518 222.206 222.3C222.296 223.21 222.416 224.119 222.546 225.018C223.666 233.01 225.966 241.002 227.146 248.994C227.768 252.881 227.995 256.82 227.826 260.752C227.756 262.031 227.746 263.31 227.756 264.589C235.574 259.098 242.699 252.685 248.976 245.487C248.516 243.38 247.796 240.153 246.876 236.177Z" fill="#FFDD00"/>
<path d="M109.306 150.302L107.686 150.932L104.436 152.221C104.331 152.279 104.253 152.376 104.216 152.49C102.804 153.144 101.515 154.037 100.406 155.128C95.4665 160.053 82.0765 173.36 81.6465 173.649L91.3665 183.959L108.456 179.504C109.856 189.205 110.462 199.005 110.266 208.804C110.006 218.795 107.456 246.287 104.846 272.351C106.046 272.991 107.257 273.61 108.487 274.2C117.318 278.492 126.654 281.657 136.276 283.62C137.563 253.903 138.043 224.083 137.716 194.159C137.266 177.905 137.716 157.995 144.227 142.211C145.15 139.959 146.226 137.773 147.446 135.667C147.446 135.667 121.136 145.717 109.306 150.332V150.302Z" fill="#FFDD00"/>
<path d="M206.207 163.469L191.707 143.849C191.658 143.781 191.597 143.724 191.526 143.681C191.455 143.638 191.376 143.61 191.294 143.598C191.212 143.586 191.129 143.59 191.048 143.611C190.968 143.632 190.893 143.668 190.827 143.719C190.76 143.766 190.703 143.827 190.66 143.897C190.617 143.967 190.589 144.044 190.576 144.126C190.564 144.207 190.569 144.29 190.589 144.369C190.61 144.448 190.647 144.523 190.697 144.588L204.847 163.789L191.977 177.635C191.872 177.748 191.814 177.896 191.814 178.05C191.814 178.203 191.872 178.351 191.977 178.464L197.977 185.457L187.207 214.928C187.207 208.015 187.233 201.098 187.287 194.179C187.737 178.035 187.287 158.214 180.867 142.49C177.787 144.708 172.167 147.135 162.327 147.135C152.057 147.135 146.807 144.488 144.187 142.2C137.627 158.015 137.187 177.925 137.677 194.149C137.757 201.581 137.787 209.001 137.767 216.407L126.517 185.497L132.517 178.504C132.621 178.391 132.68 178.243 132.68 178.09C132.68 177.936 132.621 177.788 132.517 177.675L119.637 163.829L133.797 144.628C133.866 144.495 133.885 144.342 133.851 144.196C133.817 144.05 133.732 143.922 133.612 143.833C133.492 143.744 133.343 143.7 133.194 143.711C133.045 143.721 132.904 143.784 132.797 143.889L118.337 163.509C118.242 163.621 118.19 163.762 118.19 163.909C118.19 164.055 118.242 164.197 118.337 164.308L131.207 178.075L125.367 184.958C125.294 185.041 125.245 185.143 125.226 185.252C125.206 185.361 125.217 185.474 125.257 185.577L137.787 220.013C137.687 241.259 137.183 262.454 136.277 283.6C153.625 287.118 171.54 286.726 188.717 282.451C187.817 261.192 187.33 239.88 187.257 218.514L199.257 185.547C199.296 185.444 199.307 185.331 199.288 185.222C199.269 185.113 199.22 185.011 199.147 184.928L193.287 178.025L206.137 164.218C206.228 164.118 206.284 163.99 206.296 163.855C206.309 163.72 206.277 163.585 206.207 163.469Z" fill="white"/>
<path d="M162.367 147.805C151.837 147.805 146.437 145.038 143.767 142.71L144.547 141.411C147.037 143.579 152.267 146.406 162.367 146.406C172.167 146.406 177.627 143.949 180.497 141.901L181.307 143.03C178.277 145.217 172.537 147.805 162.367 147.805Z" fill="#0F265C"/>
<path d="M227.206 249.014C226.026 241.022 223.726 233.03 222.606 225.038C222.476 224.139 222.356 223.23 222.266 222.321C221.466 214.538 222.076 206.416 220.266 198.774C219.611 195.505 218.312 192.398 216.446 189.633C216.156 189.223 215.876 188.854 215.596 188.494C214.936 195.249 214.685 202.038 214.846 208.824C215.016 215.607 216.136 229.404 217.606 245.298C218.956 249.294 220.256 252.97 221.466 256.387C222.806 260.153 223.966 263.55 225.096 266.507L225.206 266.437C226.096 265.847 226.976 265.238 227.856 264.629C227.856 263.35 227.856 262.071 227.926 260.792C228.083 256.852 227.842 252.906 227.206 249.014Z" fill="#0F265C"/>
<path d="M191.816 73.8075C190.965 73.812 190.118 73.9261 189.296 74.1472C189.396 71.8794 189.426 70.4509 189.426 70.4509C189.428 69.5867 189.385 68.7231 189.296 67.8635C185.676 65.1961 182.086 58.8724 179.376 54.187C178.55 52.6541 177.643 51.1668 176.656 49.7314C173.716 54.0971 163.656 58.0332 154.006 61.8394C147.346 64.4568 140.516 67.1442 136.916 69.7016C136.916 69.9514 136.916 70.2011 136.916 70.4509C136.916 70.4509 136.916 71.8695 136.916 74.1172C136.118 73.9166 135.299 73.8126 134.476 73.8075C129.256 73.8075 127.186 78.3231 129.656 83.8776C131.176 87.3042 135.016 90.1913 138.976 91.6598C142.026 103.738 149.826 113.898 163.146 113.898C176.466 113.898 184.526 103.788 187.396 91.6199C191.316 90.1413 195.116 87.2842 196.616 83.8776C199.106 78.3231 197.036 73.8075 191.816 73.8075Z" fill="white"/>
<path d="M197.297 75.8057C196.684 74.9356 195.859 74.2364 194.9 73.7748C193.941 73.3132 192.879 73.1044 191.817 73.1683C191.186 73.169 190.557 73.2258 189.937 73.3382C190.027 71.5599 190.047 70.481 190.047 70.441C189.911 63.4074 187.019 56.7078 181.991 51.7815C176.964 46.8553 170.203 44.0957 163.162 44.0957C156.12 44.0957 149.359 46.8553 144.332 51.7815C139.305 56.7078 136.412 63.4074 136.277 70.441C136.277 70.441 136.277 71.5699 136.277 73.3481C135.679 73.2392 135.074 73.1856 134.467 73.1883C133.405 73.1242 132.345 73.3329 131.387 73.7946C130.43 74.2564 129.607 74.9557 128.997 75.8257C127.637 77.9136 127.667 80.9406 129.087 84.1374C130.677 87.7239 134.507 90.591 138.437 92.1295C140.437 100.172 144.277 106.315 149.437 110.112V114.417C157.947 118.693 168.317 118.413 177.167 115.037V109.932C181.937 106.405 185.957 100.671 187.967 92.0796C191.857 90.5511 195.627 87.7039 197.207 84.1474C198.617 80.9206 198.657 77.8936 197.297 75.8057ZM130.207 83.618C128.967 80.8107 128.897 78.2133 130.027 76.4851C130.526 75.7903 131.196 75.2353 131.971 74.8732C132.747 74.5111 133.603 74.354 134.457 74.4171C135.078 74.4139 135.698 74.4776 136.307 74.6069C136.433 79.007 136.837 83.3947 137.517 87.7439C137.677 88.7429 137.857 89.6719 138.067 90.601C134.727 89.1125 131.567 86.595 130.207 83.618ZM177.207 108.303C173.254 111.529 168.31 113.293 163.207 113.299C158.211 113.366 153.351 111.675 149.477 108.523C145.097 104.997 141.807 99.5821 139.897 92.619C139.767 92.1595 139.647 91.68 139.537 91.2004C139.257 90.0316 139.007 88.8328 138.807 87.584C138.155 83.4096 137.761 79.1992 137.627 74.9765C137.627 74.507 137.627 74.0674 137.627 73.6578C137.577 71.7198 137.627 70.511 137.627 70.481C137.759 63.7739 140.519 57.3861 145.314 52.6896C150.109 47.9931 156.556 45.3623 163.272 45.3623C169.987 45.3623 176.434 47.9931 181.229 52.6896C186.024 57.3861 188.784 63.7739 188.917 70.481C188.917 70.481 188.917 71.7397 188.797 73.6978C188.797 74.1074 188.797 74.5569 188.727 75.0265C188.567 78.2932 188.247 82.9386 187.657 87.614C187.487 88.8528 187.267 90.0416 187.017 91.1805C186.917 91.66 186.797 92.1795 186.677 92.609C184.687 99.9218 181.207 105.037 177.207 108.303ZM196.107 83.618C194.797 86.615 191.667 89.0726 188.327 90.5611C188.517 89.652 188.677 88.7029 188.817 87.7239C189.437 82.8188 189.757 77.9436 189.927 74.6269C190.561 74.4937 191.208 74.4267 191.857 74.4271C192.712 74.3622 193.57 74.5185 194.347 74.8806C195.125 75.2428 195.796 75.7987 196.297 76.495C197.387 78.2133 197.317 80.8107 196.067 83.618H196.107Z" fill="#0F265C"/>
<path d="M150.207 71.8203C149.087 71.8203 148.207 73.2389 148.207 75.117C148.207 76.9952 149.057 78.4138 150.207 78.4138C151.357 78.4138 152.207 76.9952 152.207 75.117C152.207 73.2389 151.287 71.8203 150.207 71.8203Z" fill="#0F265C"/>
<path d="M176.017 71.8203C174.897 71.8203 174.017 73.2389 174.017 75.117C174.017 76.9952 174.867 78.4138 176.017 78.4138C177.167 78.4138 178.017 76.9952 178.017 75.117C178.017 73.2389 177.137 71.8203 176.017 71.8203Z" fill="#0F265C"/>
<path d="M164.877 88.3531H164.717C160.157 87.1044 154.717 85.2862 154.597 83.7277C154.477 82.1693 160.237 75.9654 162.707 73.368C162.763 73.3089 162.831 73.2616 162.905 73.2287C162.98 73.1957 163.061 73.1778 163.142 73.1759C163.224 73.1741 163.305 73.1883 163.382 73.2178C163.458 73.2474 163.527 73.2916 163.587 73.348C163.646 73.4044 163.693 73.4719 163.726 73.5466C163.759 73.6213 163.777 73.7018 163.779 73.7834C163.781 73.8651 163.766 73.9463 163.737 74.0224C163.707 74.0985 163.663 74.1681 163.607 74.2271C159.947 78.0633 155.937 82.7687 155.837 83.6678C156.207 84.3071 160.897 86.0154 165.037 87.1543C165.183 87.1923 165.31 87.2824 165.395 87.4076C165.479 87.5329 165.515 87.6846 165.495 87.8343C165.475 87.984 165.402 88.1214 165.288 88.2206C165.174 88.3198 165.028 88.374 164.877 88.3731V88.3531Z" fill="#0F265C"/>
<path d="M192.267 56.665C192.187 55.9357 192.107 55.2165 192.057 54.4972C191.837 51.2404 191.657 49.9717 189.667 47.0246C185.967 41.54 181.287 38.9526 176.897 39.9217C175.973 39.517 175.109 38.9894 174.327 38.3532L173.787 37.9636C165.967 32.6888 154.787 32.6688 145.447 37.9636C142.829 39.4325 140.563 41.4542 138.807 43.8877C128.367 56.8748 132.907 69.9519 133.957 71.4803C134.01 71.5617 134.083 71.6288 134.168 71.6758C134.254 71.7228 134.349 71.7482 134.447 71.7501C134.542 71.7497 134.636 71.7269 134.722 71.6835C134.807 71.6401 134.88 71.5774 134.937 71.5003C135.511 70.814 136.185 70.2179 136.937 69.7321C140.527 67.1746 147.367 64.4873 154.017 61.8699C163.717 58.0537 173.727 54.1176 176.677 49.7619C177.663 51.1972 178.571 52.6845 179.397 54.2175C182.097 58.9428 185.687 65.2066 189.317 67.8839C189.729 68.1996 190.171 68.474 190.637 68.7031C190.734 68.7472 190.84 68.7701 190.947 68.7701C191.054 68.7701 191.159 68.7472 191.257 68.7031C191.577 68.5133 191.947 68.3035 192.507 61.5702C192.594 59.9312 192.513 58.2877 192.267 56.665Z" fill="#0F265C"/>
<path d="M163.147 98.3136C162.446 98.3379 161.748 98.2011 161.108 97.9136C160.469 97.626 159.904 97.1955 159.457 96.6552C159.195 96.2784 159.035 95.8407 158.991 95.3841C158.947 94.9276 159.021 94.4674 159.207 94.0478C159.429 93.5368 159.773 93.0877 160.209 92.7396C160.645 92.3914 161.159 92.1546 161.707 92.0498H162.157C162.908 92.0996 163.638 92.3154 164.295 92.6817C164.952 93.048 165.52 93.5555 165.957 94.1677C166.207 94.5125 166.366 94.9156 166.417 95.3388C166.467 95.762 166.409 96.1911 166.247 96.5853C166.01 97.0915 165.637 97.5216 165.168 97.8269C164.7 98.1323 164.156 98.3009 163.597 98.3136C163.447 98.3218 163.297 98.3218 163.147 98.3136ZM161.887 93.3185C161.551 93.3833 161.236 93.5278 160.968 93.74C160.7 93.9521 160.487 94.2256 160.347 94.5373C160.242 94.7684 160.2 95.0228 160.224 95.2753C160.249 95.5278 160.339 95.7694 160.487 95.9759C160.865 96.3819 161.334 96.6929 161.855 96.8839C162.376 97.0748 162.935 97.1402 163.487 97.0748C163.824 97.0678 164.153 96.9717 164.442 96.7963C164.73 96.6208 164.966 96.3722 165.127 96.0758C165.21 95.8681 165.236 95.6419 165.203 95.4207C165.169 95.1994 165.077 94.9911 164.937 94.817C164.617 94.3841 164.212 94.0221 163.745 93.7538C163.279 93.4856 162.762 93.3169 162.227 93.2586L161.887 93.3185Z" fill="#0F265C"/>
<path d="M146.487 68.2639C146.358 68.2655 146.232 68.2271 146.126 68.1541C146.021 68.081 145.94 67.9769 145.896 67.8562C145.852 67.7355 145.847 67.6042 145.881 67.4803C145.915 67.3565 145.987 67.2463 146.087 67.165C147.661 66.0115 149.586 65.4363 151.537 65.5366C151.702 65.5444 151.857 65.6169 151.97 65.7384C152.082 65.8599 152.142 66.0207 152.137 66.1859C152.137 66.2687 152.12 66.3506 152.087 66.4263C152.053 66.502 152.004 66.5699 151.943 66.6254C151.882 66.681 151.809 66.7231 151.731 66.749C151.652 66.7748 151.569 66.7838 151.487 66.7754C149.844 66.6748 148.218 67.1481 146.887 68.1141C146.776 68.2113 146.634 68.2647 146.487 68.2639Z" fill="#0F265C"/>
<path d="M178.527 68.2634C178.382 68.2612 178.241 68.2122 178.126 68.1235C176.795 67.1578 175.17 66.6814 173.527 66.7749C173.445 66.7834 173.362 66.7744 173.284 66.7485C173.206 66.7226 173.134 66.6803 173.073 66.6246C173.013 66.5688 172.965 66.5008 172.933 66.4251C172.9 66.3494 172.885 66.2677 172.887 66.1854C172.882 66.1041 172.895 66.0228 172.922 65.9461C172.95 65.8694 172.992 65.7988 173.047 65.7385C173.101 65.6782 173.168 65.6293 173.241 65.5945C173.315 65.5598 173.395 65.5399 173.477 65.5361C175.426 65.4383 177.351 66.0132 178.926 67.1645C179.053 67.2712 179.132 67.4232 179.147 67.5877C179.162 67.7521 179.111 67.9159 179.006 68.0436C178.946 68.1113 178.872 68.1657 178.789 68.2036C178.707 68.2414 178.617 68.2617 178.527 68.2634Z" fill="#0F265C"/>
<path d="M152.066 127.515C149.218 130.947 146.047 134.099 142.596 136.926C142.456 136.953 142.331 137.031 142.246 137.145L142.136 137.305L141.786 137.595C138.881 137.907 135.958 137.201 133.516 135.597C129.196 132.78 129.446 129.693 129.516 129.093C131.198 126.661 132.543 124.013 133.516 121.221C133.616 120.942 133.706 120.692 133.796 120.462C135.396 116.376 136.166 113.469 136.096 111.751C136.096 110.472 136.956 102.22 137.556 100.822C137.626 100.662 137.736 100.472 137.876 100.462C138.346 100.462 139.246 101.411 139.446 101.741C140.096 103.019 140.206 105.277 140.306 107.085C140.426 109.413 140.496 110.951 141.546 111.151C142.426 111.321 143.476 110.152 146.476 106.386C148.39 103.851 150.51 101.478 152.816 99.293L153.366 98.8135C154.057 98.132 154.85 97.5624 155.716 97.1252C156.467 96.7838 157.267 96.5646 158.086 96.4758C155.086 100.072 150.016 107.745 148.646 109.923C148.565 110.055 148.541 110.214 148.577 110.365C148.614 110.516 148.709 110.646 148.841 110.727C148.974 110.808 149.133 110.832 149.284 110.796C149.435 110.759 149.565 110.664 149.646 110.532C152.026 106.776 158.746 96.9154 160.436 95.6766C160.502 95.6329 160.557 95.5748 160.596 95.5068C160.957 95.3303 161.341 95.2058 161.736 95.1372C162.278 94.9994 162.852 95.056 163.356 95.297C163.405 95.3324 163.446 95.3772 163.477 95.4287C163.508 95.4801 163.528 95.5373 163.536 95.5967C163.483 96.3241 163.215 97.0195 162.766 97.5947L162.616 97.8545C161.226 99.9024 159.766 102.09 158.296 104.298C156.406 107.115 154.466 110.032 152.656 112.68C152.614 112.742 152.585 112.812 152.57 112.886C152.555 112.959 152.555 113.035 152.569 113.109C152.584 113.183 152.612 113.253 152.654 113.316C152.695 113.378 152.749 113.432 152.811 113.474C152.874 113.516 152.944 113.545 153.017 113.56C153.091 113.575 153.167 113.575 153.241 113.561C153.315 113.547 153.385 113.518 153.448 113.476C153.51 113.435 153.564 113.381 153.606 113.319C155.406 110.672 157.356 107.755 159.246 104.937C160.626 102.859 161.996 100.802 163.306 98.8734C163.727 99.0067 164.084 99.2915 164.306 99.6727C164.547 100.271 164.666 100.912 164.656 101.557C164.645 102.202 164.506 102.838 164.246 103.429C162.936 105.277 161.726 107.255 160.436 109.353C159.146 111.451 157.726 113.769 156.166 115.996C156.123 116.058 156.092 116.128 156.076 116.201C156.059 116.275 156.058 116.351 156.071 116.425C156.084 116.499 156.111 116.57 156.152 116.634C156.192 116.697 156.245 116.752 156.306 116.796C156.368 116.839 156.438 116.87 156.511 116.886C156.585 116.903 156.661 116.904 156.735 116.891C156.81 116.878 156.881 116.851 156.944 116.81C157.008 116.77 157.063 116.717 157.106 116.656C158.676 114.398 160.106 112.14 161.406 109.952C162.586 108.044 163.696 106.236 164.856 104.538C165.856 105.847 165.606 106.416 164.226 109.143C163.916 109.743 163.566 110.432 163.226 111.231C162.226 113.339 159.486 117.905 158.316 119.653C157.146 121.401 154.206 124.938 152.066 127.515Z" fill="white"/>
<path d="M132.896 136.526C127.476 132.999 128.396 128.883 128.436 128.704C128.456 128.636 128.486 128.572 128.526 128.514C130.2 126.138 131.53 123.538 132.476 120.791L132.776 120.022C134.286 116.136 135.056 113.279 134.996 111.77C134.936 110.502 135.836 101.99 136.546 100.332C136.645 100.051 136.825 99.8062 137.064 99.6283C137.303 99.4504 137.589 99.3475 137.886 99.3327C139.156 99.3327 140.396 101.021 140.496 101.221C141.266 102.729 141.386 105.017 141.496 107.035C141.494 108.027 141.605 109.015 141.826 109.982C143.229 108.673 144.505 107.235 145.636 105.686C147.593 103.092 149.764 100.666 152.126 98.4336L152.656 97.974C153.438 97.1969 154.344 96.5554 155.336 96.0759C156.321 95.6164 157.39 95.368 158.476 95.3466C158.819 95.1965 159.153 95.0264 159.476 94.8371C160.118 94.4353 160.831 94.1605 161.576 94.0279C162.418 93.8368 163.301 93.9612 164.056 94.3776C164.395 94.6129 164.629 94.9715 164.706 95.3766C164.747 96.253 164.486 97.1168 163.966 97.8241C164.539 98.0775 165.018 98.5037 165.336 99.0429C165.653 99.7237 165.828 100.461 165.852 101.212C165.876 101.962 165.748 102.709 165.476 103.409C167.336 105.576 166.836 106.575 165.276 109.622C164.976 110.212 164.636 110.891 164.276 111.69C163.216 113.878 160.496 118.434 159.276 120.252C157.906 122.25 154.686 126.246 153.006 128.244C149.853 132.039 146.318 135.5 142.456 138.574C142.384 138.633 142.298 138.674 142.206 138.694C139.542 139.056 136.831 138.596 134.436 137.375C133.906 137.124 133.392 136.84 132.896 136.526ZM152.066 127.535C154.236 124.957 157.066 121.391 158.266 119.642C159.466 117.894 162.156 113.339 163.176 111.221C163.566 110.422 163.916 109.732 164.176 109.133C165.556 106.416 165.846 105.836 164.806 104.527C163.646 106.226 162.536 108.034 161.356 109.942C160.016 112.13 158.626 114.388 157.056 116.645C156.969 116.77 156.835 116.855 156.685 116.881C156.535 116.907 156.381 116.873 156.256 116.785C156.132 116.698 156.047 116.565 156.021 116.415C155.994 116.265 156.029 116.111 156.116 115.986C157.676 113.758 159.056 111.511 160.386 109.343C161.716 107.175 162.886 105.267 164.186 103.419C164.446 102.828 164.585 102.192 164.596 101.546C164.606 100.901 164.487 100.261 164.246 99.6623C164.024 99.2812 163.667 98.9964 163.246 98.8631C161.946 100.791 160.566 102.859 159.186 104.917C157.296 107.744 155.346 110.661 153.546 113.309C153.462 113.435 153.33 113.522 153.181 113.551C153.032 113.58 152.877 113.548 152.751 113.464C152.625 113.379 152.538 113.248 152.509 113.099C152.48 112.95 152.512 112.795 152.596 112.669C154.406 110.022 156.356 107.105 158.236 104.288C159.706 102.08 161.166 99.8921 162.546 97.8541L162.706 97.5844C163.155 97.0092 163.423 96.3138 163.476 95.5864C163.468 95.5269 163.448 95.4698 163.417 95.4183C163.386 95.3669 163.345 95.3221 163.296 95.2867C162.791 95.0497 162.219 94.9933 161.676 95.1268C161.281 95.1955 160.897 95.32 160.536 95.4965C160.497 95.5645 160.442 95.6225 160.376 95.6663C158.746 96.8551 152.086 106.565 149.586 110.522C149.546 110.587 149.494 110.644 149.432 110.69C149.369 110.735 149.299 110.767 149.224 110.786C149.149 110.804 149.072 110.807 148.996 110.795C148.92 110.783 148.847 110.756 148.781 110.716C148.716 110.676 148.659 110.624 148.613 110.562C148.568 110.5 148.535 110.429 148.517 110.355C148.499 110.28 148.496 110.202 148.508 110.126C148.52 110.051 148.546 109.978 148.586 109.912C149.956 107.734 155.056 100.062 158.026 96.4655C157.207 96.5543 156.407 96.7735 155.656 97.1149C154.79 97.5521 153.997 98.1217 153.306 98.8032L152.756 99.2827C150.448 101.465 148.327 103.838 146.416 106.376C143.416 110.112 142.416 111.311 141.486 111.141C140.486 110.951 140.366 109.403 140.246 107.075C140.146 105.267 140.036 103.009 139.386 101.73C139.186 101.401 138.286 100.422 137.816 100.452C137.676 100.452 137.566 100.651 137.496 100.811C136.896 102.21 135.986 110.452 136.036 111.74C136.106 113.439 135.336 116.366 133.736 120.452C133.646 120.681 133.556 120.931 133.456 121.211C132.483 124.003 131.138 126.651 129.456 129.083C129.366 129.683 129.116 132.769 133.456 135.587C135.898 137.191 138.821 137.897 141.726 137.585C145.504 134.585 148.969 131.211 152.066 127.515V127.535Z" fill="#0F265C"/>
<path d="M42.3165 222.481C51.1765 233.989 72.0565 222.131 107.077 180.872C124.367 160.502 129.527 157.445 142.977 142.4C148.207 134.728 130.897 119.842 126.977 123.729C111.687 136.786 67.0666 177.675 60.9066 184.139C48.2866 197.356 34.3666 212.111 42.3466 222.481" fill="#FFDD00"/>
<path d="M111.336 172.58C102.576 176.646 95.4765 183.25 88.3365 189.633C85.5766 192.215 82.6539 194.618 79.5865 196.826C77.0065 198.615 74.3565 200.293 71.7265 201.991C62.8865 207.715 50.5465 215.218 48.6665 226.467C59.6065 228.405 78.6665 214.269 107.036 180.872C110.456 176.876 113.396 173.509 116.036 170.612C114.466 171.212 112.886 171.861 111.336 172.58Z" fill="#0F265C"/>
</svg>
