<svg width="22" height="22" viewBox="0 0 22 22" fill="none" xmlns="http://www.w3.org/2000/svg">
<g id="Utility Icons / W / warning">
<path id="Icon" fill-rule="evenodd" clip-rule="evenodd" d="M21.7272 17.9808L12.0387 2.32694C11.531 1.48078 10.431 1.48078 9.92333 2.32694L0.23487 17.9808C-0.357438 18.9539 0.23487 20.3077 1.29256 20.3077H20.6695C21.7272 20.3077 22.3618 18.9539 21.7272 17.9808ZM10.981 16.9231C10.2618 16.9231 9.71179 16.3731 9.71179 15.6539C9.71179 14.9346 10.2618 14.3846 10.981 14.3846C11.7003 14.3846 12.2503 14.9346 12.2503 15.6539C12.2503 16.3731 11.7003 16.9231 10.981 16.9231ZM12.2503 13.1154C12.2503 13.3692 12.081 13.5385 11.8272 13.5385H10.1349C9.88102 13.5385 9.71179 13.3692 9.71179 13.1154V7.6154C9.71179 7.36155 9.88102 7.19232 10.1349 7.19232H11.8272C12.081 7.19232 12.2503 7.36155 12.2503 7.6154V13.1154Z" fill="#FFB75D"/>
</g>
</svg>
